<svg width="621" height="94" viewBox="0 0 621 94" fill="none" xmlns="http://www.w3.org/2000/svg">
<path d="M410.515 13.1579L389.417 65.235L368.319 13.1579H363.594L387.055 70.28H391.779L415.24 13.1579H410.515Z" fill="#7EF5FF"/>
<path d="M427.119 17.3078H462.147V13.1579H422.802V70.1173H463.124V65.886H427.119V43.4278H460.518V39.4406H427.119V17.3078Z" fill="#7EF5FF"/>
<path d="M498.255 48.31C510.718 48.31 516.828 40.1729 516.746 30.8967C516.665 22.0273 510.392 13.1579 498.01 13.1579C489.62 13.1579 481.311 13.1579 472.921 13.1579V70.1173H477.319V48.5541H492.878L512.592 70.1173H518.375L498.255 48.31ZM477.319 17.2265H498.01C507.46 17.2265 512.021 24.143 511.94 30.8153C511.858 38.7896 507.46 44.4042 497.522 44.4042H477.319V17.2265Z" fill="#7EF5FF"/>
<path d="M568.853 22.0273C563.232 13.6462 556.145 12.3442 547.999 12.3442C538.631 12.3442 526.087 16.0873 526.331 28.1301C526.331 38.6269 537.002 40.7425 547.429 42.7768C556.797 44.5669 566.246 46.4385 566.165 54.9824C566.165 65.0723 555.005 67.0252 547.999 67.0252C540.994 67.0252 532.033 63.6076 528.53 56.6911L524.62 58.644C529.019 67.3507 539.12 71.0123 547.999 71.0123C557.53 71.0123 570.482 67.9203 570.564 55.0637C570.564 42.7768 559.159 40.8239 548.162 38.7083C538.55 36.9181 530.73 35.2093 530.73 27.9674C530.73 18.8539 541.32 16.4128 547.999 16.4128C554.435 16.4941 561.114 17.4706 565.269 24.143L568.853 22.0273Z" fill="#7EF5FF"/>
<path d="M584.152 17.3078H619.18V13.1579H579.835V70.1173H620.158V65.886H584.152V43.4278H617.551V39.4406H584.152V17.3078Z" fill="#7EF5FF"/>
<path d="M248.208 30.3847C246.593 26.7913 244.538 23.7112 241.823 20.9978C239.181 18.3577 236.025 16.231 232.502 14.691C228.906 13.1509 225.163 12.3442 221.126 12.3442H201.604L211.365 22.1711H221.126C223.768 22.1711 226.337 22.6845 228.686 23.6378C231.034 24.6645 233.162 26.1312 234.924 27.8913C236.759 29.7247 238.153 31.778 239.181 34.1248C240.208 36.5448 240.722 39.0382 240.722 41.6783C240.722 44.3184 240.208 46.8117 239.181 49.2318C238.153 51.5785 236.759 53.6319 234.997 55.4653C233.236 57.2987 231.107 58.692 228.759 59.7187C226.41 60.6721 223.842 61.1854 221.126 61.1854H211.365L201.604 71.0123H221.126C225.163 71.0123 228.979 70.2057 232.502 68.6656C236.098 67.1256 239.254 64.9989 241.896 62.3588C244.538 59.6454 246.593 56.5653 248.208 52.9719C249.749 49.4518 250.483 45.7117 250.483 41.6783C250.483 37.6449 249.749 33.9048 248.208 30.3847Z" fill="white"/>
<path d="M252.706 70.2057V71.0123H291.824V61.1854H262.467L252.706 70.2057ZM252.706 12.3442L262.467 22.1711H291.824V12.3442H252.706ZM252.706 36.8382V46.5917H262.467H291.824V36.8382H262.467H252.706Z" fill="white"/>
<path d="M299.364 41.605V71.0123H309.125V51.5052H338.482V41.605H309.125H299.364ZM299.364 12.3442L309.125 22.1711H338.482V12.3442H299.364Z" fill="white"/>
<path d="M355.855 22.0245L346.094 12.3442V71.0123L355.855 61.1854V22.0245Z" fill="white"/>
<path fill-rule="evenodd" clip-rule="evenodd" d="M119.357 43.4932C119.357 47.732 118.804 51.7864 117.7 55.5644C115.491 63.3048 111.256 70.1236 105.457 75.4681C101.407 79.2461 96.5285 82.287 91.1896 84.3142C86.4031 86.1571 81.1563 87.1707 75.7254 87.1707C74.989 87.1707 74.1605 87.1708 73.4241 87.0786C72.3195 86.9865 71.1229 86.8943 70.0183 86.8022C61.6418 85.6964 53.9097 82.1948 47.7424 76.9425C45.4411 75.0074 43.324 72.7959 41.391 70.4001C40.0102 68.6493 38.7215 66.7142 37.6169 64.687C37.3408 64.2262 37.0646 63.6733 36.7885 63.2126C36.5124 62.6597 36.2362 62.199 36.0521 61.6461C35.3157 59.9875 34.6714 58.2367 34.1191 56.4859C33.7509 55.1959 33.3827 53.9058 33.1065 52.6157C32.9224 51.6943 32.7383 50.7728 32.6463 49.7592C32.3701 47.732 32.186 45.7047 32.186 43.5854C32.186 42.3875 32.186 41.1896 32.3701 39.9917C32.4622 39.2545 32.4622 38.5173 32.6463 37.7801C33.1986 33.4492 34.3952 29.3948 36.1441 25.6168C36.9726 23.7738 37.9851 21.9309 39.0897 20.2723C40.9307 17.4157 43.0479 14.7435 45.5332 12.3477C53.3574 4.69948 64.1272 1.57639e-07 75.9095 2.15788e-07C76.3697 2.1806e-07 76.83 2.20331e-07 77.2902 2.22603e-07C77.7505 2.24874e-07 78.3028 2.3353e-06 78.763 0.092149C81.2483 0.276442 83.7337 0.64503 86.0349 1.19791C87.4156 1.5665 88.7964 1.93508 90.0851 2.39582C91.0056 2.67226 91.834 3.04084 92.7545 3.40943C93.3988 3.68587 94.0432 3.96231 94.6876 4.23875C94.7796 4.3309 94.8716 4.3309 95.0557 4.42304C99.29 6.45027 103.156 9.21467 106.47 12.5319C106.93 12.9927 107.39 13.4534 107.851 13.9141C108.127 14.2827 108.495 14.5592 108.771 14.9278C109.323 15.4806 109.784 16.1257 110.244 16.6785C111.993 18.8901 113.466 21.2859 114.754 23.7738C116.227 26.7225 117.424 29.8555 118.252 33.0807C118.897 36.3979 119.357 39.8995 119.357 43.4932Z" fill="url(#paint0_radial_702_4912)"/>
<path fill-rule="evenodd" clip-rule="evenodd" d="M93.8096 3.9254C93.6284 3.9254 93.5378 3.9254 93.3567 4.01669C92.9037 4.10798 92.4507 4.01669 91.9977 3.9254C91.6353 3.83411 91.4542 3.65154 91.0012 3.65154C90.4576 3.56025 90.0046 3.37767 89.4611 3.28638C88.9175 3.19509 88.4645 3.01252 87.9209 2.82994C87.468 2.64736 87.2868 2.73865 86.9244 2.82994C86.562 2.92123 86.2903 2.73865 85.9279 2.64736C85.5655 2.46479 85.1125 2.46479 84.7501 2.3735C83.663 2.19092 82.5758 1.82577 81.4887 1.5519C80.8545 1.36932 80.2204 1.36933 79.4956 1.36933C78.952 1.36933 78.4991 1.5519 77.9555 1.5519C77.5931 1.5519 77.3213 1.46061 76.9589 1.46061C76.5965 1.36933 76.2342 1.46061 75.8718 1.46061C75.3282 1.36933 75.0564 1.27804 74.5128 1.46061C74.0599 1.5519 73.7881 1.5519 73.3351 1.64319C72.8821 1.64319 72.3386 1.82577 71.8856 1.91706C71.0702 2.09963 70.1643 2.28221 69.3489 2.28221C68.8054 2.28221 68.0806 2.09963 67.6276 2.28221C67.3558 2.3735 67.1746 2.73865 66.9028 2.92123C66.4499 3.37767 65.9969 3.74282 65.6345 4.19927C65.2721 4.65571 64.9098 5.20344 64.9098 5.84246C64.9098 6.39019 65.1815 7.02921 65.4533 7.48565C65.7251 8.03338 65.8157 8.48982 65.2721 8.85498C64.638 9.31142 63.8226 9.67657 63.0979 9.95044C62.5543 10.133 62.1013 10.2243 61.7389 9.85915C61.5577 9.76786 61.4671 9.494 61.286 9.31142C61.1048 9.22013 60.833 9.31142 60.6518 9.40271C60.1082 9.58529 59.5646 9.76786 59.0211 9.85915C58.6587 9.95044 58.3869 10.133 58.0245 10.133C57.6621 10.2243 57.3903 9.95044 56.9374 10.0417C56.3938 10.133 55.7596 10.4069 55.2161 10.4069C54.7631 10.4069 54.2195 10.2243 53.8571 10.0417C53.6759 9.95044 53.5853 9.76786 53.3136 9.85915C53.1324 9.85915 52.8606 10.133 52.77 10.3156C52.5888 10.4982 52.5888 10.772 52.4076 10.9546C52.2264 11.2285 52.1358 11.4111 51.9546 11.6849C51.6828 12.1414 51.4111 12.5978 51.1393 13.0542C50.9581 13.3281 50.7769 13.7846 50.5051 14.0584C50.4145 14.241 50.1427 14.3323 49.9615 14.4236C49.5086 14.6974 49.0556 15.0626 48.6026 15.3365C47.7873 15.9755 46.9719 16.7058 46.1565 17.3448C45.5224 17.8012 44.6164 18.0751 43.8916 18.4403C43.4387 18.6228 42.9857 18.8054 42.5327 18.988C42.3515 19.0793 42.0797 19.0793 41.9891 19.2619C41.8079 19.4444 41.7174 19.627 41.6268 19.9009C41.2644 20.3573 40.8114 20.9051 40.5396 21.4528C40.3584 21.8179 40.2678 22.0918 40.0866 22.457C39.9054 22.9134 39.6337 23.3698 39.5431 23.9176C39.1807 24.9217 39.1807 26.0172 38.7277 27.0214C38.5465 27.5691 38.1841 28.1168 37.9124 28.6646C37.4594 29.5775 37.3688 30.6729 37.2782 31.6771C37.1876 32.2248 37.2782 32.9551 37.3688 33.5029C37.4594 34.1419 37.4594 34.7809 37.4594 35.4199C37.4594 36.0589 37.0064 36.7892 36.644 37.2457C36.2816 37.7021 35.6475 37.8847 35.1945 38.3411C34.8321 38.7063 34.3791 39.0715 34.1979 39.6192C34.1073 39.8018 34.1979 40.0756 34.1979 40.3495C34.1073 40.8972 33.9262 41.3537 33.9262 41.9014C33.8356 42.5404 33.8356 43.1794 33.8356 43.9097C33.8356 44.2749 33.8356 44.5488 33.8356 44.9139C33.8356 45.2791 33.9262 45.5529 34.0168 45.8268C34.0168 46.0094 34.0168 46.2832 34.0168 46.4658C34.0168 46.7397 34.1979 47.0135 34.1979 47.1961C34.3791 47.8351 34.4697 48.3829 34.5603 49.0219C34.6509 49.5696 34.9227 50.1174 35.0133 50.6651C35.2851 51.3954 35.3757 52.1257 35.5569 52.9473C35.6475 53.495 35.6475 54.134 35.7381 54.6818C35.8287 55.1382 35.9193 55.5947 35.9193 56.0511C35.9193 56.7814 35.7381 57.4204 35.7381 58.1507C35.7381 59.3375 36.191 60.5242 36.4628 61.711C36.5534 62.0761 36.8675 63.1148 36.9581 63.48C33.8988 58.1262 32.1143 50.2086 32.1143 43.1794C32.1143 34.5983 34.5603 26.6562 38.8183 19.9922C40.6302 17.1622 42.7139 14.5149 45.16 12.2327C52.8606 4.65571 63.4602 1.54702e-07 75.0564 2.11933e-07C75.9624 2.16404e-07 76.9589 -1.17667e-06 77.8649 0.0912873C83.4818 -1.14448e-06 88.9175 1.5519 93.8096 3.9254Z" fill="white"/>
<path fill-rule="evenodd" clip-rule="evenodd" d="M60.3548 37.1338C59.8025 38.1474 58.3297 39.8982 58.7899 41.3725C58.974 42.0176 59.4343 42.5704 59.7104 43.2155C60.4468 44.782 61.9196 46.3485 63.7606 45.2427C65.8777 43.9526 64.9572 41.649 64.0367 39.9903C63.6686 39.3453 63.2083 38.6081 62.564 38.2395C62.1958 38.0553 61.6435 37.871 61.2753 37.7788C60.5389 37.5024 60.9991 37.1338 60.3548 37.1338Z" fill="#C059FF"/>
<path fill-rule="evenodd" clip-rule="evenodd" d="M65.044 52.5241C65.136 52.2477 65.2281 51.3262 65.5042 50.9576C65.6883 50.6812 66.1485 50.4969 66.5167 50.3126C67.2531 50.0361 68.0816 50.1283 68.6339 50.6812C69.7385 51.6026 69.6464 53.077 68.6339 54.0906C68.1736 54.5513 67.5293 55.0121 66.885 55.0121C66.5168 55.0121 66.1485 55.1042 65.8724 54.9199C65.5042 54.7356 65.228 54.367 65.136 53.9984C64.9519 53.3534 65.044 52.8927 65.4122 52.3398L65.044 52.5241Z" fill="#C059FF"/>
<path fill-rule="evenodd" clip-rule="evenodd" d="M57.062 52.0645C57.062 52.5253 56.7858 53.7232 57.5222 53.9075C57.8904 53.9996 58.2586 53.5389 58.2586 53.2624C58.3506 52.986 58.2586 52.5253 58.1666 52.2488C57.9825 51.8803 57.6142 51.6038 57.3381 51.9724L57.062 51.9724L57.062 52.0645Z" fill="#C059FF"/>
<path fill-rule="evenodd" clip-rule="evenodd" d="M38.4419 43.585C38.5339 44.3222 38.5339 45.5201 38.9942 46.1651C39.1783 46.4416 39.3624 46.718 39.7306 46.8102C40.0988 46.9023 40.2829 46.718 40.467 46.4416C40.8352 45.9809 40.8352 45.7044 40.8352 45.1515C40.8352 44.6908 40.6511 44.1379 40.467 43.6772C40.2829 43.4007 40.0067 43.1243 39.8226 42.94C39.6385 42.7557 39.4544 42.6636 39.0863 42.6636C38.626 42.6636 38.7181 43.2165 38.626 43.585L38.4419 43.585Z" fill="#C059FF"/>
<path fill-rule="evenodd" clip-rule="evenodd" d="M103.068 39.9905C103.068 39.8983 103.16 38.6083 103.437 38.3318C103.529 38.2397 103.805 38.1475 103.897 38.0554C104.265 37.8711 104.725 37.779 105.185 37.9632C105.738 38.2397 106.29 39.069 106.106 39.714C105.922 40.5434 105.001 41.0962 104.265 41.0962C103.437 41.0962 102.792 40.0826 103.252 39.3454L103.068 39.9905Z" fill="#7800B0"/>
<path fill-rule="evenodd" clip-rule="evenodd" d="M58.2275 50.3119C58.2275 50.3119 58.3196 49.6668 58.4116 49.4826C58.5037 49.3904 58.5957 49.3904 58.6878 49.3904C58.8719 49.2983 59.148 49.2983 59.3321 49.3904C59.6083 49.5747 59.8844 49.9433 59.7924 50.3119C59.7003 50.6805 59.2401 51.049 58.8719 51.049C58.5037 51.049 58.1355 50.4962 58.3196 50.1276L58.2275 50.3119Z" fill="#C059FF"/>
<path fill-rule="evenodd" clip-rule="evenodd" d="M78.1182 58.3275C78.1182 58.3275 78.2102 57.6825 78.3023 57.4982C78.3943 57.406 78.4864 57.406 78.5784 57.406C78.7625 57.3139 79.0387 57.3139 79.2228 57.406C79.4989 57.5903 79.7751 57.9589 79.683 58.3275C79.591 58.6961 79.1307 59.0647 78.7625 59.0647C78.3943 59.0647 78.0261 58.5118 78.2102 58.1432L78.1182 58.3275Z" fill="#C059FF"/>
<path fill-rule="evenodd" clip-rule="evenodd" d="M91.562 23.1278C91.562 23.1278 91.6541 22.4828 91.7461 22.2985C91.8382 22.2063 91.9302 22.2063 92.0223 22.2063C92.2064 22.1142 92.4825 22.1142 92.6666 22.2063C92.9428 22.3906 93.2189 22.7592 93.1269 23.1278C93.0348 23.4964 92.5746 23.865 92.2064 23.865C91.8382 23.865 91.4699 23.3121 91.654 22.9435L91.562 23.1278Z" fill="#C059FF"/>
<path fill-rule="evenodd" clip-rule="evenodd" d="M64.2266 74.1786C64.2266 74.1786 64.3186 73.5335 64.4107 73.3492C64.5027 73.2571 64.5948 73.2571 64.6868 73.2571C64.8709 73.165 65.1471 73.165 65.3312 73.2571C65.6073 73.4414 65.8835 73.81 65.7914 74.1786C65.6994 74.5472 65.2391 74.9157 64.8709 74.9157C64.5027 74.9157 64.1345 74.3628 64.3186 73.9943L64.2266 74.1786Z" fill="#C059FF"/>
<path fill-rule="evenodd" clip-rule="evenodd" d="M100.214 50.8647C99.5695 51.3255 99.1093 51.5098 98.7411 52.0626C98.4649 52.5234 98.0968 52.892 97.9127 53.4448C97.7286 53.8134 97.5444 54.4585 97.5444 54.827C97.6365 55.9328 99.0172 55.0113 99.4774 54.6428C100.03 54.182 100.582 53.537 100.582 52.7998C100.582 52.5234 100.582 52.1548 100.49 51.8784C100.398 51.7862 100.398 51.6019 100.306 51.5098C100.122 51.3255 100.03 51.3255 100.214 50.8647Z" fill="#7800B0"/>
<path fill-rule="evenodd" clip-rule="evenodd" d="M114.114 55.9325C114.206 55.4718 113.93 57.2225 114.022 57.3147C114.206 57.3147 114.39 57.3147 114.575 57.3147C114.759 57.3147 114.851 57.1304 115.035 57.0382C115.403 56.7618 115.679 56.5775 115.679 56.1168C115.679 55.7482 115.587 55.4718 115.219 55.2875C115.035 55.1953 114.943 55.1953 114.759 55.1953C114.39 55.2875 114.114 55.656 113.93 56.0246L114.114 55.9325Z" fill="#7800B0"/>
<path fill-rule="evenodd" clip-rule="evenodd" d="M75.8375 74.9144C76.2057 74.9144 74.917 74.9144 74.917 74.9144C74.917 75.0066 74.917 75.1909 74.917 75.283C74.917 75.4673 75.0091 75.4673 75.1011 75.5594C75.2852 75.7437 75.4693 75.928 75.7454 75.928C76.0216 75.928 76.2057 75.8359 76.2057 75.5594C76.2057 75.4673 76.2977 75.3751 76.2057 75.283C76.1136 75.0066 75.8375 74.8223 75.6534 74.8223L75.8375 74.9144Z" fill="#7800B0"/>
<path fill-rule="evenodd" clip-rule="evenodd" d="M75.1866 71.1371C75.2786 70.6763 75.0024 72.4271 75.0945 72.5193C75.2786 72.5193 75.4627 72.5193 75.6468 72.5193C75.8309 72.5193 75.9229 72.335 76.107 72.2428C76.4752 71.9664 76.7514 71.7821 76.7514 71.3214C76.7514 70.9528 76.6593 70.6763 76.2911 70.492C76.107 70.3999 76.015 70.3999 75.8309 70.3999C75.4627 70.492 75.1865 70.8606 75.0024 71.2292L75.1866 71.1371Z" fill="#C059FF"/>
<g opacity="0.25">
<path opacity="0.4" fill-rule="evenodd" clip-rule="evenodd" d="M43.9094 16.9758C42.6207 18.5423 41.5161 20.0167 40.6876 21.8596C39.9512 23.4261 39.6751 25.269 39.399 27.0198C39.2149 28.0334 39.1228 29.0471 38.9387 30.1528C38.8467 31.0743 38.5705 31.9958 38.6626 32.9172C38.8467 34.2073 38.9387 35.5895 39.5831 36.6952C40.2274 37.8931 40.8717 38.9989 41.7002 40.1047C42.5286 41.1183 43.5412 41.6711 44.9219 41.7633C45.6583 41.8554 46.3947 41.6711 47.1311 41.7633C48.1436 41.8554 49.1562 42.0397 50.1687 42.224C52.1938 42.5926 54.495 42.5926 55.9678 40.934C57.1645 39.5518 57.7168 37.8931 58.4532 36.2345C59.2816 34.4837 60.2941 33.1015 61.7669 31.9036C62.8715 31.0743 63.8841 30.0607 64.8966 29.1392C65.3569 28.7706 65.633 28.3099 66.1853 27.9413C66.7376 27.6649 67.0138 27.2963 67.474 26.8355C67.9343 26.4669 68.3945 26.1905 68.7627 25.7298C69.407 24.9926 69.8673 24.0711 70.1434 23.2418C70.5116 22.3204 70.6037 21.3989 70.7878 20.3853C70.8798 19.4638 70.6037 18.5423 70.3275 17.6209C69.7752 15.9622 68.3024 14.8565 67.0138 13.8429C65.3569 12.5528 63.3318 11.9999 61.3067 11.5392C59.4657 11.1706 57.1645 11.0785 55.2315 11.447C53.2064 11.8156 51.1813 12.0921 49.3403 12.9214C47.9595 13.5664 47.1311 14.3957 46.0265 15.4094C45.4742 15.8701 44.8299 16.2387 44.2776 16.7916C43.6332 17.5287 42.9889 18.358 43.9094 16.9758Z" fill="#0F0801"/>
<path opacity="0.4" fill-rule="evenodd" clip-rule="evenodd" d="M63.6104 8.86719C63.8865 8.40646 64.1626 7.66929 64.5308 7.3007C64.7149 7.02426 64.9911 6.83997 65.2673 6.65567C66.0037 6.01065 66.8321 5.54991 67.7526 5.27347C68.3049 5.08918 68.8572 5.08918 69.3174 5.27347C69.8697 5.36562 70.7902 5.73421 71.1584 6.1028C71.8948 6.83997 71.4346 8.03788 71.1584 8.86719C70.9743 9.69651 70.6982 10.5258 69.9618 10.9866C69.5015 11.3552 68.8572 11.6316 68.3049 11.7237C68.0287 11.8159 67.6605 11.8159 67.2923 11.8159C67.0162 11.8159 66.74 11.908 66.5559 11.908C65.9116 11.908 64.9911 11.4473 64.807 10.8944C64.715 10.618 64.6229 10.2494 64.4388 9.97296C64.3468 9.69652 64.2547 9.51222 64.1627 9.23578C63.9786 8.77505 63.8865 8.31431 63.6104 8.86719Z" fill="#0F0801"/>
<path opacity="0.4" fill-rule="evenodd" clip-rule="evenodd" d="M70.888 13.4761C70.7039 13.9368 70.6118 14.4897 70.6118 14.9504C70.7959 15.0426 70.888 15.319 71.1641 15.5033C71.3482 15.5955 71.6244 15.5955 71.9005 15.5955C72.3607 15.5955 72.7289 15.5955 72.821 15.0426C72.913 14.5818 72.4528 14.2132 72.0846 13.9368C71.8085 13.7525 71.3482 13.2918 71.0721 13.6604L70.888 13.4761Z" fill="#0F0801"/>
<path opacity="0.4" fill-rule="evenodd" clip-rule="evenodd" d="M76.8747 20.5709C76.3224 20.9394 75.678 21.308 75.1257 21.7688C74.4814 22.3216 73.9291 22.9667 73.3768 23.7038C72.7324 24.5332 71.904 25.4546 72.0881 26.6525C72.2722 27.7583 72.6404 28.7719 73.4688 29.5091C74.4814 30.4305 76.0462 30.4305 77.2429 30.9834C78.2554 31.4442 78.8997 32.4578 79.36 33.4714C80.0964 34.9457 81.7533 35.2222 83.2261 35.4986C84.1466 35.6829 85.1591 35.7751 86.0796 35.9593C87.3683 36.1436 88.657 36.3279 89.9457 36.5122C92.339 36.6965 94.7322 37.2494 97.1255 37.0651C99.7029 36.8808 102.004 35.9593 104.029 34.485C105.778 33.2871 107.435 31.0756 107.895 28.9562C108.356 26.7447 107.619 24.2567 106.607 22.2295C105.226 19.6494 103.569 17.3457 101.728 15.0421C100.715 13.752 99.6109 12.6462 98.5063 11.4483C97.5858 10.3426 96.6652 9.42111 95.6527 8.49964C93.2594 6.47242 90.3139 4.81378 87.1842 4.62948C85.9876 4.53734 84.7909 4.72163 83.5943 5.18236C82.5817 5.55095 81.8453 6.10383 81.1089 6.93315C79.2679 8.86823 78.2554 11.3562 77.4269 13.8441C77.0587 15.0421 76.6906 16.3321 76.8747 17.53C76.8747 17.8986 77.1508 18.175 77.1508 18.5436C77.1508 18.9122 77.1508 19.1887 77.1508 19.5572C77.1508 19.7415 77.1508 19.9258 77.0588 20.1101C76.9667 20.2944 76.6906 20.5709 76.8747 20.5709Z" fill="#0F0801"/>
<path opacity="0.4" fill-rule="evenodd" clip-rule="evenodd" d="M66.9154 29.2321C65.7188 29.9692 64.4301 30.5221 63.5096 31.6279C63.3255 31.8122 63.1414 32.0886 63.2335 32.365C63.3255 32.6415 63.6937 32.8258 63.9699 32.9179C64.8904 33.2865 65.995 33.4708 67.0075 33.2865C67.928 33.1022 69.0326 32.5493 69.4928 31.72C70.1372 30.7064 69.4008 29.0478 68.1121 29.1399C67.928 29.1399 67.7439 29.2321 67.5598 29.2321C67.3757 29.2321 67.2836 29.2321 67.0996 29.2321C66.9155 29.2321 66.9155 29.2321 66.7314 29.3242C66.5473 29.5085 66.3631 29.6928 66.9154 29.2321Z" fill="#0F0801"/>
<path opacity="0.4" fill-rule="evenodd" clip-rule="evenodd" d="M41.7032 46.0954C41.243 46.5561 40.6907 46.9247 40.4145 47.4776C40.1384 48.0305 39.9543 48.5834 39.8622 49.2284C39.7702 49.7813 39.5861 50.3342 39.7702 50.887C39.8622 51.3478 40.1384 51.8085 40.3225 52.3614C40.5066 53.0064 40.7827 53.5593 40.8748 54.2043C41.0589 55.0336 41.335 55.6787 41.7032 56.4158C42.0714 57.153 42.4396 57.798 42.8998 58.4431C43.3601 59.1802 43.8203 59.641 44.3726 60.286C46.3977 62.3132 48.791 64.5248 51.7366 64.8933C53.2094 65.0776 54.7742 64.709 55.8788 63.6033C57.0755 62.4054 57.8118 60.7467 58.088 59.0881C58.2721 57.7059 58.1801 56.2316 57.4437 55.0336C56.7993 54.02 56.155 53.0064 55.4186 52.1771C54.8663 51.6242 54.314 51.1635 53.6696 50.6106C53.1173 50.0577 52.565 49.5048 51.9207 49.1363C50.8161 48.3069 49.8036 47.4776 48.699 46.7404C47.6864 46.0033 46.5818 45.2661 45.3852 44.9897C44.5567 44.8054 43.6363 44.6211 42.8078 44.9897C42.4396 45.174 42.1635 45.2661 41.9794 45.5425C41.8873 45.7268 41.7032 46.0033 41.7032 46.1876C41.5191 46.0033 41.4271 46.0033 41.7032 46.0954Z" fill="#0F0801"/>
<path opacity="0.4" fill-rule="evenodd" clip-rule="evenodd" d="M49.4125 44.1606C49.4125 44.5291 49.5045 44.8977 49.5045 45.1742C49.5045 45.2663 49.5966 45.3585 49.5966 45.5428C49.6886 45.6349 49.9648 45.6349 50.0568 45.6349C50.425 45.6349 50.7932 45.4506 51.0694 45.2663C51.5296 44.8977 51.7137 44.1606 51.2535 43.792C50.9773 43.5155 50.5171 43.3312 50.0568 43.4234C49.8727 43.5155 48.8602 43.9763 49.2284 44.3449L49.4125 44.1606Z" fill="#0F0801"/>
<path opacity="0.4" fill-rule="evenodd" clip-rule="evenodd" d="M107.79 34.5777C107.974 33.8405 107.974 33.2876 108.434 32.7348C108.894 32.274 109.354 31.7211 109.723 31.2604C110.459 30.3389 110.919 29.141 111.195 28.0353C111.472 27.0217 111.195 26.008 111.656 24.9944C111.748 24.718 111.932 24.3494 112.116 24.1651C112.3 24.073 112.852 24.1651 113.036 24.2573C113.22 24.3494 113.497 24.6259 113.681 24.8101C113.957 25.0866 114.233 25.363 114.601 25.7316C116.074 27.2981 116.902 29.6939 116.81 31.8133C116.81 33.1033 116.626 34.2091 116.258 35.407C116.074 35.8677 115.89 36.3285 115.614 36.7892C115.338 37.3421 114.877 37.6185 114.417 37.9871C112.944 38.9086 110.735 38.6321 109.446 37.4342C108.986 36.9735 108.802 36.4206 108.434 35.8677C108.158 35.4992 107.974 35.1306 107.882 34.5777C107.882 34.4855 107.882 34.4855 107.79 34.5777Z" fill="#0F0801"/>
<path opacity="0.4" fill-rule="evenodd" clip-rule="evenodd" d="M107.79 18.1756C108.066 19.005 108.158 19.9264 109.078 20.3872C109.262 20.4793 109.539 20.5715 109.723 20.5715C109.907 20.5715 110.091 20.4793 110.275 20.295C111.195 19.65 110.643 18.0835 110.091 17.3463C109.723 16.9777 109.262 16.7934 108.802 16.6091C108.618 16.517 108.618 16.517 108.434 16.6091C108.25 16.7013 108.158 16.7013 108.066 16.8856C107.974 16.9777 107.974 17.2542 107.974 17.3463C107.974 17.5306 107.882 17.6228 107.882 17.7149C107.79 17.9914 107.882 18.2678 107.974 18.5442L107.79 18.1756Z" fill="#0F0801"/>
<path opacity="0.4" fill-rule="evenodd" clip-rule="evenodd" d="M100.991 53.6513C100.807 54.2042 100.623 54.8492 100.346 55.4021C100.07 56.0471 99.7941 56.6 99.518 57.245C98.8736 58.8115 98.5055 60.5623 98.0452 62.2209C97.585 63.9717 97.3088 65.8146 97.1247 67.5654C97.0327 68.4869 96.8486 69.4083 96.9406 70.3298C96.9406 70.9748 96.9406 71.8042 97.2167 72.4492C97.4008 72.8178 97.769 73.4628 98.1372 73.6471C98.6895 73.9235 99.3339 73.4628 99.7941 73.1864C101.543 72.2649 103.108 70.9749 104.489 69.5927C105.869 68.2105 107.25 66.9204 108.447 65.3539C108.999 64.6167 109.551 63.9717 110.012 63.1424C110.38 62.4974 110.656 61.7602 110.932 61.1152C111.208 60.4701 111.484 59.8251 111.761 59.1801C112.129 58.4429 112.405 57.6136 112.681 56.7843C113.141 55.2178 113.602 53.6513 113.049 52.0848C112.589 50.7026 111.484 49.689 110.012 49.4125C109.275 49.2282 108.355 49.0439 107.618 49.0439C106.882 49.1361 106.053 49.3204 105.317 49.5968C104.673 49.8733 104.028 50.1497 103.476 50.5183C103.2 50.7026 102.924 50.979 102.648 51.2555C102.187 51.7162 101.819 52.1769 101.451 52.7298C101.267 53.0063 101.175 53.1905 100.899 53.3748C100.807 53.8356 100.623 54.2963 100.991 53.6513Z" fill="#0F0801"/>
<path opacity="0.4" fill-rule="evenodd" clip-rule="evenodd" d="M94.0819 73.8315C93.1614 74.2001 92.425 74.4766 91.5965 75.1216C90.6761 75.8588 89.7555 76.5038 89.1112 77.5174C88.8351 77.886 88.3748 78.4389 88.743 78.8996C89.0191 79.2682 89.5714 79.2682 90.0317 79.2682C90.676 79.2682 91.3204 79.176 91.8727 78.8996C92.425 78.7153 92.8852 78.3467 93.4375 78.1624C93.9898 77.9781 94.7262 77.6096 95.0944 77.1488C95.2785 76.8724 95.4626 76.5038 95.6467 76.2274C95.8308 75.9509 95.8308 75.8588 95.8308 75.4902C95.8308 75.1216 95.5546 74.6609 95.3705 74.4766C95.1864 74.2923 94.7262 74.0158 94.4501 74.108C94.266 74.108 94.0819 74.2001 93.8978 74.2923C93.5296 74.2923 93.2534 74.753 94.0819 73.8315Z" fill="#0F0801"/>
<path opacity="0.4" fill-rule="evenodd" clip-rule="evenodd" d="M92.9795 68.4884C92.7954 67.7512 92.6113 67.2905 92.6113 66.5533C92.7034 65.9083 92.7034 65.3554 92.9795 64.8025C93.1636 64.5261 93.5318 63.7889 93.808 63.6968C93.9 63.6968 94.1762 63.6968 94.2682 63.6968C94.7285 63.7889 95.0046 64.3418 95.0967 64.8025C95.2808 65.4476 95.0966 66.1847 95.1887 66.9219C95.1887 67.4748 95.0967 67.9355 94.9126 68.3963C94.7285 68.7648 94.4523 68.7648 94.0842 68.7648C93.716 68.7648 93.5318 68.6727 93.2557 68.3963C93.1636 68.3041 92.9795 68.3041 92.8875 68.212C92.7034 68.0277 92.7034 67.8434 92.9795 68.4884Z" fill="#0F0801"/>
<path opacity="0.4" fill-rule="evenodd" clip-rule="evenodd" d="M92.1459 40.8422C92.0538 41.3029 92.0538 41.8558 92.0538 42.3166C92.2379 42.3166 92.422 42.6851 92.6061 42.6851C92.9743 42.7773 93.2505 42.593 93.5266 42.4087C94.0789 41.948 94.263 41.1187 94.0789 40.4736C93.9869 39.8286 93.2505 39.7365 92.6982 39.8286C92.5141 39.8286 92.2379 39.9207 92.1459 40.0129C91.7777 40.2893 91.7777 40.6579 91.7777 41.0265L92.1459 40.8422Z" fill="#0F0801"/>
<path opacity="0.4" fill-rule="evenodd" clip-rule="evenodd" d="M50.5267 70.8835C50.8028 70.3306 51.0789 69.7777 51.4471 69.317C51.9074 68.7641 52.3676 68.3034 52.8279 67.8426C53.4722 67.2897 54.1166 66.7369 54.7609 66.2761C55.4053 65.8154 55.9576 65.3547 56.6019 64.8939C57.7065 64.1568 58.9031 63.696 60.1918 63.2353C61.2044 62.8667 62.309 62.7746 63.4136 62.9588C64.5182 63.1431 65.6227 63.7882 66.3591 64.5253C67.0955 65.2625 67.924 66.184 68.3842 67.1054C69.3968 69.0405 68.9365 71.252 68.2922 73.1871C68.016 74.1086 67.3717 75.1222 66.6353 75.7672C66.175 76.1358 65.7148 76.3201 65.1625 76.4123C64.6102 76.5044 63.8738 76.7808 63.3215 76.7808C60.6521 77.1494 57.9826 76.9651 55.4973 76.0437C54.4848 75.6751 53.5643 75.2144 52.5517 74.7536C51.8153 74.385 51.171 73.9243 50.7107 73.2793C50.3425 72.8185 50.0664 72.1735 50.0664 71.5285C50.0664 71.252 50.1584 70.9756 50.2505 70.6992C50.4346 70.8835 50.5267 70.7913 50.5267 70.8835Z" fill="#0F0801"/>
<path opacity="0.4" fill-rule="evenodd" clip-rule="evenodd" d="M70.2359 72.0806C70.0518 72.5414 69.9597 73.0942 69.8677 73.555C70.0518 73.6471 70.0518 73.9236 70.1438 74.1079C70.3279 74.2921 70.42 74.3843 70.6961 74.3843C70.9723 74.3843 71.2484 74.3843 71.4325 74.3843C71.8007 74.2922 71.8928 74.2 72.0769 73.9236C72.261 73.6471 72.353 73.4628 72.353 73.0942C72.353 72.8178 72.261 72.5414 72.0769 72.3571C71.9848 72.1728 71.8007 71.9885 71.6166 71.8963C71.2484 71.6199 70.9723 71.8042 70.6961 71.9885L70.2359 72.0806Z" fill="#0F0801"/>
<path opacity="0.4" fill-rule="evenodd" clip-rule="evenodd" d="M113.311 49.3216C112.943 49.0451 112.575 48.6766 112.299 48.2158C112.299 48.0315 112.299 47.8472 112.299 47.663C112.207 47.2022 112.115 46.8336 112.207 46.3729C112.391 45.2671 113.311 44.53 114.416 44.4378C115.152 44.3457 116.165 44.8985 116.533 45.5436C116.901 46.1886 117.085 46.9258 117.085 47.663C117.085 48.2158 116.993 48.953 116.625 49.4137C116.349 49.7823 115.889 49.7823 115.52 49.7823C115.06 49.7823 114.6 49.6902 114.232 49.598C113.863 49.5059 113.495 49.3216 113.311 49.3216Z" fill="#0F0801"/>
</g>
<path fill-rule="evenodd" clip-rule="evenodd" d="M30.6988 53.1598C30.4956 52.1508 30.3278 51.141 30.1946 50.1319C27.4423 51.6042 24.8731 53.0723 22.5088 54.523C16.5102 58.2036 11.7594 61.8152 8.68456 65.1506C7.14749 66.8179 5.97697 68.4718 5.29946 70.0843C4.6171 71.7084 4.40446 73.3716 4.92782 74.9496C5.48544 76.6309 6.76869 77.888 8.43283 78.7987C10.0881 79.7046 12.2151 80.3244 14.6836 80.7149C19.6244 81.4965 26.2501 81.4065 34.0118 80.5404C34.8091 80.4515 35.3832 79.7331 35.2943 78.9359C35.2053 78.1386 34.4869 77.5645 33.6897 77.6534C26.0419 78.5068 19.7095 78.569 15.1375 77.8457C12.8496 77.4837 11.0816 76.9368 9.82739 76.2505C8.58206 75.5689 7.94146 74.8083 7.68504 74.0352C7.44376 73.3077 7.4819 72.3893 7.97759 71.2095C8.47813 70.0182 9.41294 68.6462 10.8204 67.1195C13.6345 64.0669 18.1293 60.6182 24.028 56.999C26.0932 55.7318 28.3218 54.4489 30.6988 53.1598ZM116.534 24.6865C119.221 24.2977 121.784 23.9931 124.206 23.7742C131.099 23.1512 136.764 23.2303 140.844 23.9963C142.885 24.3793 144.454 24.9208 145.568 25.5769C146.67 26.2266 147.249 26.9402 147.491 27.6677C147.856 28.7701 147.569 30.3434 146.058 32.4975C144.569 34.6183 142.072 37.0333 138.632 39.6414C137.993 40.1261 137.868 41.0372 138.353 41.6763C138.837 42.3155 139.749 42.4408 140.388 41.9561C143.937 39.2645 146.701 36.6381 148.436 34.1662C150.147 31.7274 151.045 29.1565 150.248 26.7532C149.725 25.1752 148.56 23.9687 147.043 23.0743C145.536 22.1862 143.609 21.5596 141.38 21.1412C136.922 20.3043 130.954 20.2475 123.945 20.881C121.173 21.1315 118.226 21.4912 115.129 21.9576C115.625 22.8461 116.094 23.756 116.534 24.6865ZM131.46 47.9113C132.148 47.4993 132.372 46.6074 131.96 45.9191C131.548 45.2308 130.656 45.0069 129.968 45.4189C118.241 52.439 101.631 59.8816 82.6686 66.1706C73.0639 69.3561 63.7612 71.9453 55.1481 73.904C54.3659 74.0819 53.876 74.8602 54.0538 75.6424C54.2317 76.4246 55.01 76.9145 55.7922 76.7366C64.5018 74.756 73.8947 72.1411 83.5831 68.9279C102.691 62.5907 119.506 55.0674 131.46 47.9113Z" fill="url(#paint1_linear_702_4912)"/>
<path fill-rule="evenodd" clip-rule="evenodd" d="M33.0354 52.2617C32.891 51.7518 32.6361 49.2024 32.3811 47.9277C16.1354 56.5766 6.09813 65.3416 7.87983 70.7137C10.8394 79.6372 44.1197 76.6293 82.2135 63.9952C120.307 51.3612 148.789 33.8853 145.83 24.9617C144.049 19.5934 131.627 18.6479 113.453 21.4139C114.473 22.9436 114.727 23.7084 115.492 25.238C117.764 24.9209 120.138 24.4253 122.2 24.239C128.764 23.6457 133.973 23.7424 137.582 24.4197C139.388 24.7586 140.585 25.2059 141.308 25.6322C141.655 25.8367 141.84 26.0053 141.929 26.1056C141.973 26.1543 141.994 26.1873 142.004 26.2031C142.013 26.2179 142.015 26.2248 142.015 26.2266C142.016 26.2279 142.017 26.232 142.019 26.2407C142.019 26.2439 142.02 26.2479 142.02 26.2527C142.022 26.2709 142.025 26.3102 142.019 26.3753C142.007 26.5093 141.96 26.7547 141.804 27.1262C141.478 27.9001 140.786 28.9741 139.541 30.3249C137.052 33.0245 132.933 36.2149 127.315 39.6619C116.135 46.5215 99.7918 53.9315 80.9485 60.1811C62.1052 66.4306 44.5727 70.2557 31.5096 71.4364C24.9453 72.0297 19.736 71.9331 16.1274 71.2557C14.3217 70.9168 13.1246 70.4695 12.4014 70.0433C12.0543 69.8387 11.8697 69.6701 11.7801 69.5699C11.7365 69.5211 11.715 69.4881 11.7057 69.4723C11.6969 69.4574 11.6946 69.4505 11.694 69.4488C11.6935 69.4471 11.6911 69.4402 11.6892 69.4228C11.6873 69.4045 11.6849 69.3652 11.6907 69.3001C11.7026 69.1661 11.7498 68.9207 11.9059 68.5492C12.2311 67.7753 12.9236 66.7013 14.1689 65.3505C16.6576 62.6509 20.7766 59.4605 26.3945 56.0135C28.091 54.9726 29.9063 53.919 31.8313 52.8587C31.9194 52.8102 32.9469 52.3102 33.0354 52.2617Z" fill="url(#paint2_linear_702_4912)"/>
<path fill-rule="evenodd" clip-rule="evenodd" d="M133.984 73.5254L133.932 73.6974C133.932 73.7106 133.932 73.7106 133.918 73.7239C133.788 74.1738 133.618 74.5972 133.409 74.9942C133.07 75.6425 132.613 76.238 132.09 76.7408C131.476 77.323 130.745 77.7861 129.935 78.0905C129.204 78.3684 128.421 78.5272 127.598 78.5272C127.48 78.5272 127.363 78.5271 127.245 78.5139C127.076 78.5007 126.906 78.4875 126.736 78.461C125.626 78.3154 124.607 77.892 123.746 77.2569C123.667 77.1907 123.589 77.1378 123.51 77.0716C123.667 76.9393 123.981 76.9261 123.981 76.9261L123.537 76.5688L122.427 75.9601C122.218 75.6822 122.022 75.3911 121.852 75.0868C121.813 75.0074 121.774 74.9412 121.734 74.8618C121.734 74.8618 121.734 74.8618 121.734 74.8486C121.695 74.7692 121.656 74.6898 121.617 74.6104C121.499 74.359 121.408 74.0944 121.317 73.8165C121.251 73.618 121.199 73.4195 121.16 73.221C121.134 73.0755 121.108 72.9299 121.082 72.7844C121.042 72.48 121.016 72.1625 121.016 71.8449C121.016 71.7655 121.016 71.6994 121.016 71.62C121.016 71.5141 121.029 71.395 121.029 71.2892C121.042 71.1833 121.055 71.0774 121.055 70.9716C121.055 70.9583 121.055 70.9583 121.055 70.9451C121.082 70.7996 121.095 70.654 121.134 70.5085C121.173 70.2967 121.225 70.0983 121.29 69.8998C121.369 69.6219 121.473 69.344 121.591 69.0926C121.708 68.8412 121.839 68.5898 121.983 68.3516C122.427 68.1134 122.714 67.9811 122.714 67.9811C122.714 67.9811 130.379 66.4462 130.497 66.3139C130.615 66.1815 131.189 66.2609 131.189 66.2609C131.555 66.4991 131.881 66.777 132.195 67.0813C132.273 67.1475 132.338 67.2269 132.404 67.293C132.443 67.346 132.495 67.3989 132.534 67.4518C132.613 67.5444 132.678 67.6238 132.756 67.7165C133.017 68.0605 133.252 68.4178 133.448 68.8015C133.527 68.9471 133.592 69.1058 133.657 69.2514C134.245 71.5935 133.514 73.5916 133.514 73.5916C133.71 73.5519 133.866 73.5386 133.984 73.5254Z" fill="url(#paint3_radial_702_4912)"/>
<path fill-rule="evenodd" clip-rule="evenodd" d="M133.984 73.5254L133.932 73.6974C133.932 73.7106 133.932 73.7106 133.918 73.7239C133.788 74.1738 133.618 74.5972 133.409 74.9942C133.07 75.6425 132.613 76.238 132.09 76.7408C131.476 77.323 130.745 77.7861 129.935 78.0905C129.204 78.3684 128.421 78.5272 127.598 78.5272C127.48 78.5272 127.363 78.5271 127.245 78.5139C127.076 78.5007 126.906 78.4875 126.736 78.461C125.626 78.3154 124.607 77.892 123.746 77.2569C123.667 77.1907 123.589 77.1378 123.51 77.0716C123.667 76.9393 123.981 76.9261 123.981 76.9261L123.537 76.5688L122.427 75.9601C122.218 75.6822 122.022 75.3911 121.852 75.0868C121.813 75.0074 121.774 74.9412 121.734 74.8618C121.734 74.8618 121.734 74.8618 121.734 74.8486C121.695 74.7692 121.656 74.6898 121.617 74.6104C121.499 74.359 121.408 74.0944 121.317 73.8165C121.251 73.618 121.199 73.4195 121.16 73.221C121.134 73.0755 121.108 72.9299 121.082 72.7844C121.042 72.48 121.016 72.1625 121.016 71.8449C121.016 71.7655 121.016 71.6994 121.016 71.62C121.016 71.5141 121.029 71.395 121.029 71.2892C121.042 71.1833 121.055 71.0774 121.055 70.9716C121.055 70.9583 121.055 70.9583 121.055 70.9451C121.082 70.7996 121.095 70.654 121.134 70.5085C121.173 70.2967 121.225 70.0983 121.29 69.8998C121.369 69.6219 121.473 69.344 121.591 69.0926C121.708 68.8412 121.839 68.5898 121.983 68.3516C122.427 68.1134 122.714 67.9811 122.714 67.9811C122.714 67.9811 130.379 66.4462 130.497 66.3139C130.615 66.1815 131.189 66.2609 131.189 66.2609C131.555 66.4991 131.881 66.777 132.195 67.0813C132.273 67.1475 132.338 67.2269 132.404 67.293C132.443 67.346 132.495 67.3989 132.534 67.4518C132.613 67.5444 132.678 67.6238 132.756 67.7165C133.017 68.0605 133.252 68.4178 133.448 68.8015C133.527 68.9471 133.592 69.1058 133.657 69.2514C134.245 71.5935 133.514 73.5916 133.514 73.5916C133.71 73.5519 133.866 73.5386 133.984 73.5254Z" fill="url(#paint4_radial_702_4912)"/>
<path fill-rule="evenodd" clip-rule="evenodd" d="M133.801 71.8576C133.801 72.0958 133.788 72.334 133.762 72.5589C133.722 72.9162 133.657 73.2602 133.566 73.591C133.566 73.6042 133.566 73.6042 133.566 73.6175C133.448 74.0409 133.278 74.4379 133.083 74.8084C132.756 75.4171 132.338 75.9728 131.842 76.4492C131.267 76.9917 130.575 77.4283 129.818 77.7194C129.139 77.9841 128.394 78.1296 127.624 78.1296C127.519 78.1296 127.402 78.1296 127.297 78.1164C127.141 78.1032 126.971 78.09 126.814 78.0767C125.77 77.9444 124.816 77.5342 124.007 76.9388C123.889 76.8461 123.772 76.7535 123.654 76.6609C123.628 76.6344 123.589 76.608 123.563 76.5815C123.275 76.3168 123.001 76.039 122.766 75.7214C122.57 75.47 122.387 75.1921 122.217 74.901C122.178 74.8348 122.139 74.7687 122.113 74.6893C122.113 74.6893 122.113 74.6893 122.113 74.676C122.074 74.5967 122.035 74.5305 122.009 74.4511C121.904 74.2129 121.813 73.9615 121.734 73.7101C121.682 73.5249 121.63 73.3396 121.591 73.1543C121.565 73.022 121.538 72.8897 121.525 72.7442C121.486 72.453 121.46 72.1619 121.46 71.8576C121.46 71.7914 121.46 71.712 121.46 71.6459C121.46 71.54 121.473 71.4342 121.473 71.3415C121.486 71.2357 121.486 71.1431 121.499 71.0372C121.499 71.024 121.499 71.024 121.499 71.0107C121.512 70.8784 121.538 70.7329 121.565 70.6005C121.604 70.4021 121.656 70.2168 121.708 70.0183C121.787 69.7537 121.878 69.5023 121.995 69.2509C122.113 68.9862 122.257 68.7216 122.413 68.4702C122.518 68.2981 122.635 68.1261 122.766 67.9673C122.936 67.7424 123.132 67.5307 123.328 67.3322C124.438 66.2339 125.965 65.5591 127.637 65.5591C127.702 65.5591 127.768 65.5591 127.833 65.5591C127.898 65.5591 127.976 65.5591 128.042 65.5723C128.238 65.5855 128.42 65.612 128.616 65.6385C128.616 65.6385 128.616 65.6385 128.629 65.6385C128.786 65.6649 128.943 65.6914 129.086 65.7311C129.282 65.784 129.478 65.837 129.661 65.9031C129.792 65.9428 129.909 65.9957 130.04 66.0487C130.131 66.0884 130.223 66.1281 130.314 66.1678C130.327 66.181 130.34 66.181 130.366 66.1942C130.967 66.4853 131.515 66.8823 131.986 67.3587C132.051 67.4248 132.116 67.491 132.181 67.5571C132.221 67.6101 132.273 67.6498 132.312 67.7027C132.377 67.7821 132.456 67.8747 132.521 67.9541C132.769 68.2717 132.978 68.6157 133.161 68.973C133.37 69.3964 133.54 69.8463 133.657 70.3094C133.735 70.6005 133.775 70.9049 133.814 71.2225C133.788 71.4474 133.801 71.6459 133.801 71.8576Z" fill="url(#paint5_radial_702_4912)"/>
<path fill-rule="evenodd" clip-rule="evenodd" d="M124.588 69.3568C124.588 69.3568 124.418 69.7273 124.562 70.0978C124.692 70.4683 125.084 70.2302 125.541 70.0978C125.998 69.9655 126.468 69.4892 126.769 69.1848C127.069 68.8805 127.356 68.4703 127.33 68.0733C127.304 67.6763 126.886 67.4117 126.886 67.4117C126.886 67.4117 127.043 67.2132 126.912 68.0071C126.782 68.7878 126.612 69.079 126.442 69.198C126.272 69.3171 125.776 69.6215 125.502 69.7935C125.228 69.9655 124.914 70.1375 124.732 70.0978C124.536 70.0317 124.444 69.6215 124.588 69.3568Z" fill="url(#paint6_radial_702_4912)"/>
<path fill-rule="evenodd" clip-rule="evenodd" d="M125.43 69.0793C125.43 69.0793 125.195 69.291 125.261 69.463C125.326 69.635 125.77 69.5292 126.057 69.1587C126.344 68.7882 126.122 68.4971 126.122 68.4971C126.122 68.4971 126.018 69.1057 125.744 69.2116C125.47 69.3175 125.378 69.2778 125.378 69.2778C125.378 69.2778 125.313 69.2248 125.43 69.0793Z" fill="url(#paint7_radial_702_4912)"/>
<path fill-rule="evenodd" clip-rule="evenodd" d="M124.731 69.3436C124.731 69.3436 124.953 69.079 125.214 68.8408C125.475 68.5894 125.919 68.4968 125.919 68.4968C125.919 68.4968 125.658 68.3512 125.319 68.5497C124.992 68.7614 124.731 69.3436 124.731 69.3436Z" fill="url(#paint8_radial_702_4912)"/>
<path fill-rule="evenodd" clip-rule="evenodd" d="M123.787 69.3573C123.787 69.3573 124.322 68.7619 124.962 68.5105C125.602 68.2591 125.824 68.1797 126.111 67.9415C126.399 67.7033 126.712 67.5181 126.712 67.5181C126.712 67.5181 126.085 67.5445 125.132 68.1664C124.179 68.7619 123.787 69.1589 123.787 69.3573Z" fill="url(#paint9_radial_702_4912)"/>
<path fill-rule="evenodd" clip-rule="evenodd" d="M122.494 69.2376C122.494 69.2376 123.408 68.3113 124.127 67.9408C124.845 67.5703 125.328 67.3454 125.968 67.1734C126.608 67.0146 127.6 66.7235 127.6 66.7235L127.783 66.6309C127.783 66.6309 125.733 66.6706 124.401 67.491C123.069 68.3113 122.494 69.2376 122.494 69.2376Z" fill="url(#paint10_radial_702_4912)"/>
<path fill-rule="evenodd" clip-rule="evenodd" d="M123.599 70.309C123.599 70.309 123.755 71.5925 123.977 71.6454C124.199 71.6983 124.983 71.6983 126.158 71.0897C127.334 70.481 127.569 70.6265 128.222 69.9517C128.875 69.2769 129.149 68.5094 129.345 68.0066C129.554 67.5037 129.606 66.9215 129.541 66.7495C129.541 66.7495 129.763 66.8818 129.763 67.3847C129.763 67.8875 129.619 68.7343 129.41 69.2107C129.201 69.7003 128.653 70.4678 128 70.8383C127.347 71.2088 126.028 71.9365 124.748 71.9233C123.455 71.9101 123.664 71.8174 123.533 71.5528C123.39 71.2882 123.599 70.309 123.599 70.309Z" fill="url(#paint11_radial_702_4912)"/>
<path opacity="0.5" fill-rule="evenodd" clip-rule="evenodd" d="M121.591 71.3947C121.591 71.3947 121.826 71.9108 121.944 72.3872C122.075 72.8635 122.048 73.6575 122.584 73.7898C123.119 73.9089 123.864 74.2661 124.138 74.1735C124.425 74.0809 125.47 73.8956 126.058 74.0147C126.645 74.1338 127.703 74.0676 128.069 73.8824C128.434 73.6971 129.244 73.2076 129.623 73.062C130.001 72.9164 130.524 72.493 130.981 72.0299C131.438 71.5668 131.425 71.0375 131.542 70.7728C131.66 70.5082 131.882 69.4628 131.856 68.9865C131.83 68.5101 131.542 67.6236 131.542 67.6236L131.281 67.3457C131.281 67.3457 131.608 68.5631 131.464 69.4364C131.32 70.2965 131.451 70.6537 130.863 71.4741C130.276 72.3078 129.44 72.9561 128.513 73.2605C127.585 73.5781 126.985 73.5384 126.031 73.631C125.13 73.7104 124.007 73.6575 123.563 73.5384C123.159 73.4325 122.623 73.1679 122.218 72.5063C121.787 71.8182 121.591 71.3947 121.591 71.3947Z" fill="#7D72B3"/>
<path opacity="0.4" fill-rule="evenodd" clip-rule="evenodd" d="M123.643 70.0461C123.643 70.0461 123.734 71.4355 123.904 71.5546C124.074 71.6737 124.453 71.7266 124.792 71.6075C125.145 71.4884 126.32 71.0915 126.529 70.9724C126.738 70.8533 127.979 70.2181 128.227 70.0197C128.475 69.8344 128.801 69.1596 128.919 69.0272C129.036 68.8949 129.337 68.0613 129.415 67.7437C129.506 67.4261 129.559 67.0557 129.559 67.0557C129.559 67.0557 129.585 66.8836 129.441 66.8175C129.298 66.7645 129.271 66.8175 129.271 66.8175C129.271 66.8175 129.245 67.0292 129.115 67.6246C128.984 68.2201 127.234 70.2578 126.346 70.8004C125.458 71.3296 124.622 71.3561 124.322 71.3164C124.009 71.2767 123.63 70.2843 123.643 70.0461Z" fill="#7D72B3"/>
<path opacity="0.4" fill-rule="evenodd" clip-rule="evenodd" d="M123.596 70.3092C123.596 70.3092 123.635 69.4491 123.857 69.158C124.079 68.8669 124.823 68.2715 125.254 68.0465C125.698 67.8216 126.325 67.504 126.547 67.4511C126.769 67.3982 126.926 67.4511 126.926 67.4511C126.926 67.4511 126.664 67.3055 126.051 67.4643C125.437 67.6231 124.745 68.1921 124.405 68.3773C124.066 68.5494 123.556 68.986 123.426 69.211C123.308 69.4094 123.596 70.3092 123.596 70.3092Z" fill="#7D72B3"/>
<path opacity="0.4" fill-rule="evenodd" clip-rule="evenodd" d="M122.091 69.3966L123.984 67.7161L125.16 67.1736C125.16 67.1736 126.322 66.7767 126.857 66.6443C127.393 66.512 128.581 66.4855 128.581 66.4855L129.208 66.5517C129.208 66.5517 128.124 65.9563 126.505 66.3929C124.899 66.8296 123.828 67.3853 123.358 67.8352C122.901 68.2719 122.182 69.1717 122.091 69.3966Z" fill="#7D72B3"/>
<path fill-rule="evenodd" clip-rule="evenodd" d="M122.032 69.462C122.032 69.462 121.013 70.7058 121.509 71.4732C122.005 72.2407 122.227 73.3522 122.371 73.6036C122.515 73.855 124.16 74.252 124.5 74.1726C124.839 74.0932 125.662 73.8815 126.197 74.08C126.197 74.08 127.151 74.0006 127.412 74.0006C127.686 74.0006 128.182 73.7624 128.3 73.7095C128.417 73.6566 129.057 73.4448 129.384 73.3125C129.71 73.1802 130.246 72.7568 130.455 72.598C130.664 72.426 131.225 71.7511 131.343 71.5394C131.447 71.3277 131.774 70.1103 131.852 69.5281C131.93 68.9459 131.695 67.8344 131.499 67.4507C131.303 67.0669 130.729 66.7097 130.729 66.7097L130.768 66.5376L131.225 66.2598C131.225 66.2598 132.022 67.3051 132.087 68.2181C132.126 68.7474 132.257 69.8854 132.113 70.375C132.009 70.7719 131.63 71.9099 131.29 72.3201C130.964 72.7303 129.971 73.7756 129.449 73.9874C128.927 74.1858 127.36 74.4637 126.445 74.4769C125.766 74.4902 124.278 74.3711 123.546 74.3446C122.815 74.3182 122.293 73.855 122.005 73.6169C121.718 73.3787 121.81 72.7435 121.522 72.2275C121.222 71.7247 121.065 71.0498 121.131 70.6793C121.196 70.3353 122.032 69.462 122.032 69.462Z" fill="url(#paint12_radial_702_4912)"/>
<path fill-rule="evenodd" clip-rule="evenodd" d="M123.823 74.2118C123.666 74.1721 123.522 74.0927 123.366 74.053C123.274 74.0266 123.196 74.0133 123.105 73.9869C123.013 73.9604 122.922 73.9472 122.83 73.9472C122.647 73.9339 122.465 73.8942 122.347 73.7487C122.243 73.6164 122.177 73.4708 122.138 73.2988C122.073 73.0738 122.021 72.8489 121.955 72.6372C121.89 72.4255 121.812 72.2534 121.694 72.0682C121.655 72.002 121.616 71.9226 121.564 71.8565C121.524 71.7903 121.459 71.7374 121.42 71.658C121.328 71.4727 121.302 71.2743 121.302 71.0625C121.302 70.9567 121.328 70.8508 121.355 70.745C121.381 70.6127 121.42 70.4936 121.485 70.3745C121.55 70.2686 121.603 70.1495 121.668 70.0437C121.812 69.7923 121.955 69.5408 122.125 69.3159C122.347 69.038 122.595 68.7601 122.856 68.5087C123 68.3632 123.17 68.2309 123.34 68.0985C123.483 67.9927 123.614 67.8736 123.744 67.7677C123.979 67.5825 124.254 67.4634 124.528 67.3311C124.854 67.1723 125.181 67.0135 125.52 66.8944C125.925 66.7489 126.33 66.6298 126.748 66.5371C127.231 66.4445 127.727 66.4181 128.211 66.4181C128.472 66.4181 128.759 66.3916 129.02 66.4842C129.164 66.5371 129.334 66.6033 129.451 66.6827C129.477 66.7092 129.49 66.7092 129.516 66.7356C129.529 66.7489 129.529 66.7753 129.543 66.7886C129.569 66.8415 129.582 66.9076 129.582 66.9606C129.582 67.0135 129.556 67.0664 129.556 67.1194C129.556 67.1988 129.529 67.2781 129.529 67.3575C129.529 67.4502 129.503 67.5163 129.49 67.6089C129.464 67.7677 129.438 67.9265 129.373 68.0853C129.281 68.3103 129.216 68.5484 129.125 68.7601C129.099 68.8263 129.046 68.8792 129.007 68.9454C128.981 69.0116 128.955 69.0513 128.916 69.1174C128.85 69.2233 128.798 69.3424 128.72 69.435C128.563 69.6467 128.419 69.8716 128.211 70.0437C127.962 70.2421 127.701 70.4142 127.427 70.5597C127.244 70.6523 127.061 70.7317 126.879 70.8244C126.722 70.9038 126.552 70.9964 126.382 71.0758C125.964 71.2743 125.507 71.4198 125.063 71.5654C124.933 71.6051 124.815 71.6448 124.685 71.6712C124.567 71.6845 124.423 71.7242 124.306 71.7242C124.175 71.7242 124.045 71.6845 123.914 71.6448C123.705 71.5786 123.679 71.3404 123.666 71.1419C123.653 70.9964 123.64 70.8508 123.614 70.7185C123.588 70.5994 123.588 70.4936 123.562 70.3745C123.535 70.2554 123.522 70.1363 123.522 70.0172C123.522 69.8584 123.575 69.7261 123.614 69.5673C123.64 69.4747 123.64 69.3688 123.692 69.2762C123.744 69.1439 123.849 69.0248 123.966 68.9322C124.071 68.8395 124.188 68.7337 124.293 68.6411C124.358 68.5749 124.437 68.5352 124.502 68.4823C124.619 68.3896 124.75 68.3103 124.894 68.2441C124.998 68.1912 125.076 68.0985 125.181 68.0324C125.285 67.9662 125.403 67.9001 125.507 67.8339C125.599 67.781 125.703 67.7545 125.808 67.7148C125.886 67.6883 125.964 67.6354 126.043 67.6089C126.121 67.5825 126.199 67.5692 126.278 67.5428C126.356 67.5163 126.421 67.4899 126.5 67.4634C126.591 67.4369 126.683 67.4105 126.761 67.4105C126.931 67.4105 127.009 67.4899 127.061 67.6619C127.127 67.8868 127.048 68.0853 126.97 68.297C126.905 68.469 126.826 68.6278 126.774 68.7998C126.696 69.0248 126.487 69.1439 126.317 69.3027C126.134 69.4615 125.912 69.6202 125.703 69.7129C125.638 69.7393 125.56 69.7658 125.494 69.7923C125.442 69.8187 125.377 69.8584 125.325 69.8849C125.285 69.9113 125.259 69.9378 125.22 69.9643C125.194 69.9907 125.155 69.9907 125.116 70.0172C125.037 70.0701 124.959 70.1231 124.867 70.1628C124.789 70.2025 124.619 70.2289 124.567 70.1231C124.541 70.0701 124.541 70.004 124.528 69.951C124.515 69.8849 124.515 69.8187 124.515 69.7526C124.515 69.6864 124.528 69.6335 124.541 69.5673C124.554 69.5011 124.58 69.4482 124.606 69.3821C124.672 69.1968 124.789 69.0645 124.894 68.9189C124.959 68.8263 125.024 68.7337 125.103 68.6411C125.22 68.5087 125.39 68.4558 125.547 68.4029C125.69 68.3632 125.912 68.3235 126.056 68.4029C126.173 68.4823 126.095 68.6411 126.056 68.7337C126.03 68.7866 126.017 68.8395 125.991 68.8925C125.977 68.9322 125.977 68.9851 125.951 69.0248C125.899 69.1042 125.808 69.1571 125.729 69.2233C125.703 69.2497 125.651 69.2894 125.612 69.3027C125.56 69.3159 125.507 69.3159 125.455 69.3291C125.429 69.3291 125.416 69.3688 125.39 69.3556C125.364 69.3424 125.364 69.3159 125.364 69.2894C125.364 69.263 125.377 69.2365 125.39 69.21C125.39 69.21 125.39 69.1968 125.39 69.1836C125.416 69.1042 125.507 69.0116 125.547 68.9454C125.612 68.9719 125.573 69.0116 125.56 69.0513C125.547 69.0777 125.547 69.1042 125.547 69.1306C125.547 69.1571 125.507 69.1968 125.533 69.2233C125.547 69.2365 125.612 69.21 125.625 69.21C125.782 69.1571 125.873 68.9851 125.925 68.8395C125.951 68.7337 125.951 68.5749 125.847 68.522C125.769 68.4955 125.664 68.5087 125.586 68.5087C125.285 68.5087 125.103 68.8395 124.933 69.0513C124.828 69.1968 124.737 69.3556 124.672 69.5276C124.632 69.6467 124.606 69.7658 124.58 69.8849C124.554 69.9775 124.528 70.1098 124.659 70.0966C124.737 70.0834 124.815 70.0437 124.894 70.0172C124.959 69.9907 125.011 69.9775 125.076 69.9378C125.168 69.8849 125.285 69.8716 125.377 69.8187C125.455 69.779 125.533 69.7393 125.612 69.6996C125.808 69.5938 126.017 69.3953 126.147 69.2233C126.239 69.1042 126.382 69.0116 126.487 68.9057C126.604 68.7998 126.657 68.6543 126.735 68.522C126.813 68.3764 126.852 68.2441 126.892 68.0985C126.918 67.9662 127.009 67.8074 126.957 67.6619C126.918 67.5163 126.722 67.5163 126.604 67.5296C126.5 67.5428 126.395 67.5692 126.291 67.5957C126.108 67.6619 125.938 67.7413 125.769 67.8207C125.494 67.9398 125.259 68.125 125.011 68.2838C124.881 68.3632 124.737 68.4293 124.619 68.522C124.528 68.5881 124.45 68.6808 124.358 68.7469C124.293 68.7998 124.254 68.866 124.175 68.9057C124.084 68.9719 124.006 69.038 123.94 69.1174C123.888 69.1836 123.823 69.2762 123.797 69.3556C123.771 69.4218 123.797 69.4879 123.797 69.5541C123.797 69.6467 123.771 69.7393 123.771 69.832C123.771 69.9246 123.771 70.0304 123.771 70.1231C123.771 70.3215 123.744 70.5068 123.744 70.692C123.744 70.8111 123.771 70.9435 123.797 71.0493C123.81 71.1419 123.849 71.2213 123.862 71.314C123.862 71.3801 123.875 71.4595 123.927 71.4992C123.953 71.5124 123.993 71.5257 124.019 71.5389C124.045 71.5521 124.071 71.5654 124.097 71.5654C124.11 71.5654 124.123 71.5786 124.149 71.5786C124.162 71.5786 124.175 71.6051 124.175 71.6051C124.201 71.6183 124.254 71.6051 124.28 71.6051C124.358 71.5918 124.437 71.5786 124.502 71.5521C124.698 71.5257 124.881 71.5257 125.063 71.4595C125.272 71.3801 125.468 71.261 125.664 71.1816C125.964 71.0493 126.304 70.9567 126.591 70.7979C126.722 70.7317 126.865 70.6523 126.996 70.5994C127.323 70.4539 127.662 70.3348 127.936 70.1098C128.041 70.0304 128.132 69.9246 128.224 69.832C128.276 69.779 128.328 69.7261 128.38 69.6599C128.524 69.4747 128.655 69.2762 128.759 69.0777C128.811 68.9983 128.837 68.8925 128.877 68.8131C128.955 68.6808 129.033 68.5617 129.112 68.4293C129.177 68.297 129.216 68.1647 129.255 68.0191C129.281 67.9265 129.307 67.8604 129.294 67.7677C129.294 67.5825 129.307 67.4237 129.386 67.2517C129.425 67.1591 129.49 67.0267 129.451 66.9209C129.438 66.8679 129.36 66.8547 129.321 66.8415C129.216 66.8018 129.112 66.7753 129.007 66.7356C128.916 66.6959 128.85 66.643 128.746 66.6298C128.707 66.6165 128.668 66.6165 128.628 66.6165C128.524 66.6165 128.446 66.6959 128.341 66.6827C128.315 66.6827 128.289 66.6695 128.25 66.6695C128.197 66.6562 128.145 66.6695 128.093 66.6695C127.975 66.6695 127.871 66.643 127.753 66.643C127.623 66.643 127.492 66.6562 127.362 66.6695C127.231 66.6827 127.114 66.6695 126.983 66.6695C126.905 66.6695 126.852 66.7092 126.787 66.7356C126.722 66.7621 126.657 66.7753 126.591 66.8018C126.526 66.8282 126.474 66.8415 126.408 66.8547C126.317 66.8547 126.239 66.8415 126.147 66.8679C126.043 66.8944 125.938 66.9341 125.834 66.9738C125.56 67.0929 125.285 67.2517 124.998 67.3443C124.854 67.384 124.711 67.4105 124.58 67.4634C124.528 67.4899 124.489 67.5163 124.437 67.556C124.345 67.6222 124.254 67.6751 124.162 67.728C123.953 67.8604 123.757 68.0059 123.549 68.1647C123.313 68.3367 123.091 68.522 122.896 68.7469C122.556 69.1439 122.203 69.5408 121.903 69.9775C121.759 70.176 121.603 70.4009 121.511 70.6259V70.6391C121.459 70.7714 121.433 70.9038 121.446 71.0493C121.446 71.0493 121.446 71.0493 121.446 71.0625C121.459 71.1816 121.511 71.314 121.55 71.4198C121.603 71.5257 121.629 71.6315 121.694 71.7374C121.759 71.8432 121.851 71.9359 121.89 72.055C121.942 72.2005 121.994 72.3593 122.047 72.5181C122.099 72.7033 122.151 72.9018 122.177 73.1003C122.203 73.2194 122.216 73.3517 122.282 73.4576C122.36 73.6164 122.53 73.6693 122.674 73.7619C122.752 73.8148 122.791 73.8281 122.882 73.8281C123 73.8413 123.131 73.8678 123.248 73.9075C123.496 73.9869 123.757 74.0398 124.019 74.0398C124.175 74.0398 124.332 74.0001 124.476 73.9736C124.619 73.9604 124.763 73.9472 124.907 73.9207C125.037 73.8942 125.168 73.8678 125.298 73.8678C125.429 73.8678 125.573 73.8942 125.69 73.9207C125.912 73.9869 126.121 74.0266 126.343 74.0266C126.487 74.0266 126.617 73.9869 126.761 73.9869C126.892 73.9736 127.009 74.0001 127.14 74.0133C127.362 74.0266 127.584 73.9736 127.793 73.8942C127.936 73.8413 128.054 73.7751 128.184 73.6957C128.289 73.6296 128.393 73.6164 128.498 73.5899C128.72 73.5237 128.942 73.4443 129.151 73.3252C129.412 73.1665 129.634 72.9415 129.895 72.7827C130.039 72.6901 130.209 72.6239 130.352 72.5313C130.47 72.4519 130.587 72.3593 130.679 72.2534C130.796 72.1344 130.901 72.0153 131.018 71.8962C131.11 71.8035 131.149 71.6845 131.188 71.5786C131.266 71.4066 131.292 71.2346 131.319 71.0493C131.345 70.8641 131.423 70.7053 131.501 70.5465C131.606 70.3348 131.684 70.1363 131.697 69.8981C131.71 69.7129 131.736 69.5408 131.736 69.3556C131.736 69.2365 131.723 69.1306 131.697 69.0116C131.684 68.9057 131.658 68.7998 131.645 68.694C131.619 68.5617 131.619 68.4293 131.593 68.297C131.567 68.1912 131.541 68.0721 131.514 67.953C131.488 67.8736 131.462 67.7942 131.436 67.7148C131.384 67.5825 131.306 67.4502 131.214 67.3311C131.175 67.2781 131.123 67.2649 131.084 67.2384C131.044 67.212 131.044 67.1855 131.005 67.1723C130.953 67.1458 130.901 67.1194 130.848 67.0929C130.757 67.04 130.666 67.0267 130.574 66.9738C130.496 66.9341 130.417 66.8679 130.339 66.815C130.248 66.7621 130.156 66.7224 130.078 66.643C130 66.5636 129.947 66.471 129.882 66.4048C129.804 66.3254 129.699 66.2725 129.621 66.2063C129.477 66.0872 129.294 66.074 129.138 66.0079C129.059 65.9682 128.968 65.9682 128.89 65.9417C128.785 65.9152 128.72 65.8623 128.615 65.8491C128.524 65.8358 128.433 65.8358 128.328 65.8094C128.276 65.7961 128.224 65.7829 128.158 65.7829C128.054 65.7697 127.936 65.7829 127.832 65.7961C127.74 65.8094 127.636 65.7961 127.545 65.7961C127.466 65.7961 127.375 65.8094 127.296 65.7961C127.061 65.7564 126.813 65.7697 126.578 65.7829C126.356 65.7961 126.134 65.8094 125.925 65.8888C125.742 65.9549 125.573 66.0079 125.39 66.074C125.272 66.1269 125.168 66.1931 125.05 66.2593C124.776 66.4181 124.528 66.6033 124.28 66.7753C123.993 66.9738 123.718 67.1855 123.444 67.3972C123.261 67.5296 123.078 67.6751 122.909 67.8074C122.83 67.8736 122.752 67.9398 122.687 68.0059C122.856 67.781 123.052 67.5693 123.248 67.3708C124.358 66.2725 125.886 65.5977 127.558 65.5977C127.623 65.5977 127.688 65.5977 127.753 65.5977C127.819 65.5977 127.897 65.5977 127.962 65.6109C128.158 65.6241 128.341 65.6506 128.537 65.6771C128.537 65.6771 128.537 65.6771 128.55 65.6771C128.759 65.73 128.968 65.7961 129.19 65.8623C129.373 65.9152 129.543 65.9682 129.712 66.0211C129.83 66.0608 129.934 66.1137 130.052 66.1534C130.156 66.1931 130.261 66.2328 130.352 66.2857C130.509 66.3784 130.653 66.4842 130.783 66.5901C130.875 66.6562 130.966 66.7489 131.044 66.8282C131.162 66.9473 131.266 67.0797 131.358 67.212C131.567 67.5428 131.736 67.9133 131.815 68.3103C131.88 68.6411 131.88 68.9851 131.867 69.3159C131.854 69.4879 131.828 69.6864 131.789 69.8584C131.75 70.0569 131.684 70.2289 131.658 70.4274C131.645 70.52 131.658 70.6259 131.645 70.7185C131.632 70.7979 131.606 70.8773 131.593 70.9567C131.567 71.1155 131.514 71.2875 131.436 71.433C131.332 71.6448 131.201 71.8168 131.044 71.9888C130.875 72.1873 130.705 72.3858 130.522 72.571C130.352 72.7695 130.143 72.9283 129.921 73.0606C129.751 73.1665 129.569 73.2988 129.386 73.3649C129.203 73.4311 129.007 73.537 128.811 73.5634C128.668 73.5767 128.55 73.6296 128.433 73.7222C128.367 73.7751 128.302 73.8413 128.237 73.9075C128.171 73.9604 128.106 73.9736 128.028 74.0001C127.858 74.053 127.688 74.0398 127.505 74.0398C127.244 74.0398 126.996 74.0662 126.748 74.0927C126.617 74.1059 126.487 74.1192 126.369 74.1059C126.252 74.0927 126.134 74.0662 126.03 74.053C125.899 74.0398 125.782 74.0398 125.651 74.0133C125.547 74.0001 125.468 74.0001 125.377 74.0133C125.298 74.0266 125.22 74.0133 125.129 74.0133C125.05 74.0266 124.959 74.0398 124.881 74.053C124.567 74.1324 124.215 74.3044 123.823 74.2118Z" fill="#7EF5FF"/>
<path fill-rule="evenodd" clip-rule="evenodd" d="M123.527 77.0846C123.527 77.0846 124.976 77.336 125.629 77.3228C126.622 77.2963 127.771 77.4154 128.659 77.4419C129.547 77.4684 131.101 76.7274 131.388 76.595C131.676 76.4627 132.355 76.0658 132.955 75.3909C133.556 74.7161 133.791 73.6178 133.791 73.6178H133.543C133.543 73.6178 133.452 74.0942 133.086 74.6234C132.864 74.941 132.551 75.2189 132.12 75.6026C131.493 76.1451 130.683 76.5686 129.86 76.7803C128.763 77.0582 127.797 76.9788 127.118 77.0846C126.152 77.2302 123.984 76.8861 123.984 76.8861L123.527 77.0846Z" fill="url(#paint13_radial_702_4912)"/>
<path fill-rule="evenodd" clip-rule="evenodd" d="M123.139 76.3564C123.139 76.3564 123.374 76.9651 123.518 77.0842C123.518 77.0842 123.831 77.0974 123.988 76.9387L123.544 76.5814L123.139 76.3564Z" fill="url(#paint14_radial_702_4912)"/>
<path fill-rule="evenodd" clip-rule="evenodd" d="M133.817 72.479C133.817 72.479 133.974 73.1671 133.987 73.5376C133.987 73.5376 133.739 73.6964 133.556 73.617C133.556 73.617 133.778 72.7701 133.817 72.479Z" fill="url(#paint15_radial_702_4912)"/>
<path fill-rule="evenodd" clip-rule="evenodd" d="M129.624 65.9302C129.624 65.9302 130.917 66.0625 131.217 66.2742C131.217 66.2742 131.008 66.5124 130.76 66.5521C130.773 66.5389 129.729 65.9566 129.624 65.9302Z" fill="#AA8CFF"/>
<path fill-rule="evenodd" clip-rule="evenodd" d="M121.991 68.3643L122.527 68.2849L122.736 68.0071C122.736 67.9938 122.357 68.1659 121.991 68.3643Z" fill="#9461FF"/>
<path opacity="0.5" fill-rule="evenodd" clip-rule="evenodd" d="M122.422 75.9723C122.422 75.9723 124.929 76.7133 126.875 76.753C128.834 76.7927 129.565 76.356 130.414 76.012C131.263 75.6812 132.647 74.927 133.065 74.358C133.483 73.8022 133.809 72.479 133.809 72.479C133.809 72.479 133.405 74.4638 133.065 74.8079C132.712 75.1519 131.171 76.2237 130.897 76.356C130.623 76.4884 129.892 77.0573 128.547 76.8985C128.547 76.8985 127.646 77.0309 127.319 77.0044C126.993 76.9779 126.483 77.3087 125.556 77.0044C125.556 77.0044 124.263 76.9382 123.989 76.8721C123.702 76.8192 122.422 75.9723 122.422 75.9723Z" fill="#54469B"/>
<path fill-rule="evenodd" clip-rule="evenodd" d="M123.039 73.2996C123.039 73.2996 125.115 73.6701 126.617 73.5114C128.119 73.3526 128.928 72.9688 129.359 72.691C129.79 72.4131 130.626 71.5001 130.939 71.0766C131.253 70.6664 131.409 69.6211 131.409 69.6211C131.409 69.6211 131.462 70.6267 131.214 71.0766C130.952 71.5133 130.077 72.3469 129.712 72.5851C129.346 72.8233 128.315 73.4055 127.779 73.4981C127.244 73.5907 126.356 73.8686 125.703 73.7495C125.076 73.6437 123.509 73.6701 123.039 73.2996Z" fill="#5499C7"/>
<path fill-rule="evenodd" clip-rule="evenodd" d="M125.909 76.6735C125.909 76.6735 128.064 76.5279 128.808 76.3559C129.553 76.1839 130.532 75.7869 131.211 75.5223C131.89 75.2709 132.413 74.768 132.791 74.4902C133.17 74.2123 133.653 73.0479 133.653 73.0479C133.653 73.0479 133.34 74.1991 132.87 74.5696C132.4 74.9401 131.185 75.6281 129.827 76.25C128.299 76.9381 127.124 76.7396 125.909 76.6735Z" fill="#57A3C1"/>
<path fill-rule="evenodd" clip-rule="evenodd" d="M133.44 73.922C133.479 73.8162 133.506 73.7103 133.545 73.6177C133.427 74.0411 133.257 74.4381 133.062 74.8086C133.009 74.8615 132.931 74.9144 132.879 74.9674C132.827 75.0335 132.774 75.0864 132.722 75.1526C132.435 75.4305 132.121 75.6819 131.782 75.8936C131.442 76.1186 131.103 76.3303 130.724 76.5023C130.437 76.6346 130.136 76.7405 129.836 76.8199C129.588 76.886 129.327 76.9125 129.079 76.9257C128.948 76.939 128.83 76.9522 128.7 76.9654C128.543 76.9787 128.373 76.9786 128.23 77.0051C127.956 77.058 127.681 77.0977 127.407 77.111C127.172 77.1242 126.937 77.1639 126.702 77.1639C126.402 77.1639 126.101 77.111 125.801 77.111C125.514 77.111 125.213 77.0977 124.926 77.0713C124.756 77.058 124.586 77.0183 124.417 77.0051C124.273 76.9919 124.129 76.9522 123.986 76.939C123.868 76.8463 123.751 76.7537 123.633 76.6611C123.607 76.6346 123.568 76.6082 123.542 76.5817C123.711 76.6346 123.868 76.6875 124.038 76.7405C124.273 76.8199 124.534 76.8596 124.769 76.886C124.965 76.9125 125.213 76.9257 125.409 76.8728C125.618 76.8199 125.762 76.886 125.944 76.9654C126.036 77.0051 126.114 77.0183 126.206 77.0448C126.336 77.0845 126.428 77.0713 126.558 77.058C126.676 77.0448 126.793 77.0183 126.898 77.0051C126.989 76.9786 127.094 76.939 127.185 76.9257C127.355 76.8993 127.538 76.8728 127.707 76.9125C127.903 76.9522 128.099 76.9654 128.295 76.939C128.504 76.8993 128.687 76.886 128.896 76.886C128.961 76.886 129.026 76.8993 129.092 76.8993C129.17 76.9125 129.235 76.886 129.314 76.886C129.444 76.8728 129.575 76.8463 129.705 76.8066C129.823 76.7669 129.94 76.714 130.058 76.6743C130.293 76.5817 130.489 76.5023 130.698 76.3567C130.868 76.2376 131.064 76.1583 131.233 76.0392C131.403 75.9333 131.547 75.7878 131.717 75.6951C131.899 75.5893 132.056 75.4437 132.226 75.3246C132.33 75.2452 132.435 75.1526 132.539 75.0732C132.631 75.0071 132.735 74.9541 132.827 74.8747C132.97 74.7424 133.114 74.6101 133.218 74.4248C133.31 74.2661 133.388 74.094 133.44 73.922Z" fill="#7EF5FF"/>
<path fill-rule="evenodd" clip-rule="evenodd" d="M126.813 70.4415C126.813 70.4415 128.301 69.1977 128.928 67.9935C128.941 67.9935 127.191 69.8063 126.813 70.4415Z" fill="#8CCEFF"/>
<path fill-rule="evenodd" clip-rule="evenodd" d="M125.249 71.9104C125.249 71.9104 126.189 71.9104 127.234 71.4737C128.279 71.037 128.801 70.124 128.801 70.124C128.801 70.124 128.096 70.8121 127.326 71.1958C126.555 71.5796 125.98 71.6722 125.249 71.9104Z" fill="#5499C7"/>
<path fill-rule="evenodd" clip-rule="evenodd" d="M128.965 69.9122C128.965 69.9122 129.07 69.6344 129.266 69.158C129.462 68.6816 129.618 68.417 129.618 68.417C129.618 68.417 129.566 69.158 128.965 69.9122Z" fill="#B89CF4"/>
<path fill-rule="evenodd" clip-rule="evenodd" d="M124.92 74.4379C124.92 74.4379 126.225 74.7555 127.936 74.4379C129.647 74.1204 129.712 74.0145 130.182 73.6308C130.652 73.2603 130.992 72.7839 131.175 72.5987C131.358 72.4134 131.593 71.7915 131.593 71.7915C131.593 71.7915 131.109 72.6648 130.417 73.2603C129.725 73.8425 129.151 74.1336 127.988 74.3189C126.839 74.4909 125.507 74.4644 124.92 74.4379Z" fill="#7774F4"/>
<path fill-rule="evenodd" clip-rule="evenodd" d="M126.067 77.3218C126.067 77.3218 127.255 77.4277 127.738 77.5203C128.221 77.6262 129.148 77.6129 129.684 77.4144C130.219 77.216 131.264 76.647 131.264 76.647C131.264 76.647 130.285 77.2027 129.109 77.335C127.947 77.4541 127.229 77.2556 126.067 77.3218Z" fill="#7774F4"/>
<path fill-rule="evenodd" clip-rule="evenodd" d="M131.619 76.476C131.619 76.476 132.377 75.9599 132.742 75.6291C132.742 75.6159 132.351 76.1717 131.619 76.476Z" fill="#7774F4"/>
<path fill-rule="evenodd" clip-rule="evenodd" d="M125.895 69.9395C125.895 69.9395 126.757 69.2779 127.031 68.8147C127.306 68.3384 127.332 68.0737 127.332 68.0737C127.332 68.0737 127.449 68.5369 126.94 69.1191C126.417 69.7013 125.895 69.9395 125.895 69.9395Z" fill="#7EF5FF"/>
<path fill-rule="evenodd" clip-rule="evenodd" d="M121.834 73.3926C121.821 73.6837 121.978 74.0145 122.487 74.213C122.997 74.4115 123.388 74.3585 123.388 74.3585C123.388 74.3585 122.801 74.2394 122.474 74.0145C122.148 73.7631 121.834 73.3926 121.834 73.3926Z" fill="#7EF5FF"/>
<path fill-rule="evenodd" clip-rule="evenodd" d="M19.3228 49.2685C19.9688 49.4358 20.5977 49.5057 21.1952 49.4748C22.4185 49.42 23.5412 48.9987 24.4701 48.264C25.1257 47.7527 25.6853 47.0771 26.0995 46.2865C26.4747 45.5787 26.7326 44.7631 26.8397 43.8775C26.8542 43.7574 26.8705 43.6223 26.871 43.4986C26.8787 43.3148 26.8882 43.1161 26.896 42.9323C26.8925 41.5227 26.5112 40.1236 25.8323 38.9105C25.5827 38.4589 25.2874 38.0263 24.9603 37.6165C24.7207 37.3223 24.4512 37.0357 24.164 36.7756C24.0992 36.7124 24.0204 36.6455 23.9556 36.5823C23.8768 36.5154 23.812 36.4522 23.7313 36.4004C23.4931 36.2148 23.2389 36.0406 22.983 35.8815C22.7936 35.7705 22.6042 35.6595 22.4131 35.5636C22.2763 35.4972 22.1394 35.4308 21.9868 35.3758C21.6832 35.2507 21.3779 35.1407 21.0549 35.057C20.8723 35.0097 20.6897 34.9624 20.5035 34.9452C20.3894 34.9311 20.277 34.902 20.161 34.9029C19.4901 34.822 18.8485 34.8571 18.2383 34.9932C17.941 35.0555 17.6402 35.1479 17.3656 35.2626C16.894 35.45 16.445 35.6898 16.0308 36.0005C14.711 36.9745 13.7825 38.5452 13.5502 40.4666C13.5412 40.5417 13.5321 40.6167 13.523 40.6918C13.514 40.7668 13.5031 40.8569 13.5081 40.9356C13.4872 41.3481 13.4944 41.768 13.5333 42.1651C13.5622 42.4048 13.5912 42.6445 13.636 42.8728C13.66 43.0338 13.6999 43.1835 13.7379 43.3481C13.7673 43.4641 13.7968 43.5801 13.8262 43.6961C13.8384 43.7147 13.8366 43.7298 13.847 43.7634C14.0725 44.5339 14.4177 45.2735 14.8579 45.9448C14.9191 46.0381 14.9802 46.1313 15.0414 46.2245C15.0921 46.2841 15.127 46.3551 15.1777 46.4147C15.2511 46.5265 15.3404 46.6271 15.4155 46.7239C15.7181 47.0964 16.0543 47.4312 16.4081 47.7395C16.8284 48.0961 17.2824 48.4149 17.7576 48.6773C18.2505 48.9133 18.7751 49.1266 19.3228 49.2685Z" fill="url(#paint16_radial_702_4912)"/>
<path fill-rule="evenodd" clip-rule="evenodd" d="M19.6249 39.6977C19.7949 39.6466 20.0989 39.4714 20.321 39.6085C20.4185 39.6656 20.4961 39.7651 20.5918 39.8376C20.8228 40.0247 21.0392 40.335 20.829 40.598C20.5845 40.8998 20.2414 40.6519 19.9996 40.4303C19.9057 40.3424 19.7993 40.2354 19.7543 40.1125C19.7327 40.0434 19.7148 39.9434 19.7077 39.8781C19.679 39.7436 19.612 39.8056 19.6249 39.6977Z" fill="#7EF5FF"/>
<path fill-rule="evenodd" clip-rule="evenodd" d="M22.1611 40.9299C22.1167 40.934 21.9729 40.9123 21.9106 40.943C21.8644 40.9623 21.8269 41.0307 21.7912 41.0839C21.7341 41.1941 21.7319 41.3342 21.8063 41.4472C21.9265 41.6659 22.1556 41.7097 22.3318 41.5835C22.4119 41.5262 22.4956 41.4385 22.5083 41.3325C22.5156 41.2718 22.5371 41.2149 22.5141 41.1621C22.4929 41.0941 22.4416 41.0339 22.3866 41.004C22.2908 40.9479 22.218 40.9446 22.1255 40.9832L22.1611 40.9299Z" fill="#7EF5FF"/>
<path fill-rule="evenodd" clip-rule="evenodd" d="M22.3971 39.8217C22.4708 39.8408 22.6681 39.8434 22.6825 39.9766C22.6896 40.0433 22.6084 40.087 22.5642 40.0755C22.5181 40.0797 22.4463 40.0449 22.4039 40.0178C22.3488 39.9711 22.3121 39.8968 22.3767 39.865L22.3824 39.8179L22.3971 39.8217Z" fill="#7EF5FF"/>
<path fill-rule="evenodd" clip-rule="evenodd" d="M21.4698 36.8638C21.5864 36.9102 21.7788 36.9601 21.8729 37.0659C21.9135 37.109 21.9541 37.1521 21.9613 37.2191C21.9684 37.2861 21.935 37.31 21.8868 37.3301C21.8051 37.3741 21.7607 37.3626 21.6719 37.3396C21.5978 37.3204 21.5128 37.2658 21.4426 37.215C21.402 37.172 21.3633 37.1131 21.3376 37.0738C21.3118 37.0346 21.3008 36.9992 21.3084 36.936C21.318 36.857 21.4049 36.8958 21.466 36.8954L21.4698 36.8638Z" fill="#7EF5FF"/>
<path fill-rule="evenodd" clip-rule="evenodd" d="M18.5747 45.8406C18.5606 45.8369 18.3609 45.8007 18.3131 45.8348C18.2972 45.8462 18.2776 45.8877 18.2617 45.8991C18.2261 45.952 18.203 46.0236 18.2222 46.1062C18.2537 46.2075 18.37 46.3308 18.4726 46.3264C18.6034 46.3292 18.7062 46.2007 18.7207 46.0802C18.737 45.9447 18.5943 45.7991 18.4722 45.845L18.5747 45.8406Z" fill="#7EF5FF"/>
<path fill-rule="evenodd" clip-rule="evenodd" d="M22.0043 39.9244C22.0043 39.9244 21.9032 39.9138 21.873 39.9215C21.857 39.9329 21.8552 39.948 21.8534 39.9631C21.8356 39.9896 21.8302 40.0349 21.8407 40.0688C21.8637 40.1214 21.915 40.1814 21.9736 40.181C22.0321 40.1806 22.0979 40.1199 22.1052 40.0595C22.1124 39.9992 22.0345 39.9167 21.9742 39.9322L22.0043 39.9244Z" fill="#7EF5FF"/>
<path fill-rule="evenodd" clip-rule="evenodd" d="M22.7974 43.0219C22.7974 43.0219 22.6963 43.0112 22.6661 43.0189C22.6501 43.0303 22.6483 43.0454 22.6465 43.0605C22.6287 43.087 22.6232 43.1323 22.6338 43.1662C22.6568 43.2188 22.7081 43.2788 22.7666 43.2784C22.8252 43.2781 22.891 43.2173 22.8983 43.1569C22.9055 43.0966 22.8276 43.0141 22.7672 43.0296L22.7974 43.0219Z" fill="#7EF5FF"/>
<path fill-rule="evenodd" clip-rule="evenodd" d="M15.9097 43.616C15.9097 43.616 15.8086 43.6053 15.7784 43.613C15.7624 43.6245 15.7606 43.6395 15.7588 43.6546C15.741 43.6811 15.7355 43.7264 15.7461 43.7603C15.7691 43.8129 15.8204 43.8729 15.879 43.8725C15.9375 43.8722 16.0033 43.8114 16.0106 43.7511C16.0178 43.6907 15.9399 43.6082 15.8795 43.6237L15.9097 43.616Z" fill="#7EF5FF"/>
<path fill-rule="evenodd" clip-rule="evenodd" d="M26.1617 41.6481C26.1617 41.6481 26.0606 41.6374 26.0304 41.6451C26.0144 41.6566 26.0126 41.6717 26.0107 41.6867C25.9929 41.7132 25.9875 41.7585 25.9981 41.7924C26.021 41.845 26.0723 41.905 26.1309 41.9047C26.1895 41.9043 26.2553 41.8435 26.2625 41.7832C26.2698 41.7228 26.1919 41.6403 26.1315 41.6558L26.1617 41.6481Z" fill="#7EF5FF"/>
<path fill-rule="evenodd" clip-rule="evenodd" d="M20.7672 45.8969C20.8532 45.8071 20.8917 45.737 20.9867 45.6976C21.0653 45.6699 21.1311 45.623 21.2224 45.6146C21.2845 45.5987 21.3904 45.5942 21.4488 45.6093C21.6221 45.6703 21.4483 45.8654 21.3806 45.9279C21.2965 46.0022 21.1832 46.0689 21.0664 46.0386C21.0226 46.0272 20.9642 46.0121 20.9223 45.9852C20.9095 45.9658 20.8803 45.9582 20.8676 45.9389C20.8421 45.9003 20.8439 45.8848 20.7672 45.8969Z" fill="#7EF5FF"/>
<path fill-rule="evenodd" clip-rule="evenodd" d="M21.1568 48.0051C21.0833 48.0017 21.361 48.0267 21.3736 48.0456C21.3699 48.0761 21.3663 48.1066 21.3626 48.1371C21.359 48.1676 21.3285 48.1754 21.3106 48.2022C21.2603 48.252 21.2262 48.2903 21.1545 48.2717C21.0972 48.2568 21.056 48.2304 21.0346 48.162C21.024 48.1278 21.0258 48.1125 21.0294 48.082C21.051 48.0248 21.1138 47.9939 21.1748 47.9783L21.1568 48.0051Z" fill="#7EF5FF"/>
<path fill-rule="evenodd" clip-rule="evenodd" d="M25.9378 43.3316C25.9305 43.3905 25.956 43.1841 25.956 43.1841C25.9698 43.1877 25.9974 43.1948 26.0112 43.1983C26.0388 43.2054 26.037 43.2202 26.0489 43.2385C26.0729 43.2751 26.0968 43.3117 26.0913 43.3559C26.0858 43.4002 26.0684 43.4261 26.027 43.4154C26.0132 43.4119 25.9976 43.4231 25.9856 43.4048C25.9461 43.3794 25.924 43.328 25.9277 43.2985L25.9378 43.3316Z" fill="#FFEF84"/>
<path fill-rule="evenodd" clip-rule="evenodd" d="M25.251 43.0805C25.1776 43.0772 25.4553 43.1021 25.4678 43.1211C25.4642 43.1516 25.4605 43.182 25.4569 43.2125C25.4533 43.243 25.4228 43.2508 25.4048 43.2776C25.3545 43.3274 25.3204 43.3657 25.2488 43.3471C25.1914 43.3322 25.1503 43.3058 25.1289 43.2374C25.1182 43.2032 25.12 43.1879 25.1236 43.1575C25.1453 43.1002 25.208 43.0694 25.269 43.0537L25.251 43.0805Z" fill="#7EF5FF"/>
<g opacity="0.25">
<path opacity="0.4" fill-rule="evenodd" clip-rule="evenodd" d="M16.6138 36.3463C16.8433 36.185 17.058 36.0517 17.3204 35.9801C17.5438 35.9136 17.8001 35.9368 18.0438 35.9564C18.1851 35.9636 18.3254 35.9867 18.4794 35.9974C18.6071 36.0169 18.7368 36.0048 18.8624 36.0559C19.0377 36.137 19.2266 36.2057 19.3715 36.3588C19.5291 36.5154 19.674 36.6684 19.8169 36.8531C19.9471 37.0342 20.012 37.2293 20.0095 37.47C20.0141 37.6 19.9807 37.7194 19.9852 37.8494C19.9868 38.0269 20.001 38.2079 20.0152 38.3888C20.0437 38.7508 20.0184 39.1461 19.7743 39.3355C19.5712 39.4881 19.3371 39.5194 19.1011 39.5823C18.8514 39.6575 18.6503 39.7785 18.4695 39.9855C18.3434 40.1435 18.1929 40.2786 18.0552 40.4172C17.9995 40.4821 17.9331 40.5119 17.8764 40.5926C17.8323 40.6769 17.7787 40.7102 17.7103 40.7716C17.6546 40.8365 17.6115 40.905 17.5442 40.9506C17.4358 41.033 17.3041 41.0768 17.1871 41.0924C17.0564 41.1203 16.9287 41.1009 16.7874 41.0936C16.6597 41.0741 16.5361 40.9914 16.4125 40.9087C16.1906 40.7502 16.0548 40.4549 15.9296 40.1947C15.7705 39.8607 15.7168 39.4917 15.6757 39.1262C15.6452 38.7958 15.6578 38.3971 15.7297 38.0792C15.8026 37.7454 15.8628 37.4082 15.997 37.1238C16.1008 36.9113 16.2239 36.8008 16.3753 36.6499C16.4447 36.5727 16.5024 36.4762 16.5845 36.4025C16.6929 36.32 16.8139 36.2411 16.6138 36.3463Z" fill="#0F0801"/>
<path opacity="0.4" fill-rule="evenodd" clip-rule="evenodd" d="M14.1585 39.0557C14.0933 39.0852 13.9909 39.1044 13.9371 39.153C13.8978 39.1738 13.8698 39.2137 13.8418 39.2535C13.7465 39.3541 13.675 39.4771 13.6272 39.6226C13.596 39.7091 13.5896 39.8026 13.6091 39.8874C13.6151 39.9843 13.6541 40.1538 13.6994 40.2299C13.7901 40.382 13.9566 40.3489 14.0714 40.3331C14.1851 40.3329 14.2998 40.3171 14.3703 40.2097C14.4252 40.1455 14.4698 40.0468 14.4886 39.9568C14.5042 39.9135 14.5084 39.8512 14.5127 39.7888C14.5159 39.7421 14.5314 39.6988 14.5336 39.6677C14.541 39.5586 14.4896 39.3856 14.4174 39.3338C14.3813 39.308 14.3327 39.2786 14.2977 39.2371C14.2615 39.2112 14.2378 39.1888 14.2017 39.1629C14.1418 39.1145 14.0809 39.0818 14.1585 39.0557Z" fill="#0F0801"/>
<path opacity="0.4" fill-rule="evenodd" clip-rule="evenodd" d="M14.8908 40.3374C14.956 40.3235 15.0329 40.3289 15.0962 40.3466C15.1068 40.3816 15.1438 40.4079 15.166 40.4622C15.1766 40.4972 15.1736 40.5445 15.1705 40.5917C15.1655 40.6705 15.1614 40.7335 15.0845 40.7281C15.0202 40.7262 14.9747 40.6334 14.9408 40.5598C14.9186 40.5055 14.8604 40.4091 14.914 40.376L14.8908 40.3374Z" fill="#0F0801"/>
<path opacity="0.4" fill-rule="evenodd" clip-rule="evenodd" d="M15.6703 41.0797C15.7266 40.9996 15.7839 40.9037 15.8527 40.827C15.9351 40.7382 16.029 40.6685 16.1353 40.6022C16.2552 40.5238 16.3897 40.4175 16.5504 40.4941C16.6985 40.5672 16.8321 40.6682 16.9229 40.8372C17.0366 41.0445 17.019 41.311 17.0806 41.5358C17.1318 41.7257 17.2622 41.8737 17.3947 41.9904C17.5867 42.1715 17.6056 42.4642 17.6266 42.7255C17.6412 42.8893 17.6423 43.0653 17.657 43.229C17.6675 43.4555 17.678 43.682 17.6885 43.9085C17.6866 44.3231 17.7348 44.7517 17.6828 45.1524C17.6287 45.5845 17.4776 45.9417 17.2545 46.231C17.072 46.4837 16.753 46.6824 16.4599 46.6807C16.1543 46.6756 15.8246 46.4562 15.5606 46.2071C15.2257 45.8744 14.9314 45.5052 14.6392 45.1046C14.4754 44.8833 14.3376 44.6534 14.1874 44.42C14.0475 44.2214 13.9327 44.0298 13.819 43.8225C13.5705 43.3383 13.3784 42.7738 13.3887 42.2337C13.3896 42.0264 13.4281 41.8295 13.5042 41.6431C13.5657 41.4845 13.6491 41.38 13.77 41.2859C14.0536 41.0453 14.403 40.9668 14.7503 40.9197C14.9172 40.9022 15.0966 40.8882 15.2572 40.9649C15.3073 40.9788 15.3418 41.0363 15.3918 41.0502C15.4419 41.0641 15.4794 41.0746 15.5295 41.0885C15.5546 41.0954 15.5796 41.1024 15.6057 41.0937C15.6317 41.085 15.6724 41.0484 15.6703 41.0797Z" fill="#0F0801"/>
<path opacity="0.4" fill-rule="evenodd" clip-rule="evenodd" d="M17.9926 40.3998C18.1029 40.2289 18.1908 40.0365 18.3448 39.9239C18.3709 39.9001 18.4088 39.8795 18.443 39.9044C18.4773 39.9292 18.496 39.9962 18.5042 40.0448C18.5393 40.2091 18.5484 40.3971 18.5114 40.5571C18.4756 40.702 18.3901 40.8642 18.2777 40.9108C18.1392 40.9812 17.9361 40.8019 17.965 40.5933C17.9674 40.563 17.9816 40.536 17.9841 40.5057C17.9865 40.4755 17.9877 40.4603 17.9901 40.4301C17.9926 40.3998 17.9926 40.3998 18.0068 40.3728C18.0329 40.349 18.0589 40.3252 17.9926 40.3998Z" fill="#0F0801"/>
<path opacity="0.4" fill-rule="evenodd" clip-rule="evenodd" d="M22.0154 37.1979C22.0848 37.1357 22.1423 37.054 22.2226 37.0275C22.303 37.0011 22.3823 36.9907 22.4736 36.9999C22.552 37.0055 22.6314 36.9951 22.7068 37.0488C22.7704 37.0829 22.8319 37.149 22.9074 37.2028C22.9958 37.2601 23.0702 37.3298 23.1596 37.3711C23.2737 37.4357 23.3611 37.5091 23.4604 37.6021C23.5597 37.6951 23.6461 37.7845 23.7315 37.8899C23.8299 37.999 23.8895 38.0972 23.9739 38.2186C24.2363 38.6508 24.5205 39.1543 24.5408 39.6818C24.551 39.9456 24.4828 40.2037 24.3162 40.3528C24.1358 40.5144 23.8958 40.5777 23.6606 40.5608C23.4651 40.5387 23.2597 40.465 23.0998 40.2898C22.9647 40.1378 22.8296 39.9859 22.7213 39.8251C22.6498 39.7073 22.5911 39.593 22.5206 39.4591C22.449 39.3413 22.3775 39.2234 22.3327 39.0967C22.2283 38.8719 22.123 38.663 22.0315 38.4417C21.939 38.2365 21.8475 38.0152 21.8215 37.7959C21.8045 37.6444 21.7885 37.4768 21.8489 37.347C21.8786 37.29 21.8944 37.2455 21.9351 37.2243C21.9619 37.2155 22.0025 37.1942 22.0283 37.2015C22.0045 37.1622 22.0055 37.1461 22.0154 37.1979Z" fill="#0F0801"/>
<path opacity="0.4" fill-rule="evenodd" clip-rule="evenodd" d="M21.1889 38.4464C21.2394 38.4604 21.2889 38.4902 21.3268 38.5008C21.3394 38.5043 21.351 38.5235 21.3762 38.5306C21.3878 38.5498 21.3848 38.597 21.3838 38.6127C21.3797 38.6756 21.3504 38.7315 21.3221 38.7717C21.2665 38.8362 21.1634 38.8396 21.118 38.7469C21.0832 38.6891 21.063 38.6035 21.0808 38.5283C21.0954 38.5004 21.1698 38.345 21.2162 38.4219L21.1889 38.4464Z" fill="#0F0801"/>
<path opacity="0.4" fill-rule="evenodd" clip-rule="evenodd" d="M17.2549 46.1712C17.144 46.1743 17.0622 46.1513 16.9756 46.2126C16.9026 46.2777 16.816 46.3391 16.744 46.3873C16.5999 46.4839 16.4179 46.5184 16.2515 46.5231C16.0987 46.5315 15.9518 46.4389 15.797 46.4811C15.7552 46.4865 15.6987 46.5049 15.6695 46.5309C15.6539 46.5608 15.6617 46.6657 15.6734 46.7033C15.6851 46.7408 15.7231 46.8028 15.7484 46.8442C15.7863 46.9062 15.8243 46.9682 15.8749 47.0509C16.091 47.3856 16.4365 47.6367 16.7508 47.7079C16.9416 47.7614 17.107 47.7736 17.2881 47.7559C17.3581 47.7414 17.4282 47.7268 17.4993 47.6954C17.5839 47.6678 17.6297 47.595 17.689 47.526C17.8409 47.2946 17.8233 46.8787 17.6598 46.5931C17.5966 46.4897 17.5167 46.433 17.4389 46.3427C17.3873 46.2768 17.3347 46.2278 17.254 46.188C17.2403 46.1842 17.2403 46.1842 17.2549 46.1712Z" fill="#0F0801"/>
<path opacity="0.4" fill-rule="evenodd" clip-rule="evenodd" d="M14.4473 45.6794C14.5644 45.7625 14.6967 45.8164 14.7538 45.9997C14.7652 46.0364 14.7757 46.0896 14.7738 46.1225C14.7719 46.1554 14.7567 46.1846 14.7281 46.21C14.6253 46.3485 14.4044 46.1861 14.3035 46.0574C14.254 45.9766 14.2321 45.8868 14.2102 45.797C14.1988 45.7603 14.1988 45.7603 14.214 45.7311C14.2293 45.7019 14.2302 45.6854 14.2578 45.6765C14.2721 45.6637 14.3121 45.675 14.3254 45.6787C14.3521 45.6862 14.3664 45.6735 14.3797 45.6772C14.4206 45.672 14.4597 45.6997 14.4987 45.7273L14.4473 45.6794Z" fill="#0F0801"/>
<path opacity="0.4" fill-rule="evenodd" clip-rule="evenodd" d="M21.3659 45.89C21.4489 45.8793 21.5455 45.8724 21.6295 45.8451C21.727 45.8215 21.8111 45.7941 21.9086 45.7705C22.1452 45.7181 22.4059 45.7233 22.6541 45.7081C22.9159 45.6966 23.1892 45.7224 23.448 45.7611C23.5842 45.7824 23.7213 45.7869 23.8555 45.8416C23.9502 45.8681 24.0719 45.9023 24.1636 45.979C24.2158 46.0277 24.3066 46.1211 24.3298 46.1956C24.3646 46.3073 24.2902 46.4053 24.2449 46.4775C24.0914 46.7572 23.8857 46.9883 23.6685 47.1821C23.4512 47.3759 23.2475 47.5735 23.0051 47.7263C22.8912 47.7963 22.7907 47.87 22.6642 47.9194C22.5657 47.9597 22.4547 47.9795 22.3571 48.0031C22.2596 48.0267 22.1621 48.0502 22.0645 48.0738C21.9525 48.1103 21.8279 48.1263 21.7034 48.1423C21.4687 48.1613 21.234 48.1804 21.0099 48.0155C20.8119 47.875 20.6747 47.6326 20.6496 47.3537C20.6302 47.2124 20.6128 47.0376 20.6205 46.9038C20.6417 46.7739 20.6774 46.631 20.7257 46.5087C20.773 46.403 20.8203 46.2974 20.8802 46.2123C20.9101 46.1697 20.9535 46.1309 20.997 46.0922C21.0694 46.0276 21.1409 45.9797 21.2258 45.9356C21.2683 45.9135 21.2963 45.9044 21.3263 45.8619C21.3948 45.8641 21.4644 45.8497 21.3659 45.89Z" fill="#0F0801"/>
<path opacity="0.4" fill-rule="evenodd" clip-rule="evenodd" d="M25.2845 45.9119C25.3443 45.7716 25.3897 45.6587 25.4848 45.5438C25.5931 45.4169 25.6893 45.2867 25.8307 45.2159C25.8826 45.1832 25.9611 45.1264 26.0172 45.2046C26.0624 45.2641 26.0557 45.3563 26.05 45.4332C26.0422 45.5408 26.0222 45.645 25.979 45.7272C25.948 45.8127 25.8938 45.8761 25.8628 45.9616C25.8318 46.0472 25.7742 46.1567 25.7091 46.2015C25.6704 46.2222 25.6196 46.2395 25.5809 46.2602C25.5423 46.2809 25.5302 46.2775 25.4816 46.2642C25.4331 46.2508 25.3758 46.1879 25.3537 46.1505C25.3317 46.1131 25.3009 46.0262 25.3164 45.9834C25.3187 45.9527 25.3331 45.9253 25.3475 45.8979C25.352 45.8364 25.416 45.8071 25.2845 45.9119Z" fill="#0F0801"/>
<path opacity="0.4" fill-rule="evenodd" clip-rule="evenodd" d="M24.0787 45.4813C23.9689 45.4153 23.901 45.361 23.7891 45.3297C23.6901 45.3196 23.6062 45.2961 23.5191 45.3246C23.475 45.3476 23.3589 45.3856 23.3418 45.4338C23.3407 45.4511 23.3376 45.5031 23.3365 45.5205C23.3453 45.6111 23.4261 45.6867 23.495 45.7236C23.5909 45.7857 23.7049 45.7824 23.8158 45.8311C23.8998 45.8546 23.9708 45.8568 24.0428 45.8417C24.1009 45.8227 24.104 45.7706 24.1082 45.7012C24.1124 45.6319 24.1005 45.5932 24.0616 45.5295C24.0487 45.5082 24.0508 45.4735 24.0378 45.4522C24.0119 45.4097 23.9839 45.4019 24.0787 45.4813Z" fill="#0F0801"/>
<path opacity="0.4" fill-rule="evenodd" clip-rule="evenodd" d="M19.1416 44.3401C19.2084 44.3423 19.2873 44.3645 19.353 44.3829C19.3511 44.4154 19.4018 44.4626 19.3999 44.4951C19.4092 44.5638 19.3801 44.6051 19.3509 44.6465C19.2794 44.7255 19.1591 44.7248 19.0689 44.6665C18.9778 44.6244 18.9723 44.4908 18.9912 44.397C18.9931 44.3645 19.0092 44.3195 19.0233 44.3069C19.0665 44.253 19.1192 44.2678 19.1718 44.2826L19.1416 44.3401Z" fill="#0F0801"/>
<path opacity="0.4" fill-rule="evenodd" clip-rule="evenodd" d="M25.8018 39.3875C25.7258 39.4135 25.6497 39.4395 25.5846 39.4842C25.5062 39.5409 25.44 39.601 25.3738 39.6611C25.2932 39.7485 25.2126 39.8359 25.1441 39.9267C25.0756 40.0175 25.0082 40.0929 24.9397 40.1836C24.8292 40.3412 24.754 40.524 24.6776 40.7223C24.6167 40.8778 24.591 41.0587 24.6017 41.2496C24.6123 41.4405 24.6836 41.6481 24.7715 41.7977C24.8594 41.9472 24.9703 42.1188 25.0858 42.2289C25.3278 42.4679 25.6243 42.4713 25.8866 42.434C26.0112 42.4213 26.1523 42.3506 26.2462 42.2511C26.3003 42.1877 26.3302 42.1177 26.3491 42.0289C26.368 41.9401 26.4134 41.8273 26.4202 41.7352C26.5014 41.3033 26.5099 40.8514 26.4193 40.4035C26.3833 40.2213 26.334 40.051 26.2858 39.8655C26.2464 39.7293 26.1937 39.6051 26.1146 39.505C26.0585 39.4269 25.9771 39.3574 25.8923 39.3341C25.8559 39.324 25.8185 39.3294 25.781 39.3347C25.803 39.3721 25.7897 39.3841 25.8018 39.3875Z" fill="#0F0801"/>
<path opacity="0.4" fill-rule="evenodd" clip-rule="evenodd" d="M25.6182 42.4095C25.6845 42.3955 25.7626 42.4012 25.8279 42.4032C25.8388 42.4387 25.8774 42.4495 25.9021 42.4726C25.9258 42.5117 25.9377 42.5312 25.9348 42.579C25.9318 42.6269 25.9289 42.6747 25.9269 42.7066C25.9101 42.7668 25.8963 42.7791 25.8557 42.8002C25.8152 42.8213 25.7885 42.8301 25.7371 42.8157C25.6985 42.8049 25.6609 42.7782 25.6371 42.7391C25.6124 42.716 25.5887 42.6769 25.5778 42.6414C25.5431 42.5669 25.5718 42.5262 25.6005 42.4856L25.6182 42.4095Z" fill="#0F0801"/>
<path opacity="0.4" fill-rule="evenodd" clip-rule="evenodd" d="M19.8506 47.629C19.8158 47.554 19.7681 47.4754 19.7066 47.4093C19.6808 47.4021 19.655 47.3949 19.6292 47.3876C19.5657 47.3536 19.5151 47.3231 19.4496 47.3211C19.2929 47.3099 19.1799 47.4414 19.1553 47.6303C19.1345 47.755 19.2012 47.9531 19.2875 48.0425C19.3739 48.132 19.4751 48.1929 19.5783 48.2218C19.6557 48.2434 19.7599 48.2562 19.8283 48.2101C19.8828 48.1764 19.8877 48.0962 19.8916 48.0321C19.8965 47.9519 19.8885 47.868 19.8795 47.8003C19.8705 47.7325 19.8486 47.6611 19.8506 47.629Z" fill="#0F0801"/>
</g>
<defs>
<radialGradient id="paint0_radial_702_4912" cx="0" cy="0" r="1" gradientUnits="userSpaceOnUse" gradientTransform="translate(48.7257 23.0828) scale(70.0509 70.125)">
<stop offset="0.00558659" stop-color="#AF63DE"/>
<stop offset="0.2018" stop-color="#9163DB"/>
<stop offset="0.3542" stop-color="#825DD1"/>
<stop offset="0.4919" stop-color="#6D4FC1"/>
<stop offset="0.6209" stop-color="#5E3BA9"/>
<stop offset="0.7437" stop-color="#4A228B"/>
<stop offset="0.8606" stop-color="#290367"/>
<stop offset="1" stop-color="#210C4F"/>
</radialGradient>
<linearGradient id="paint1_linear_702_4912" x1="153.859" y1="23.8091" x2="103.564" y2="-21.5096" gradientUnits="userSpaceOnUse">
<stop offset="0.0771419" stop-color="#7EF5FF"/>
<stop offset="0.328876" stop-color="#6C4EC0"/>
<stop offset="0.876275" stop-color="#65029E"/>
</linearGradient>
<linearGradient id="paint2_linear_702_4912" x1="136.434" y1="28.1149" x2="8.61751" y2="68.8707" gradientUnits="userSpaceOnUse">
<stop stop-color="white"/>
<stop offset="1" stop-color="#D8D8D8"/>
</linearGradient>
<radialGradient id="paint3_radial_702_4912" cx="0" cy="0" r="1" gradientUnits="userSpaceOnUse" gradientTransform="translate(123.494 69.5141) scale(10.11 10.2441)">
<stop offset="0.00548659" stop-color="#4681AD"/>
<stop offset="0.15625" stop-color="#59A1CD"/>
<stop offset="0.229167" stop-color="#5DA9D2"/>
<stop offset="0.3418" stop-color="#59B0C6"/>
<stop offset="0.4864" stop-color="#56A3C1"/>
<stop offset="0.639" stop-color="#36307C"/>
<stop offset="0.6844" stop-color="#313CA3"/>
<stop offset="0.7432" stop-color="#284BA6"/>
<stop offset="0.8282" stop-color="#5066B3"/>
<stop offset="0.9287" stop-color="#242E88"/>
<stop offset="0.96875" stop-color="#0A1C79"/>
<stop offset="1" stop-color="#0026AB"/>
</radialGradient>
<radialGradient id="paint4_radial_702_4912" cx="0" cy="0" r="1" gradientUnits="userSpaceOnUse" gradientTransform="translate(123.494 69.5141) scale(10.11 10.2441)">
<stop offset="0.00548659" stop-color="#4681AD"/>
<stop offset="0.15625" stop-color="#59A1CD"/>
<stop offset="0.229167" stop-color="#5DA9D2"/>
<stop offset="0.3418" stop-color="#59B0C6"/>
<stop offset="0.4864" stop-color="#56A3C1"/>
<stop offset="0.639" stop-color="#36307C"/>
<stop offset="0.6844" stop-color="#313CA3"/>
<stop offset="0.7432" stop-color="#284BA6"/>
<stop offset="0.8282" stop-color="#5066B3"/>
<stop offset="0.9287" stop-color="#242E88"/>
<stop offset="0.96875" stop-color="#0A1C79"/>
<stop offset="1" stop-color="#0026AB"/>
</radialGradient>
<radialGradient id="paint5_radial_702_4912" cx="0" cy="0" r="1" gradientUnits="userSpaceOnUse" gradientTransform="translate(123.781 68.9208) scale(9.93804 10.0699)">
<stop offset="0.328125" stop-color="#59B3C6"/>
<stop offset="1" stop-color="#15577C"/>
</radialGradient>
<radialGradient id="paint6_radial_702_4912" cx="0" cy="0" r="1" gradientUnits="userSpaceOnUse" gradientTransform="translate(125.081 67.8559) scale(2.22219 2.25167)">
<stop offset="0.630208" stop-color="white"/>
<stop offset="1" stop-color="#54A1C8"/>
</radialGradient>
<radialGradient id="paint7_radial_702_4912" cx="0" cy="0" r="1" gradientUnits="userSpaceOnUse" gradientTransform="translate(125.441 68.6702) scale(0.773063 0.783317)">
<stop stop-color="white"/>
<stop offset="1" stop-color="#55E6FF"/>
</radialGradient>
<radialGradient id="paint8_radial_702_4912" cx="0" cy="0" r="1" gradientUnits="userSpaceOnUse" gradientTransform="translate(124.972 68.5974) scale(0.814616 0.825423)">
<stop stop-color="white"/>
<stop offset="1" stop-color="#3785A1"/>
</radialGradient>
<radialGradient id="paint9_radial_702_4912" cx="0" cy="0" r="1" gradientUnits="userSpaceOnUse" gradientTransform="translate(124.392 67.8029) scale(1.88173 1.90669)">
<stop stop-color="white"/>
<stop offset="1" stop-color="#55E6FF"/>
</radialGradient>
<radialGradient id="paint10_radial_702_4912" cx="0" cy="0" r="1" gradientUnits="userSpaceOnUse" gradientTransform="translate(123.588 67.0612) scale(3.19039 3.23271)">
<stop stop-color="white"/>
<stop offset="1" stop-color="#3E8FA9"/>
</radialGradient>
<radialGradient id="paint11_radial_702_4912" cx="0" cy="0" r="1" gradientUnits="userSpaceOnUse" gradientTransform="translate(124.765 67.5728) scale(4.4454 4.50438)">
<stop offset="0.744792" stop-color="white"/>
<stop offset="0.859375" stop-color="#55E6FF"/>
<stop offset="0.9998" stop-color="#55E6FF"/>
</radialGradient>
<radialGradient id="paint12_radial_702_4912" cx="0" cy="0" r="1" gradientUnits="userSpaceOnUse" gradientTransform="translate(123.378 67.6058) scale(7.5103 7.60994)">
<stop offset="0.598958" stop-color="#07486C"/>
<stop offset="1" stop-color="#5DB6DB"/>
</radialGradient>
<radialGradient id="paint13_radial_702_4912" cx="0" cy="0" r="1" gradientUnits="userSpaceOnUse" gradientTransform="translate(125.636 74.2343) scale(5.91922 5.99775)">
<stop offset="0.572917" stop-color="#55E6FF"/>
<stop offset="1" stop-color="#3370A0"/>
</radialGradient>
<radialGradient id="paint14_radial_702_4912" cx="0" cy="0" r="1" gradientUnits="userSpaceOnUse" gradientTransform="translate(123.296 76.548) scale(0.638843 0.647318)">
<stop stop-color="#6D00C2"/>
<stop offset="0.3995" stop-color="#6600BC"/>
<stop offset="0.976" stop-color="#5300AC"/>
<stop offset="1" stop-color="#5200AB"/>
</radialGradient>
<radialGradient id="paint15_radial_702_4912" cx="0" cy="0" r="1" gradientUnits="userSpaceOnUse" gradientTransform="translate(133.637 72.7837) scale(0.667269 0.676123)">
<stop stop-color="#427FB2"/>
<stop offset="0.73" stop-color="#260087"/>
<stop offset="1" stop-color="#2A008B"/>
</radialGradient>
<radialGradient id="paint16_radial_702_4912" cx="0" cy="0" r="1" gradientUnits="userSpaceOnUse" gradientTransform="translate(17.6041 36.9449) rotate(96.8914) scale(11.5065 10.9427)">
<stop offset="0.00558659" stop-color="#63CFDE"/>
<stop offset="0.2018" stop-color="#63BEDB"/>
<stop offset="0.3542" stop-color="#5DA7D1"/>
<stop offset="0.4919" stop-color="#4F91C1"/>
<stop offset="0.6209" stop-color="#3B74A9"/>
<stop offset="0.7437" stop-color="#22658B"/>
<stop offset="0.8606" stop-color="#034367"/>
<stop offset="1" stop-color="#0C384F"/>
</radialGradient>
</defs>
</svg>
