<svg width="99" height="99" viewBox="0 0 99 99" fill="none" xmlns="http://www.w3.org/2000/svg">
<g clip-path="url(#clip0_407_5976)">
<path d="M24.6818 32.9089C29.2068 32.9089 32.9091 29.2066 32.9091 24.6816C32.9091 20.1566 29.2068 16.4544 24.6818 16.4544C20.1568 16.4544 16.4546 20.1566 16.4546 24.6816C16.4546 29.2066 20.1568 32.9089 24.6818 32.9089ZM49.3636 82.2723C53.8885 82.2723 57.5908 78.5701 57.5908 74.0451C57.5908 69.5201 53.8885 65.8178 49.3636 65.8178C44.8386 65.8178 41.1363 69.5201 41.1363 74.0451C41.1363 78.5701 44.8386 82.2723 49.3636 82.2723ZM24.6818 82.2723C29.2068 82.2723 32.9091 78.5701 32.9091 74.0451C32.9091 69.5201 29.2068 65.8178 24.6818 65.8178C20.1568 65.8178 16.4546 69.5201 16.4546 74.0451C16.4546 78.5701 20.1568 82.2723 24.6818 82.2723ZM24.6818 57.5906C29.2068 57.5906 32.9091 53.8883 32.9091 49.3633C32.9091 44.8384 29.2068 41.1361 24.6818 41.1361C20.1568 41.1361 16.4546 44.8384 16.4546 49.3633C16.4546 53.8883 20.1568 57.5906 24.6818 57.5906ZM49.3636 57.5906C53.8885 57.5906 57.5908 53.8883 57.5908 49.3633C57.5908 44.8384 53.8885 41.1361 49.3636 41.1361C44.8386 41.1361 41.1363 44.8384 41.1363 49.3633C41.1363 53.8883 44.8386 57.5906 49.3636 57.5906ZM49.6515 16.4544C49.5692 16.4544 49.4458 16.4544 49.3636 16.4544C44.8386 16.4544 41.1363 20.1566 41.1363 24.6816C41.1363 29.2066 44.8386 32.9089 49.3636 32.9089C50.2686 32.9089 51.1324 32.7443 51.9551 32.4975C50.2686 28.8364 49.3636 24.805 49.3636 20.568C49.3636 19.1694 49.4458 17.8119 49.6515 16.4544ZM78.1589 49.3633C73.9219 49.3633 69.8905 48.4583 66.2294 46.7718C65.9826 47.5945 65.8181 48.4583 65.8181 49.3633C65.8181 53.8883 69.5203 57.5906 74.0453 57.5906C78.5703 57.5906 82.2725 53.8883 82.2725 49.3633C82.2725 49.2811 82.2725 49.1577 82.2725 49.0754C80.915 49.2811 79.5575 49.3633 78.1589 49.3633ZM74.0453 82.2723C78.5703 82.2723 82.2725 78.5701 82.2725 74.0451C82.2725 69.5201 78.5703 65.8178 74.0453 65.8178C69.5203 65.8178 65.8181 69.5201 65.8181 74.0451C65.8181 78.5701 69.5203 82.2723 74.0453 82.2723ZM78.1589 -0.00012207C66.8053 -0.00012207 57.5908 9.21439 57.5908 20.568C57.5908 31.9216 66.8053 41.1361 78.1589 41.1361C89.5125 41.1361 98.727 31.9216 98.727 20.568C98.727 9.21439 89.5125 -0.00012207 78.1589 -0.00012207ZM80.2157 30.852C80.2157 32.0039 79.3107 32.9089 78.1589 32.9089C77.0482 32.9089 76.1021 32.0039 76.1021 30.852C76.1021 29.7002 77.0071 28.7952 78.1589 28.7952C79.3107 28.7952 80.2157 29.7002 80.2157 30.852ZM78.1589 24.6816C77.0071 24.6816 76.1021 23.7766 76.1021 22.6248V10.2839C76.1021 9.13212 77.0071 8.22712 78.1589 8.22712C79.3107 8.22712 80.2157 9.13212 80.2157 10.2839V22.6248C80.2157 23.7766 79.3107 24.6816 78.1589 24.6816Z" fill="url(#paint0_linear_407_5976)"/>
</g>
<defs>
<linearGradient id="paint0_linear_407_5976" x1="-4.15558" y1="-30.4977" x2="95.2181" y2="146.999" gradientUnits="userSpaceOnUse">
<stop offset="0.17162" stop-color="#A100FF"/>
<stop offset="0.476152" stop-color="#0AA8D1"/>
<stop offset="0.876275" stop-color="#7EF5FF"/>
</linearGradient>
<clipPath id="clip0_407_5976">
<rect width="98.7269" height="98.7269" fill="white"/>
</clipPath>
</defs>
</svg>
