<svg width="98" height="98" viewBox="0 0 98 98" fill="none" xmlns="http://www.w3.org/2000/svg">
<mask id="path-1-inside-1_407_5971" fill="white">
<path d="M97.1157 33.3178C97.0723 32.7103 96.8919 32.1206 96.5879 31.5928C96.2839 31.0651 95.8643 30.6131 95.3606 30.2707C94.2179 29.337 92.9942 28.5069 91.7041 27.7904C91.3262 27.4091 90.874 27.1094 90.3755 26.9098C89.9863 26.5139 89.5195 26.2027 89.0044 25.9957C88.1457 25.2866 87.2177 24.666 86.2346 24.1431C85.1955 23.229 83.9401 22.6348 82.8096 21.8578C82.187 21.315 81.4967 20.8551 80.7559 20.4896C80.3792 20.1104 79.9293 19.8118 79.4335 19.6121C78.796 19.0592 78.0916 18.5883 77.3371 18.2104C76.9459 17.8212 76.4835 17.5108 75.9751 17.2963C75.5953 16.915 75.1424 16.6144 74.6435 16.4126C73.9177 15.7868 73.1099 15.263 72.2424 14.8556C71.5306 14.1946 70.7245 13.6431 69.8505 13.2193C69.4632 12.8239 68.9984 12.5127 68.4853 12.3052C67.9338 11.6287 67.0136 11.4977 66.3981 10.9096C65.7897 10.3733 65.111 9.92225 64.3809 9.56892C63.9923 9.1738 63.5266 8.86267 63.0128 8.6548C62.7522 8.35387 62.417 8.12686 62.0408 7.99662C61.5007 7.51364 60.8943 7.1104 60.24 6.79912C59.9878 6.51653 59.6649 6.30619 59.3045 6.18971C58.7776 5.71312 58.1818 5.31867 57.5372 5.01964C56.9461 4.41023 56.1509 4.08723 55.4561 3.62713C55.0785 3.24321 54.625 2.94224 54.1245 2.74347C53.7339 2.34785 53.2661 2.03671 52.7503 1.82934C52.3496 1.42852 51.8731 1.11155 51.3486 0.896941C50.9835 0.517179 50.4907 0.285987 49.9653 0.247912C49.4625 -0.0781248 48.911 -0.00803391 48.3595 0.0468134C47.9139 -0.0177155 47.4592 0.0467834 47.0492 0.23268C45.5897 0.842095 44.3526 1.79278 43.088 2.72214C40.7479 4.1441 38.4687 5.66257 36.2504 7.27751C33.6848 8.86809 31.1709 10.5318 28.7241 12.2961C25.9289 14.0309 23.1936 15.8591 20.5183 17.7808C19.0795 18.6097 17.6971 19.5329 16.3804 20.5445C14.9092 21.4107 13.4852 22.3546 12.1145 23.3722L7.10204 26.7239C5.34083 27.8788 3.53695 28.9727 1.83058 30.2067C1.21646 30.6209 0.725416 31.193 0.409037 31.8627C0.0926576 32.5325 -0.0373262 33.2752 0.032839 34.0125C-0.00372593 34.4879 -0.0707884 34.9663 0.233919 35.3898C0.218641 35.6037 0.255645 35.8181 0.341638 36.0145C0.427631 36.2109 0.560071 36.3834 0.727581 36.5172C0.851022 36.8779 1.09541 37.1847 1.41927 37.3857C1.88527 37.9426 2.51744 38.3356 3.22312 38.507C3.72265 38.7126 4.25833 38.8162 4.79851 38.8117L4.85638 41.0848V66.6132V90.7856C4.85638 91.6998 4.63695 92.6413 5.03916 93.528C5.07919 93.934 5.19885 94.3281 5.39126 94.6878C5.58366 95.0475 5.84508 95.3657 6.16054 95.6244C6.48694 96.0529 6.89966 96.408 7.37208 96.6668C7.8445 96.9256 8.36608 97.0822 8.90291 97.1266C10.5738 97.2576 12.2519 97.2698 13.9245 97.1632H78.9033C81.8956 97.1632 84.8878 97.2546 87.88 97.1632C89.0687 97.1089 90.1918 96.6027 91.0199 95.7481C91.8479 94.8935 92.3182 93.7549 92.3348 92.5651C92.3866 89.6095 92.3349 86.6538 92.3196 83.7012C92.3196 79.0635 92.3196 74.4269 92.3196 69.7913V40.3809C92.2617 39.4211 92.3805 38.8574 93.6359 38.6106C96.0644 38.1505 97.3869 35.9139 97.1157 33.3178ZM14.3663 34.5519V34.5244L14.4028 34.4879C14.3918 34.5099 14.3796 34.5312 14.3663 34.5519ZM74.028 87.3211C73.8902 87.3833 73.7612 87.4632 73.6441 87.5588C73.5052 87.4406 73.3433 87.3526 73.1687 87.3001C72.994 87.2477 72.8104 87.232 72.6294 87.2541C70.6793 87.2541 68.7291 87.1566 66.779 87.3181C66.6085 87.3582 66.4465 87.4284 66.3006 87.5253C66.058 87.3317 65.7507 87.238 65.4413 87.2632C63.9757 87.2632 62.5101 87.1596 61.0444 87.3303C60.8944 87.3591 60.7541 87.4251 60.6362 87.5222L60.5965 87.5649C59.313 87.0427 57.8752 87.0482 56.5957 87.5801C56.4918 87.453 56.3479 87.3649 56.1874 87.3303C53.4054 87.1779 50.6204 87.2053 47.8323 87.3303C47.644 87.37 47.4651 87.4455 47.3052 87.5527C45.9542 87.0373 44.4579 87.0536 43.1184 87.5984C43.0727 87.5307 43.0138 87.4728 42.9452 87.4283C42.8766 87.3838 42.7998 87.3536 42.7193 87.3394C42.1682 87.2345 41.6047 87.2098 41.0465 87.2663C40.0623 87.3394 39.0262 86.9829 38.106 87.5953C38.0655 87.532 38.0125 87.4777 37.9501 87.4358C37.8877 87.3939 37.8174 87.3652 37.7434 87.3516C35.923 87.2114 34.0944 87.2114 32.274 87.3516C32.1229 87.3937 31.979 87.4584 31.8473 87.5435C31.1038 87.0865 30.2903 87.3089 29.495 87.3638C29.3549 87.4079 29.2208 87.4694 29.0959 87.5466C28.736 87.3332 28.3238 87.2245 27.9055 87.2326C27.4873 87.2406 27.0796 87.3652 26.7283 87.5923C26.6325 87.4794 26.5051 87.3977 26.3626 87.3577C25.1773 87.3059 23.9737 86.989 22.8341 87.6014C22.7939 87.5395 22.7415 87.4862 22.6803 87.4449C22.619 87.4035 22.5501 87.3749 22.4776 87.3607C20.8722 87.2114 19.2564 87.2114 17.651 87.3607C17.5414 87.4308 17.4347 87.507 17.3311 87.5862C16.5967 87.0438 15.7435 87.379 14.9513 87.2815H14.8356C14.9565 86.9641 15.0054 86.6237 14.9788 86.2851C14.9909 76.9753 14.9909 67.6675 14.9788 58.3617C14.9788 57.8864 15.0397 57.3501 14.5156 57.0393C14.5109 57.0206 14.5047 57.0022 14.4973 56.9844C14.5507 57.0102 14.6057 57.0326 14.6618 57.0515C15.0702 56.5182 14.9666 55.8905 14.9666 55.2933C14.9666 48.4679 14.997 41.6394 14.9452 34.8109C14.9452 33.8968 15.2103 33.3026 15.9813 32.8425C16.6228 32.5093 17.2087 32.0786 17.7181 31.5658C17.776 31.4129 17.8484 31.266 17.9344 31.127C17.9912 31.1605 18.0559 31.1781 18.1218 31.1781C18.1877 31.1781 18.2524 31.1605 18.3092 31.127C20.0521 30.0178 21.8895 29.0397 23.3886 27.5832C23.3886 27.5406 23.4192 27.504 23.4344 27.4644C23.8671 27.6198 24.1596 27.2907 24.4734 27.0926C25.2443 26.6082 26.0152 26.1176 26.7435 25.5691C27.6759 24.8713 28.8155 24.4447 29.5438 23.4727C29.5574 23.4321 29.5737 23.3924 29.5925 23.3539C30.0222 23.5093 30.3146 23.1802 30.6285 22.9821C31.3994 22.4976 32.1673 22.0101 32.8956 21.4586C33.831 20.7639 34.9676 20.3342 35.6958 19.3683C35.7141 19.3135 35.7354 19.2617 35.7567 19.2099C36.5063 19.2373 37.0274 18.7315 37.585 18.3414C39.008 17.3085 40.6534 16.5772 41.8692 15.2578C41.8868 15.2036 41.9082 15.1506 41.9332 15.0993C42.6127 15.0506 43.1368 14.6453 43.6791 14.2919C45.419 13.1614 47.1162 11.97 48.8592 10.8609C49.1913 11.6166 49.8373 11.9182 50.6204 12.0127L50.6478 11.9974C50.9769 12.8293 51.6899 13.134 52.4761 13.3138L52.4943 13.2955C52.5412 13.508 52.6654 13.6956 52.8428 13.8217C53.0201 13.9478 53.238 14.0035 53.4542 13.978V13.9933C53.5978 14.2677 53.8104 14.5001 54.0712 14.6673C54.3319 14.8345 54.6318 14.9309 54.9411 14.947H54.9747C54.9913 15.061 55.0315 15.1702 55.0929 15.2676C55.1542 15.3651 55.2353 15.4487 55.3308 15.5129C55.4264 15.5772 55.5344 15.6208 55.6478 15.6409C55.7612 15.661 55.8775 15.6571 55.9894 15.6296C56.2758 16.2085 56.6688 16.6107 57.3635 16.5437C57.6194 16.9695 57.9668 17.3331 58.3805 17.6082C58.7942 17.8833 59.2638 18.063 59.7555 18.1342C60.0236 18.8747 60.6483 19.1337 61.3461 19.2952L61.407 19.2708C61.538 19.5894 61.7611 19.8616 62.0477 20.0527C62.3343 20.2438 62.6714 20.345 63.0159 20.3434C63.0159 20.3434 63.0159 20.3769 63.0159 20.3952C63.6088 21.1954 64.4586 21.7677 65.4231 22.0162L65.484 21.9522C65.6941 22.3671 66.0085 22.7201 66.3964 22.9765C66.7842 23.233 67.2322 23.384 67.6962 23.4148C67.9521 24.204 68.5554 24.4844 69.3263 24.5209C69.4817 25.1913 69.9358 25.435 70.5635 25.3802V25.4533C71.0236 26.0627 71.5294 26.5868 72.3491 26.5838C72.7208 27.2237 73.1931 27.696 73.9823 27.6563C73.9808 27.6777 73.9808 27.699 73.9823 27.7203C74.5186 28.3998 75.1005 29.0032 76.036 29.0154C76.0345 29.0417 76.0345 29.0682 76.036 29.0946C77.0263 30.1428 78.1385 31.0051 79.5706 31.3738C80.049 32.2879 80.9083 32.6871 81.8315 32.9948H81.8681C81.9748 33.5768 82.1911 34.1283 82.1728 34.7499C82.1241 42.6723 82.1545 50.5947 82.1484 58.5354C82.1484 63.8465 82.1484 69.1575 82.1484 74.4686C82.1484 75.078 81.9778 75.7514 82.5781 76.2115C82.5271 76.2182 82.477 76.2304 82.4288 76.248C82.3496 76.3422 82.2896 76.4509 82.2521 76.568C82.1516 77.0898 82.1178 77.6222 82.1515 78.1525C82.1515 80.6206 82.1515 83.0887 82.1515 85.5569C82.1515 87.2845 82.1515 87.2693 80.4665 87.2967C78.3548 87.2663 76.1915 87.117 74.028 87.3211Z"/>
</mask>
<path d="M97.1157 33.3178C97.0723 32.7103 96.8919 32.1206 96.5879 31.5928C96.2839 31.0651 95.8643 30.6131 95.3606 30.2707C94.2179 29.337 92.9942 28.5069 91.7041 27.7904C91.3262 27.4091 90.874 27.1094 90.3755 26.9098C89.9863 26.5139 89.5195 26.2027 89.0044 25.9957C88.1457 25.2866 87.2177 24.666 86.2346 24.1431C85.1955 23.229 83.9401 22.6348 82.8096 21.8578C82.187 21.315 81.4967 20.8551 80.7559 20.4896C80.3792 20.1104 79.9293 19.8118 79.4335 19.6121C78.796 19.0592 78.0916 18.5883 77.3371 18.2104C76.9459 17.8212 76.4835 17.5108 75.9751 17.2963C75.5953 16.915 75.1424 16.6144 74.6435 16.4126C73.9177 15.7868 73.1099 15.263 72.2424 14.8556C71.5306 14.1946 70.7245 13.6431 69.8505 13.2193C69.4632 12.8239 68.9984 12.5127 68.4853 12.3052C67.9338 11.6287 67.0136 11.4977 66.3981 10.9096C65.7897 10.3733 65.111 9.92225 64.3809 9.56892C63.9923 9.1738 63.5266 8.86267 63.0128 8.6548C62.7522 8.35387 62.417 8.12686 62.0408 7.99662C61.5007 7.51364 60.8943 7.1104 60.24 6.79912C59.9878 6.51653 59.6649 6.30619 59.3045 6.18971C58.7776 5.71312 58.1818 5.31867 57.5372 5.01964C56.9461 4.41023 56.1509 4.08723 55.4561 3.62713C55.0785 3.24321 54.625 2.94224 54.1245 2.74347C53.7339 2.34785 53.2661 2.03671 52.7503 1.82934C52.3496 1.42852 51.8731 1.11155 51.3486 0.896941C50.9835 0.517179 50.4907 0.285987 49.9653 0.247912C49.4625 -0.0781248 48.911 -0.00803391 48.3595 0.0468134C47.9139 -0.0177155 47.4592 0.0467834 47.0492 0.23268C45.5897 0.842095 44.3526 1.79278 43.088 2.72214C40.7479 4.1441 38.4687 5.66257 36.2504 7.27751C33.6848 8.86809 31.1709 10.5318 28.7241 12.2961C25.9289 14.0309 23.1936 15.8591 20.5183 17.7808C19.0795 18.6097 17.6971 19.5329 16.3804 20.5445C14.9092 21.4107 13.4852 22.3546 12.1145 23.3722L7.10204 26.7239C5.34083 27.8788 3.53695 28.9727 1.83058 30.2067C1.21646 30.6209 0.725416 31.193 0.409037 31.8627C0.0926576 32.5325 -0.0373262 33.2752 0.032839 34.0125C-0.00372593 34.4879 -0.0707884 34.9663 0.233919 35.3898C0.218641 35.6037 0.255645 35.8181 0.341638 36.0145C0.427631 36.2109 0.560071 36.3834 0.727581 36.5172C0.851022 36.8779 1.09541 37.1847 1.41927 37.3857C1.88527 37.9426 2.51744 38.3356 3.22312 38.507C3.72265 38.7126 4.25833 38.8162 4.79851 38.8117L4.85638 41.0848V66.6132V90.7856C4.85638 91.6998 4.63695 92.6413 5.03916 93.528C5.07919 93.934 5.19885 94.3281 5.39126 94.6878C5.58366 95.0475 5.84508 95.3657 6.16054 95.6244C6.48694 96.0529 6.89966 96.408 7.37208 96.6668C7.8445 96.9256 8.36608 97.0822 8.90291 97.1266C10.5738 97.2576 12.2519 97.2698 13.9245 97.1632H78.9033C81.8956 97.1632 84.8878 97.2546 87.88 97.1632C89.0687 97.1089 90.1918 96.6027 91.0199 95.7481C91.8479 94.8935 92.3182 93.7549 92.3348 92.5651C92.3866 89.6095 92.3349 86.6538 92.3196 83.7012C92.3196 79.0635 92.3196 74.4269 92.3196 69.7913V40.3809C92.2617 39.4211 92.3805 38.8574 93.6359 38.6106C96.0644 38.1505 97.3869 35.9139 97.1157 33.3178ZM14.3663 34.5519V34.5244L14.4028 34.4879C14.3918 34.5099 14.3796 34.5312 14.3663 34.5519ZM74.028 87.3211C73.8902 87.3833 73.7612 87.4632 73.6441 87.5588C73.5052 87.4406 73.3433 87.3526 73.1687 87.3001C72.994 87.2477 72.8104 87.232 72.6294 87.2541C70.6793 87.2541 68.7291 87.1566 66.779 87.3181C66.6085 87.3582 66.4465 87.4284 66.3006 87.5253C66.058 87.3317 65.7507 87.238 65.4413 87.2632C63.9757 87.2632 62.5101 87.1596 61.0444 87.3303C60.8944 87.3591 60.7541 87.4251 60.6362 87.5222L60.5965 87.5649C59.313 87.0427 57.8752 87.0482 56.5957 87.5801C56.4918 87.453 56.3479 87.3649 56.1874 87.3303C53.4054 87.1779 50.6204 87.2053 47.8323 87.3303C47.644 87.37 47.4651 87.4455 47.3052 87.5527C45.9542 87.0373 44.4579 87.0536 43.1184 87.5984C43.0727 87.5307 43.0138 87.4728 42.9452 87.4283C42.8766 87.3838 42.7998 87.3536 42.7193 87.3394C42.1682 87.2345 41.6047 87.2098 41.0465 87.2663C40.0623 87.3394 39.0262 86.9829 38.106 87.5953C38.0655 87.532 38.0125 87.4777 37.9501 87.4358C37.8877 87.3939 37.8174 87.3652 37.7434 87.3516C35.923 87.2114 34.0944 87.2114 32.274 87.3516C32.1229 87.3937 31.979 87.4584 31.8473 87.5435C31.1038 87.0865 30.2903 87.3089 29.495 87.3638C29.3549 87.4079 29.2208 87.4694 29.0959 87.5466C28.736 87.3332 28.3238 87.2245 27.9055 87.2326C27.4873 87.2406 27.0796 87.3652 26.7283 87.5923C26.6325 87.4794 26.5051 87.3977 26.3626 87.3577C25.1773 87.3059 23.9737 86.989 22.8341 87.6014C22.7939 87.5395 22.7415 87.4862 22.6803 87.4449C22.619 87.4035 22.5501 87.3749 22.4776 87.3607C20.8722 87.2114 19.2564 87.2114 17.651 87.3607C17.5414 87.4308 17.4347 87.507 17.3311 87.5862C16.5967 87.0438 15.7435 87.379 14.9513 87.2815H14.8356C14.9565 86.9641 15.0054 86.6237 14.9788 86.2851C14.9909 76.9753 14.9909 67.6675 14.9788 58.3617C14.9788 57.8864 15.0397 57.3501 14.5156 57.0393C14.5109 57.0206 14.5047 57.0022 14.4973 56.9844C14.5507 57.0102 14.6057 57.0326 14.6618 57.0515C15.0702 56.5182 14.9666 55.8905 14.9666 55.2933C14.9666 48.4679 14.997 41.6394 14.9452 34.8109C14.9452 33.8968 15.2103 33.3026 15.9813 32.8425C16.6228 32.5093 17.2087 32.0786 17.7181 31.5658C17.776 31.4129 17.8484 31.266 17.9344 31.127C17.9912 31.1605 18.0559 31.1781 18.1218 31.1781C18.1877 31.1781 18.2524 31.1605 18.3092 31.127C20.0521 30.0178 21.8895 29.0397 23.3886 27.5832C23.3886 27.5406 23.4192 27.504 23.4344 27.4644C23.8671 27.6198 24.1596 27.2907 24.4734 27.0926C25.2443 26.6082 26.0152 26.1176 26.7435 25.5691C27.6759 24.8713 28.8155 24.4447 29.5438 23.4727C29.5574 23.4321 29.5737 23.3924 29.5925 23.3539C30.0222 23.5093 30.3146 23.1802 30.6285 22.9821C31.3994 22.4976 32.1673 22.0101 32.8956 21.4586C33.831 20.7639 34.9676 20.3342 35.6958 19.3683C35.7141 19.3135 35.7354 19.2617 35.7567 19.2099C36.5063 19.2373 37.0274 18.7315 37.585 18.3414C39.008 17.3085 40.6534 16.5772 41.8692 15.2578C41.8868 15.2036 41.9082 15.1506 41.9332 15.0993C42.6127 15.0506 43.1368 14.6453 43.6791 14.2919C45.419 13.1614 47.1162 11.97 48.8592 10.8609C49.1913 11.6166 49.8373 11.9182 50.6204 12.0127L50.6478 11.9974C50.9769 12.8293 51.6899 13.134 52.4761 13.3138L52.4943 13.2955C52.5412 13.508 52.6654 13.6956 52.8428 13.8217C53.0201 13.9478 53.238 14.0035 53.4542 13.978V13.9933C53.5978 14.2677 53.8104 14.5001 54.0712 14.6673C54.3319 14.8345 54.6318 14.9309 54.9411 14.947H54.9747C54.9913 15.061 55.0315 15.1702 55.0929 15.2676C55.1542 15.3651 55.2353 15.4487 55.3308 15.5129C55.4264 15.5772 55.5344 15.6208 55.6478 15.6409C55.7612 15.661 55.8775 15.6571 55.9894 15.6296C56.2758 16.2085 56.6688 16.6107 57.3635 16.5437C57.6194 16.9695 57.9668 17.3331 58.3805 17.6082C58.7942 17.8833 59.2638 18.063 59.7555 18.1342C60.0236 18.8747 60.6483 19.1337 61.3461 19.2952L61.407 19.2708C61.538 19.5894 61.7611 19.8616 62.0477 20.0527C62.3343 20.2438 62.6714 20.345 63.0159 20.3434C63.0159 20.3434 63.0159 20.3769 63.0159 20.3952C63.6088 21.1954 64.4586 21.7677 65.4231 22.0162L65.484 21.9522C65.6941 22.3671 66.0085 22.7201 66.3964 22.9765C66.7842 23.233 67.2322 23.384 67.6962 23.4148C67.9521 24.204 68.5554 24.4844 69.3263 24.5209C69.4817 25.1913 69.9358 25.435 70.5635 25.3802V25.4533C71.0236 26.0627 71.5294 26.5868 72.3491 26.5838C72.7208 27.2237 73.1931 27.696 73.9823 27.6563C73.9808 27.6777 73.9808 27.699 73.9823 27.7203C74.5186 28.3998 75.1005 29.0032 76.036 29.0154C76.0345 29.0417 76.0345 29.0682 76.036 29.0946C77.0263 30.1428 78.1385 31.0051 79.5706 31.3738C80.049 32.2879 80.9083 32.6871 81.8315 32.9948H81.8681C81.9748 33.5768 82.1911 34.1283 82.1728 34.7499C82.1241 42.6723 82.1545 50.5947 82.1484 58.5354C82.1484 63.8465 82.1484 69.1575 82.1484 74.4686C82.1484 75.078 81.9778 75.7514 82.5781 76.2115C82.5271 76.2182 82.477 76.2304 82.4288 76.248C82.3496 76.3422 82.2896 76.4509 82.2521 76.568C82.1516 77.0898 82.1178 77.6222 82.1515 78.1525C82.1515 80.6206 82.1515 83.0887 82.1515 85.5569C82.1515 87.2845 82.1515 87.2693 80.4665 87.2967C78.3548 87.2663 76.1915 87.117 74.028 87.3211Z" fill="url(#paint0_linear_407_5971)" stroke="#0F0C08" stroke-width="0.742308" mask="url(#path-1-inside-1_407_5971)"/>
<path d="M67.7375 42.9219L67.7374 42.9219L67.7388 42.9289C67.8933 43.6834 67.8508 44.465 67.6156 45.1984C67.3804 45.9317 66.9603 46.5921 66.3958 47.1161L66.3957 47.116L66.3907 47.1209C56.7519 56.7679 47.1089 66.4098 37.4619 76.0467L37.4619 76.0467C36.3086 77.2 34.9478 77.7529 33.3148 77.461C31.8655 77.1881 30.7218 76.523 30.0629 75.1762L30.0554 75.1608L30.0451 75.147C29.422 74.3086 29.3009 73.354 29.4372 72.3202L29.4374 72.3203L29.4382 72.311C29.5273 71.2128 30.0297 70.1893 30.8439 69.447L30.844 69.4471L30.8501 69.441C40.4789 59.8062 50.1107 50.1765 59.7455 40.5518L59.7455 40.5518C60.5257 39.7716 61.3734 39.1831 62.4877 39.1831H62.5122L62.5359 39.1768C63.6709 38.8714 64.6812 39.1576 65.6316 39.8315L65.641 39.8381L65.6511 39.8435C66.8773 40.5031 67.5135 41.5631 67.7375 42.9219Z" fill="url(#paint1_linear_407_5971)" stroke="#0F0C08" stroke-width="0.371154"/>
<path d="M65.7867 65.5711L65.799 65.5865L65.8143 65.5989C66.5707 66.2141 67.0942 67.0693 67.2978 68.0228L67.3009 68.0373L67.3063 68.0511C67.8634 69.4878 67.9854 70.8429 67.7084 72.0936C67.4313 73.3446 66.7522 74.5042 65.686 75.5451C64.6195 76.5862 63.4565 77.2337 62.2138 77.4928C60.971 77.7519 59.6356 77.6252 58.2201 77.0976L58.2202 77.0973L58.2095 77.094C57.251 76.8013 56.3978 76.2372 55.753 75.4701L55.7426 75.4578L55.7303 75.4475C54.8343 74.6943 54.224 73.6563 54.0015 72.5072L53.9975 72.4865L53.9889 72.4672C53.965 72.4134 53.948 72.3567 53.9383 72.2986L53.9365 72.2873L53.9332 72.2764C53.1468 69.6233 53.8512 67.3078 55.8042 65.4113C57.758 63.5142 60.0851 62.8666 62.7106 63.7299L62.7191 63.7326L62.7278 63.7346C62.7911 63.7489 62.8528 63.7694 62.912 63.796L62.9293 63.8038L62.9479 63.8079C64.0674 64.0552 65.0688 64.6773 65.7867 65.5711Z" fill="url(#paint2_linear_407_5971)" stroke="#0F0C08" stroke-width="0.371154"/>
<path d="M29.8325 48.6107L29.8282 48.5745L29.8104 48.5426C29.3528 47.7195 29.3073 46.8229 29.4003 45.875L29.4012 45.8653L29.4012 45.8555C29.3864 43.9515 30.2866 42.1656 31.6482 40.8997C33.0103 39.6332 34.8189 38.901 36.6043 39.082L36.6043 39.0822L36.6123 39.0827C36.8134 39.0944 37.0128 39.1252 37.2081 39.1748L37.2471 39.1847L37.2868 39.1775C37.6172 39.1178 37.9582 39.1808 38.2454 39.3548L38.2791 39.3751L38.3182 39.3801C39.0527 39.4735 39.7422 39.7859 40.2967 40.2766L40.3162 40.2938L40.3397 40.305C41.0335 40.6363 41.6074 41.1748 41.9823 41.846L41.993 41.8653L42.008 41.8814C42.7391 42.6735 43.2068 43.6726 43.3467 44.7414L43.3463 44.7415L43.3488 44.7541C44.3773 49.846 39.8844 54.254 34.9334 53.0415L34.9259 53.0396L34.9182 53.0384C33.8164 52.8647 32.8242 52.5158 32.0599 51.6993L32.0443 51.6827L32.0252 51.6703C31.3526 51.2352 30.8127 50.6235 30.4644 49.902L30.4511 49.8744L30.4296 49.8525C30.0987 49.516 29.8887 49.0793 29.8325 48.6107Z" fill="url(#paint3_linear_407_5971)" stroke="#0F0C08" stroke-width="0.371154"/>
<defs>
<linearGradient id="paint0_linear_407_5971" x1="-24.3373" y1="-36.044" x2="93.1622" y2="173.647" gradientUnits="userSpaceOnUse">
<stop offset="0.17162" stop-color="#A100FF"/>
<stop offset="0.476152" stop-color="#0AA8D1"/>
<stop offset="0.876275" stop-color="#7EF5FF"/>
</linearGradient>
<linearGradient id="paint1_linear_407_5971" x1="19.478" y1="24.4662" x2="66.4343" y2="108.25" gradientUnits="userSpaceOnUse">
<stop offset="0.17162" stop-color="#A100FF"/>
<stop offset="0.476152" stop-color="#0AA8D1"/>
<stop offset="0.876275" stop-color="#7EF5FF"/>
</linearGradient>
<linearGradient id="paint2_linear_407_5971" x1="49.7732" y1="57.7409" x2="67.4792" y2="89.2898" gradientUnits="userSpaceOnUse">
<stop offset="0.17162" stop-color="#A100FF"/>
<stop offset="0.476152" stop-color="#0AA8D1"/>
<stop offset="0.876275" stop-color="#7EF5FF"/>
</linearGradient>
<linearGradient id="paint3_linear_407_5971" x1="25.5408" y1="33.4715" x2="43.1624" y2="64.8305" gradientUnits="userSpaceOnUse">
<stop offset="0.17162" stop-color="#A100FF"/>
<stop offset="0.476152" stop-color="#0AA8D1"/>
<stop offset="0.876275" stop-color="#7EF5FF"/>
</linearGradient>
</defs>
</svg>
