<svg width="81" height="101" viewBox="0 0 81 101" fill="none" xmlns="http://www.w3.org/2000/svg">
<path d="M79.0285 34.415L79.0285 34.4151C80.369 43.2147 78.8373 51.5739 74.4978 59.3599C71.6773 64.4641 67.7294 68.8576 62.9546 72.2057L62.9393 72.2164L62.9235 72.2264C62.8192 72.292 62.7353 72.3854 62.6812 72.4961C62.6271 72.6069 62.605 72.7305 62.6175 72.853L62.6212 72.8896L62.6212 72.9265C62.6355 80.5517 62.6355 88.1792 62.6355 95.8036C62.638 96.9054 62.5267 98.2528 61.3032 99.1971C60.6479 99.706 59.9519 99.9535 59.2248 99.974C58.5136 99.994 57.8244 99.7954 57.1706 99.5012L57.1687 99.5003C54.9797 98.5079 52.7854 97.519 50.59 96.5296C47.3924 95.0886 44.1925 93.6466 41.0035 92.191L40.9867 92.1833L40.9702 92.1748C40.7883 92.0806 40.5864 92.0314 40.3815 92.0314C40.1766 92.0314 39.9747 92.0805 39.7927 92.1748L39.7761 92.1834L39.7591 92.1912C36.7317 93.5709 33.6928 94.9398 30.6557 96.3079C28.3274 97.3567 26.0002 98.4051 23.68 99.4575L23.6794 99.4577C22.4633 100.008 21.0418 100.328 19.6456 99.3353C19.2041 99.0462 18.839 98.6545 18.5818 98.1935C18.3215 97.7272 18.1795 97.2043 18.168 96.6704L18.1679 96.6654L18.1679 96.6618C18.1513 95.5244 18.1346 94.3807 18.1346 93.2384L79.0285 34.415ZM79.0285 34.415C77.7507 26.0354 74.0395 18.7739 68.0519 12.7806C62.368 7.00832 55.0127 3.1699 47.0269 1.80864C46.6126 1.73581 46.1765 1.69322 45.7761 1.65412C45.6191 1.63879 45.4676 1.62399 45.325 1.60811C44.7894 1.54848 44.3139 1.46946 43.8717 1.30451L43.7462 1.25769M79.0285 34.415L43.7462 1.25769M43.7462 1.25769H43.6123M43.7462 1.25769H43.6123M43.6123 1.25769H36.7771H36.2501M43.6123 1.25769H36.2501M36.2501 1.25769L36.182 1.45272M36.2501 1.25769L36.182 1.45272M36.182 1.45272C36.1664 1.45371 36.1504 1.45504 36.1338 1.45679M36.182 1.45272L36.1338 1.45679M36.1338 1.45679C32.2929 1.85787 28.5375 2.85281 25.0018 4.40607L25.0005 4.40664C17.1865 7.85721 11.0071 13.2257 6.67589 20.6512C1.79625 29.0052 0.172728 38.006 1.96727 47.4977C3.90682 57.7722 9.24965 66.0009 17.7254 72.1374L17.7436 72.1505L17.7625 72.1625C17.893 72.2455 17.9982 72.3628 18.0664 72.5015C18.1346 72.6402 18.1634 72.7951 18.1495 72.9491L18.1466 72.9811L18.1465 73.0133C18.1269 78.5668 18.1299 84.1206 18.1329 89.6739C18.1335 90.862 18.1341 92.0501 18.1346 93.2382L36.1338 1.45679ZM28.5336 89.445C27.46 89.9267 26.3861 90.4085 25.3123 90.8914V76.4133C35.366 80.4424 45.4076 80.4551 55.4689 76.4146L55.4586 90.8647L50.3633 88.5806L50.3618 88.5799C49.9 88.3741 49.4383 88.1689 48.9768 87.9638C46.7693 86.9825 44.5677 86.0038 42.3897 84.9796C41.7724 84.667 41.0902 84.5041 40.3981 84.5041C39.7072 84.5041 39.0261 84.6665 38.4096 84.9781C35.1283 86.4864 31.8323 87.9651 28.5336 89.445ZM39.8821 72.2522C22.6129 72.0802 8.40074 57.8689 8.45887 40.2582C8.517 22.6469 22.8646 8.35341 40.4198 8.40455C58.0919 8.45571 72.3556 22.7835 72.3184 40.4208C72.2788 58.1769 57.8633 72.4313 39.8821 72.2522Z" fill="url(#paint0_linear_407_5968)" stroke="url(#paint1_linear_407_5968)" stroke-width="1.48462"/>
<path d="M49.5808 25.2148L49.6157 25.2156C52.522 25.2872 55.4268 25.4008 58.325 25.5141C58.8065 25.5329 59.2878 25.5518 59.769 25.5704C61.1622 25.6177 62.3028 26.2705 62.9081 27.3135C63.5135 28.3564 63.5194 29.6781 62.8742 30.9335L49.5808 25.2148ZM49.5808 25.2148L49.546 25.2172M49.5808 25.2148L49.546 25.2172M49.546 25.2172C49.4179 25.2261 49.29 25.197 49.1784 25.1334C49.0668 25.0699 48.9764 24.9748 48.9186 24.8601L48.9052 24.8334M49.546 25.2172L48.9052 24.8334M48.9052 24.8334L48.8896 24.8079M48.9052 24.8334L48.8896 24.8079M48.8896 24.8079C47.6978 22.8514 46.4809 20.9078 45.267 18.9692C44.7072 18.0751 44.1481 17.1821 43.5924 16.2894L43.5917 16.2882M48.8896 24.8079L43.5917 16.2882M43.5917 16.2882C42.9036 15.1873 41.8912 14.3312 40.3939 14.362M43.5917 16.2882L40.3939 14.362M31.7638 24.9797L31.7838 24.9473C33.2989 22.489 34.8209 20.0514 36.3398 17.619C36.6038 17.1961 36.8678 16.7733 37.1317 16.3506L31.7638 24.9797ZM31.7638 24.9797L31.7473 25.0139M31.7638 24.9797L31.7473 25.0139M31.7473 25.0139C31.7171 25.0763 31.6693 25.1286 31.6096 25.1641C31.5501 25.1997 31.4814 25.2169 31.412 25.2138L31.3857 25.2126M31.7473 25.0139L31.3857 25.2126M31.3857 25.2126L31.3593 25.2133M31.3857 25.2126L31.3593 25.2133M31.3593 25.2133C28.0585 25.2981 24.7816 25.425 21.4991 25.5521L21.3937 25.5562C19.7814 25.6176 18.47 26.2044 17.8243 27.3498C17.1814 28.4903 17.345 29.9258 18.0978 31.3585L18.0991 31.3611M31.3593 25.2133L18.0991 31.3611M18.0991 31.3611C18.3969 31.9224 18.6943 32.4846 18.9918 33.0471C20.1662 35.2668 21.3436 37.4923 22.5555 39.6972M18.0991 31.3611L23.2062 39.3401M31.3465 55.4947L31.3176 55.4939C28.8779 55.4269 26.4355 55.3376 23.9975 55.2485C23.0533 55.214 22.1098 55.1795 21.1674 55.1464C19.7076 55.095 18.5112 54.4399 17.8791 53.3641C17.2461 52.2867 17.2582 50.922 17.9399 49.6168C19.4556 46.7138 20.987 43.8061 22.5863 40.9417M31.3465 55.4947L23.2062 39.3401M31.3465 55.4947L31.3753 55.4932M31.3465 55.4947L31.3753 55.4932M22.5863 40.9417C22.5864 40.9414 22.5865 40.9412 22.5866 40.941L23.2348 41.3029L22.5858 40.9425C22.5859 40.9422 22.5861 40.942 22.5863 40.9417ZM22.5863 40.9417C22.7438 40.6576 22.7786 40.4739 22.7739 40.3319C22.7689 40.1814 22.7167 39.9915 22.5555 39.6972M22.5555 39.6972C22.5555 39.6974 22.5556 39.6975 22.5557 39.6976L23.2062 39.3401M22.5555 39.6972C22.5554 39.6971 22.5553 39.6969 22.5552 39.6968L23.2062 39.3401M31.3753 55.4932C31.4617 55.4889 31.5474 55.5096 31.6221 55.5529C31.6969 55.5963 31.7575 55.6604 31.7966 55.7374L31.8103 55.7643M31.3753 55.4932L31.8103 55.7643M31.8103 55.7643L31.826 55.7899M31.8103 55.7643L31.826 55.7899M31.826 55.7899C33.5262 58.5574 35.2581 61.3083 36.9859 64.0527L37.0905 64.2188L37.0906 64.219M31.826 55.7899L37.0906 64.219M37.0906 64.219C37.9266 65.5459 39.0895 66.3492 40.3808 66.352C41.6725 66.3548 42.8351 65.556 43.6684 64.2363L43.6688 64.2356M37.0906 64.219L43.6688 64.2356M43.6688 64.2356C45.435 61.4316 47.1909 58.6229 48.9364 55.8093L48.9405 55.8027M43.6688 64.2356L48.9405 55.8027M48.9405 55.8027L48.9445 55.796M48.9405 55.8027L48.9445 55.796M48.9445 55.796C49.0484 55.6204 49.1052 55.5637 49.1372 55.5404L49.1378 55.54C49.1512 55.5301 49.1922 55.5001 49.3365 55.4963L49.3368 55.4963M48.9445 55.796L49.3368 55.4963M49.3368 55.4963C51.205 55.4459 53.0847 55.3773 54.9604 55.3089C56.4423 55.2548 57.9217 55.2008 59.3911 55.156C60.949 55.1115 62.2288 54.4989 62.8899 53.3855C63.5527 52.269 63.4719 50.854 62.7423 49.4672L62.742 49.4667L49.3368 55.4963ZM58.5766 38.9708L58.5752 38.9733C58.2423 39.5362 58.1189 39.9581 58.1191 40.3339C58.1193 40.7097 58.2432 41.1312 58.575 41.6933C58.5751 41.6934 58.5753 41.6936 58.5754 41.6938L57.9362 42.0713L58.5766 38.9708ZM58.5766 38.9708C59.9889 36.5613 61.2638 34.0746 62.5252 31.614M58.5766 38.9708L62.5252 31.614M33.615 32.2312L33.6139 32.2312C32.3568 32.262 31.0983 32.3093 29.8341 32.3616M33.615 32.2312L26.9346 31.7509C26.7562 31.7594 26.5765 31.7679 26.3955 31.7765C26.524 32.0197 26.6512 32.2613 26.7772 32.5015M33.615 32.2312C35.1088 32.1923 36.1312 31.414 36.8425 30.2737L36.8444 30.2707C37.3098 29.5166 37.7853 28.7589 38.2624 27.9985C38.9677 26.8746 39.6767 25.7447 40.3627 24.6118C40.9879 25.6614 41.6503 26.7132 42.3066 27.7554C42.8166 28.5651 43.323 29.3692 43.8055 30.1621L43.8059 30.1628C44.1793 30.7747 44.6393 31.2925 45.2245 31.6608C45.8144 32.0321 46.4922 32.2267 47.2599 32.2478C48.986 32.2952 50.7102 32.3685 52.4408 32.4422C52.9401 32.4634 53.44 32.4847 53.9407 32.5053C53.7629 32.8449 53.5872 33.1823 53.4125 33.5175C52.6268 35.0257 51.8632 36.4916 51.0338 37.9296L51.0335 37.9301C50.577 38.7229 50.3274 39.5189 50.3329 40.3461C50.3384 41.1722 50.598 41.9641 51.0535 42.7502C51.8936 44.201 52.6622 45.6816 53.4563 47.2113C53.6212 47.5289 53.7871 47.8485 53.955 48.1705C53.6431 48.1829 53.3329 48.1956 53.0241 48.2082C51.3333 48.2774 49.6853 48.3449 48.0297 48.3449C47.0897 48.3449 46.2273 48.5078 45.4613 48.9216C44.6905 49.338 44.0739 49.9781 43.5793 50.8398C42.761 52.2654 41.8864 53.643 40.9742 55.0797C40.7757 55.3924 40.5754 55.7079 40.3735 56.0272C40.119 55.6205 39.8672 55.2192 39.6179 54.8219C38.7069 53.37 37.8287 51.9704 36.9712 50.55C36.596 49.8626 36.0359 49.2939 35.354 48.9083C34.672 48.5226 33.8956 48.3358 33.113 48.3687H33.1002H33.0857H33.0711H33.0565H33.0419H33.0273H33.0128H32.9982H32.9836H32.969H32.9544H32.9399H32.9253H32.9107H32.8961H32.8815H32.8669H32.8524H32.8378H32.8232H32.8086H32.794H32.7794H32.7649H32.7503H32.7357H32.7211H32.7065H32.6919H32.6774H32.6628H32.6482H32.6336H32.619H32.6044H32.5898H32.5753H32.5607H32.5461H32.5315H32.5169H32.5023H32.4877H32.4731H32.4586H32.444H32.4294H32.4148H32.4002H32.3856H32.371H32.3564H32.3418H32.3272H32.3126H32.298H32.2834H32.2688H32.2543H32.2397H32.2251H32.2105H32.1959H32.1813H32.1667H32.1521H32.1375H32.1229H32.1083H32.0936H32.079H32.0644H32.0498H32.0352H32.0206H32.006H31.9914H31.9768H31.9622H31.9476H31.933H31.9183H31.9037H31.8891H31.8745H31.8599H31.8453H31.8307H31.816H31.8014H31.7868H31.7722H31.7576H31.7429H31.7283H31.7137H31.6991H31.6844H31.6698H31.6552H31.6405H31.6259H31.6113H31.5966H31.582H31.5674H31.5527H31.5381H31.5235H31.5088H31.4942H31.4795H31.4649H31.4503H31.4356H31.421H31.4063H31.3917H31.377H31.3624H31.3477H31.3331H31.3184H31.3038H31.2891H31.2744H31.2598H31.2451H31.2305H31.2158H31.2011H31.1865H31.1718H31.1571H31.1424H31.1278H31.1131H31.0984H31.0838H31.0691H31.0544H31.0397H31.025H31.0104H30.9957H30.981H30.9663H30.9516H30.9369H30.9222H30.9075H30.8928H30.8781H30.8634H30.8487H30.834H30.8193H30.8046H30.7899H30.7752H30.7605H30.7458H30.7311H30.7164H30.7016H30.6869H30.6722H30.6575H30.6428H30.628H30.6133H30.5986H30.5839H30.5691H30.5544H30.5397H30.5249H30.5102H30.4954H30.4807H30.4659H30.4512H30.4365H30.4217H30.4069H30.3922H30.3774H30.3627H30.3479H30.3332H30.3184H30.3036H30.2889H30.2741H30.2593H30.2445H30.2298H30.215H30.2002H30.1854H30.1706H30.1559H30.1411H30.1263H30.1115H30.0967H30.0819H30.0671H30.0523H30.0375H30.0227H30.0079H29.9931H29.9783H29.9634H29.9486H29.9338H29.919H29.9042H29.8893H29.8745H29.8597H29.8449H29.83H29.8152H29.8003H29.7855H29.7707H29.7558H29.741H29.7261H29.7113H29.6964H29.6816H29.6667H29.6518H29.637H29.6221H29.6072H29.5924H29.5775H29.5626H29.5477H29.5328H29.518H29.5031H29.4882H29.4733H29.4584H29.4435H29.4286H29.4137H29.3988H29.3839H29.369H29.354H29.3391H29.3242H29.3093H29.2944H29.2794H29.2645H29.2496H29.2346H29.2197H29.2048H29.1898H29.1749H29.1599H29.145H29.13H29.1151H29.1001H29.0851H29.0702H29.0552H29.0402H29.0253H29.0103H28.9953H28.9803H28.9653H28.9503H28.9353H28.9204H28.9054H28.8904H28.8754H28.8603H28.8453H28.8303H28.8153H28.8003H28.7853H28.7702H28.7552H28.7402H28.7251H28.7101H28.6951H28.68H28.665H28.6499H28.6349H28.6198H28.6048H28.5897H28.5746H28.5596H28.5445H28.5294H28.5143H28.4993H28.4842H28.4691H28.454H28.4389H28.4238H28.4087H28.3936H28.3785H28.3634H28.3483H28.3331H28.318H28.3029H28.2878H28.2726H28.2575H28.2424H28.2272H28.2121H28.1969H28.1818H28.1666H28.1515H28.1363H28.1211H28.106H28.0908H28.0756H28.0604H28.0453H28.0301H28.0149H27.9997H27.9845H27.9693H27.9541H27.9389H27.9237H27.9084H27.8932H27.878H27.8628H27.8475H27.8323H27.8171H27.8018H27.7866H27.7713H27.7561H27.7408H27.7256H27.7103H27.695H27.6798H27.6645H27.6492H27.6339H27.6186H27.6033H27.588H27.5727H27.5574H27.5421H27.5268H27.5115H27.4962H27.4809H27.4655H27.4502H27.4349H27.4195H27.4042H27.3888H27.3735H27.3581H27.3428H27.3274H27.312H27.2967H27.2813H27.2659H27.2505H27.2352H27.2198H27.2044H27.189H27.1736H27.1582H27.1427H27.1273H27.1119H27.0965H27.0811H27.0656H27.0502H27.0347H27.0193H27.0038H26.9884H26.9729H26.9575H26.942H26.9265H26.9111H26.8956H26.8801H26.8646H26.8491H26.8336H26.8181H26.8026H26.7871H26.7716H26.7561H26.7405H26.725H26.7095H26.6939H26.6784H26.6664M33.615 32.2312L26.2754 49.111C26.4079 48.8604 26.5381 48.6131 26.6664 48.3687M29.8341 32.3616L29.8034 31.62L29.8343 32.3616C29.8342 32.3616 29.8342 32.3616 29.8341 32.3616ZM29.8341 32.3616C28.8918 32.4008 27.952 32.4456 26.9728 32.4922C26.9078 32.4953 26.8426 32.4984 26.7772 32.5015M26.7772 32.5015C26.9492 32.8294 27.1191 33.1547 27.2877 33.4775C28.092 35.0169 28.8674 36.5011 29.7045 37.9587M26.7772 32.5015C26.5079 32.5143 26.2354 32.5273 25.959 32.5402C26.1827 32.9655 26.4032 33.3876 26.6222 33.8068L29.7045 37.9587M29.7045 37.9587C30.1524 38.7344 30.3997 39.5163 30.3985 40.3293C30.3974 41.142 30.1482 41.9222 29.7053 42.6948M29.7045 37.9587L26.5802 46.9328C26.335 47.4019 26.085 47.8799 25.8277 48.3687H25.8321H25.8479H25.8637H25.8795H25.8953H25.9111H25.9269H25.9426H25.9584H25.9742H25.9899H26.0057H26.0214H26.0371H26.0529H26.0686H26.0843H26.1001H26.1158H26.1315H26.1472H26.1629H26.1786H26.1943H26.21H26.2257H26.2413H26.257H26.2727H26.2883H26.304H26.3196H26.3353H26.3509H26.3666H26.3822H26.3978H26.4135H26.4291H26.4447H26.4603H26.4759H26.4915H26.5071H26.5227H26.5383H26.5539H26.5695H26.585H26.6006H26.6162H26.6317H26.6473H26.6628H26.6664M29.7053 42.6948C29.7053 42.6949 29.7052 42.695 29.7051 42.6951L29.0612 42.3259L29.7056 42.6943C29.7055 42.6945 29.7054 42.6946 29.7053 42.6948ZM29.7053 42.6948C28.8672 44.1606 28.0875 45.652 27.2454 47.2628C27.056 47.625 26.8634 47.9933 26.6664 48.3687M40.3939 14.362C38.7815 14.3651 37.8077 15.267 37.1318 16.3505L40.3939 14.362ZM62.5252 31.614C62.6416 31.387 62.7578 31.1602 62.8741 30.9337L62.5252 31.614Z" fill="url(#paint2_linear_407_5968)" stroke="url(#paint3_linear_407_5968)" stroke-width="1.48462"/>
<defs>
<linearGradient id="paint0_linear_407_5968" x1="-17.2283" y1="-34.044" x2="112.788" y2="149.275" gradientUnits="userSpaceOnUse">
<stop offset="0.17162" stop-color="#A100FF"/>
<stop offset="0.476152" stop-color="#0AA8D1"/>
<stop offset="0.876275" stop-color="#7EF5FF"/>
</linearGradient>
<linearGradient id="paint1_linear_407_5968" x1="-17.2283" y1="-34.044" x2="112.788" y2="149.275" gradientUnits="userSpaceOnUse">
<stop offset="0.17162" stop-color="#A100FF"/>
<stop offset="0.476152" stop-color="#0AA8D1"/>
<stop offset="0.876275" stop-color="#7EF5FF"/>
</linearGradient>
<linearGradient id="paint2_linear_407_5968" x1="7.02087" y1="-3.61862" x2="71.8293" y2="98.2804" gradientUnits="userSpaceOnUse">
<stop offset="0.17162" stop-color="#A100FF"/>
<stop offset="0.476152" stop-color="#0AA8D1"/>
<stop offset="0.876275" stop-color="#7EF5FF"/>
</linearGradient>
<linearGradient id="paint3_linear_407_5968" x1="7.02087" y1="-3.61862" x2="71.8293" y2="98.2804" gradientUnits="userSpaceOnUse">
<stop offset="0.17162" stop-color="#A100FF"/>
<stop offset="0.476152" stop-color="#0AA8D1"/>
<stop offset="0.876275" stop-color="#7EF5FF"/>
</linearGradient>
</defs>
</svg>
