<svg width="97" height="101" viewBox="0 0 97 101" fill="none" xmlns="http://www.w3.org/2000/svg">
<path d="M45.972 88.7776L45.9723 88.859L45.9954 88.937C46.1151 89.3411 46.3319 89.7098 46.6267 90.0109C46.9216 90.3121 47.2857 90.5365 47.6872 90.6646L47.6896 90.6653C48.4386 90.9006 49.1626 90.8433 49.763 90.3897C50.3315 89.9602 50.6956 89.2433 50.9203 88.3662L50.9636 88.1972L50.9048 88.0331C50.6332 87.2748 50.2791 86.6617 49.7597 86.2819C49.2149 85.8836 48.5782 85.805 47.8931 85.9329C47.2681 86.0488 46.7593 86.3672 46.4232 86.894C46.0996 87.401 45.9693 88.0486 45.972 88.7776Z" fill="url(#paint0_linear_407_5965)" stroke="url(#paint1_linear_407_5965)" stroke-width="1.13808"/>
<mask id="path-2-outside-1_407_5965" maskUnits="userSpaceOnUse" x="0" y="0" width="97" height="101" fill="black">
<rect fill="white" width="97" height="101"/>
<path d="M95.2326 90.062C95.0651 87.9539 93.6446 86.6525 91.5238 86.4318C90.705 86.3549 89.8813 86.3439 89.0606 86.3989C88.3605 86.4394 88.0712 86.2872 88.1143 85.4983C88.1879 84.1107 88.1626 82.7078 88.1143 81.3228C88.0687 79.6561 87.2417 78.479 85.7374 77.7586C84.9054 77.3603 84.0175 77.3553 83.1398 77.4212C82.4168 77.477 82.2012 77.2792 82.2037 76.513C82.2342 67.7849 82.2342 59.055 82.2037 50.3234C82.2037 49.1463 82.1326 48.0733 83.5532 47.6522C83.8069 47.5786 84.0023 47.3072 84.2027 47.1067C85.7856 45.501 86.1585 43.5756 85.6258 41.3457C87.4244 41.3457 89.1596 41.3813 90.8947 41.3457C91.9321 41.3126 92.926 40.9212 93.7076 40.2382C94.4891 39.5551 95.0101 38.6226 95.1818 37.5989C95.4152 36.3305 95.2934 35.0621 95.3011 33.8141C95.3011 31.832 94.4622 30.3023 92.7846 29.225C79.2991 20.5848 65.8178 11.942 52.3408 3.29664C49.5504 1.5209 46.7599 1.58432 44.0075 3.39304C37.0956 7.92372 30.182 12.4536 23.2668 16.9825C17.0365 21.0583 10.8045 25.1315 4.57078 29.2022C3.13243 30.1408 2.19888 31.3889 2.08726 33.119C1.97946 34.4427 1.97946 35.7729 2.08726 37.0966C2.34094 39.7298 4.20803 41.3305 6.86657 41.3559C7.90919 41.3559 8.9543 41.3889 9.99691 41.3559C10.6032 41.3305 10.8188 41.4497 10.6844 42.1169C10.4362 43.2672 10.5735 44.4673 11.0751 45.5318C11.5767 46.5964 12.4146 47.4663 13.4596 48.0073C13.7095 48.1144 13.9182 48.2989 14.0553 48.5337C14.1923 48.7685 14.2503 49.041 14.2207 49.3112C14.197 58.1054 14.1919 66.8995 14.2054 75.6937C14.2054 77.4111 14.2055 77.4111 12.5033 77.4212C9.99948 77.4339 8.2897 79.131 8.26434 81.6399C8.26434 82.5252 8.26434 83.4156 8.26434 84.2959C8.26434 84.9554 8.47231 85.7926 8.15267 86.2289C7.80513 86.7033 6.92236 86.3633 6.27548 86.3913C3.6626 86.5054 2.0619 88.1239 2.03146 90.7342C2.01878 91.8428 2.0898 92.9539 2.01877 94.0548C1.86149 96.4724 2.67835 98.2837 5.01725 99.2349H92.3229C93.9211 98.5069 95.1692 97.4465 95.2605 95.5718C95.3697 93.7365 95.3604 91.8961 95.2326 90.062ZM7.39164 37.5507C5.9609 37.5507 6.04719 37.4569 5.85186 36.0616C5.51954 33.7075 6.50885 32.4264 8.47485 31.1631C21.0192 23.0936 33.4747 14.8821 45.9379 6.68832C47.5031 5.65839 48.9237 5.63301 50.5041 6.64519C63.8391 15.2313 77.1859 23.8006 90.5446 32.3529C91.1712 32.7537 91.4908 33.2128 91.4502 33.9663C91.4097 34.7197 91.4122 35.5492 91.4502 36.3381C91.4908 37.2235 91.1433 37.5685 90.2275 37.5634C83.7435 37.538 77.2621 37.5507 70.7781 37.5507H7.39164ZM78.4213 76.3634C78.4213 77.2107 78.2412 77.5049 77.3483 77.4567C75.8668 77.3755 74.3752 77.3958 72.8937 77.4567C72.1834 77.4846 71.9982 77.2918 72.0033 76.5765C72.0388 71.645 72.0211 66.7135 72.0211 61.782C72.0211 56.9469 72.0211 52.111 72.0211 47.2742C72.0211 45.709 71.5721 45.1864 70.0525 44.9378C68.982 44.7602 68.3605 44.0728 68.3909 43.0961C68.3921 42.8653 68.4398 42.6371 68.5311 42.4252C68.6224 42.2133 68.7555 42.0219 68.9224 41.8625C69.0894 41.7032 69.2867 41.5791 69.5027 41.4977C69.7186 41.4163 69.9488 41.3793 70.1794 41.3889C73.5313 41.3533 76.8816 41.3533 80.2301 41.3889C80.696 41.3751 81.1487 41.545 81.4904 41.8621C81.8321 42.1791 82.0355 42.6178 82.0566 43.0834C82.1022 44.0119 81.43 44.7628 80.3924 44.9378C78.8196 45.1915 78.4036 45.6988 78.4036 47.3528C78.4019 57.0078 78.4078 66.6712 78.4213 76.3431V76.3634ZM55.2276 49.0804C55.2276 48.6314 55.3164 48.3675 55.7679 48.1265C58.1804 46.8353 59.1799 44.7247 58.736 41.9825C58.6751 41.5969 58.6319 41.3356 59.1926 41.3457C61.0241 41.3787 62.8557 41.3584 64.7735 41.3584C64.1393 44.6055 65.0018 46.5309 67.8684 48.2077C68.3377 48.4842 68.2108 48.8267 68.2108 49.1666C68.221 55.424 68.221 61.6814 68.2108 67.9388C68.2108 70.8459 68.1956 73.7556 68.2108 76.6627C68.2108 77.2284 68.1018 77.4085 67.4955 77.4035C63.6362 77.3713 59.7794 77.3713 55.9252 77.4035C55.319 77.4035 55.2073 77.2208 55.2073 76.6576C55.2361 67.4728 55.2428 58.2804 55.2276 49.0804ZM51.3819 76.4116C51.3819 77.2563 51.1764 77.477 50.3469 77.4263C48.8654 77.3527 47.3738 77.3578 45.8923 77.4263C45.1439 77.4593 45.0273 77.2005 45.0323 76.5257C45.0602 71.6247 45.0476 66.7236 45.0476 61.8124V47.297C45.0476 45.6963 44.5884 45.1534 43.0308 44.8896C41.9679 44.707 41.3616 44.0093 41.4047 43.0175C41.4479 42.0256 42.148 41.3508 43.221 41.3407C46.5425 41.3102 49.8632 41.3102 53.183 41.3407C53.6477 41.3233 54.1013 41.4853 54.4498 41.7933C54.7983 42.1012 55.0151 42.5313 55.0551 42.9946C55.1338 43.8952 54.4387 44.707 53.4265 44.8896C51.8106 45.1813 51.3616 45.7065 51.3616 47.368C51.359 57.0611 51.3489 66.7363 51.3819 76.4116ZM28.1907 49.0829C28.1907 48.7506 28.1501 48.4614 28.5509 48.2229C31.4428 46.5131 32.247 44.7349 31.6559 41.3736H37.7644C37.1632 44.7247 37.9141 46.4066 40.9075 48.2356C41.3718 48.5223 41.2297 48.8698 41.2297 49.2047C41.2399 57.647 41.2399 66.0886 41.2297 74.5293C41.2297 75.4654 41.6432 76.7135 41.0522 77.2462C40.5448 77.7104 39.3093 77.3933 38.3986 77.3933C35.2683 77.3933 32.1379 77.3781 29.0126 77.4136C28.3454 77.4136 28.178 77.2411 28.1805 76.579C28.2008 67.4179 28.2042 58.2525 28.1907 49.0829ZM24.3855 76.4572C24.3855 77.2462 24.2054 77.472 23.4114 77.4364C21.8893 77.3654 20.3672 77.3781 18.8578 77.4364C18.1678 77.4618 18.041 77.2284 18.0436 76.5866C18.0689 71.6856 18.0588 66.7845 18.0588 61.8733C18.0588 57.0365 18.0588 52.1989 18.0588 47.3604C18.0588 45.7242 17.6098 45.2016 15.9761 44.8997C15.0045 44.7196 14.3322 43.9637 14.3602 43.0834C14.3734 42.6169 14.5699 42.1744 14.907 41.8515C15.244 41.5287 15.6946 41.3516 16.1613 41.3584C19.5115 41.3263 22.8634 41.3263 26.217 41.3584C26.4477 41.3475 26.6783 41.3832 26.8949 41.4633C27.1115 41.5434 27.3098 41.6663 27.4779 41.8247C27.646 41.983 27.7804 42.1736 27.8732 42.3851C27.9661 42.5966 28.0154 42.8246 28.0182 43.0555C28.0537 44.0398 27.4373 44.7323 26.3718 44.9074C24.87 45.161 24.3703 45.7267 24.3703 47.2387C24.3703 56.9799 24.377 66.7194 24.3906 76.4572H24.3855ZM91.4452 91.4242C91.3868 92.5303 91.3868 93.6387 91.4452 94.7449C91.4629 95.2903 91.2752 95.5059 90.7399 95.4247C90.582 95.4133 90.4235 95.4133 90.2656 95.4247C62.5302 95.4247 34.7905 95.4323 7.04667 95.4475C6.0827 95.4475 5.79093 95.2218 5.86703 94.2629C5.92919 93.1257 5.93429 91.9861 5.88227 90.8484C5.88227 90.4095 5.99644 90.2066 6.46574 90.2421C6.87416 90.275 7.28762 90.2421 7.69858 90.2421H39.3906C40.9684 90.2421 41.5468 89.7575 41.8538 88.2127C41.3667 86.7185 40.9481 86.4192 39.284 86.4192C30.5854 86.4192 21.8868 86.4065 13.1907 86.4344C12.3409 86.4344 11.9984 86.2568 12.0745 85.3461C12.1511 84.3328 12.1511 83.3152 12.0745 82.302C12.0162 81.4547 12.247 81.168 13.1577 81.1782C17.6174 81.2315 22.077 81.2035 26.5367 81.2035C45.4204 81.2035 64.3042 81.1968 83.188 81.1833C84.0733 81.1833 84.4335 81.3583 84.3524 82.307C84.275 83.3491 84.275 84.3954 84.3524 85.4374C84.4056 86.2492 84.0987 86.4268 83.3376 86.4242C75.5878 86.3963 67.8379 86.4065 60.0881 86.4065C59.1089 86.4065 58.1272 86.3938 57.1454 86.4065C55.5802 86.4318 54.9689 87.0204 54.8877 88.5551C55.2986 89.859 55.8314 90.2218 57.3661 90.2243C68.3402 90.2243 79.3168 90.2395 90.2909 90.1964C91.3006 90.2192 91.5162 90.5135 91.4502 91.4293L91.4452 91.4242Z"/>
</mask>
<path d="M95.2326 90.062C95.0651 87.9539 93.6446 86.6525 91.5238 86.4318C90.705 86.3549 89.8813 86.3439 89.0606 86.3989C88.3605 86.4394 88.0712 86.2872 88.1143 85.4983C88.1879 84.1107 88.1626 82.7078 88.1143 81.3228C88.0687 79.6561 87.2417 78.479 85.7374 77.7586C84.9054 77.3603 84.0175 77.3553 83.1398 77.4212C82.4168 77.477 82.2012 77.2792 82.2037 76.513C82.2342 67.7849 82.2342 59.055 82.2037 50.3234C82.2037 49.1463 82.1326 48.0733 83.5532 47.6522C83.8069 47.5786 84.0023 47.3072 84.2027 47.1067C85.7856 45.501 86.1585 43.5756 85.6258 41.3457C87.4244 41.3457 89.1596 41.3813 90.8947 41.3457C91.9321 41.3126 92.926 40.9212 93.7076 40.2382C94.4891 39.5551 95.0101 38.6226 95.1818 37.5989C95.4152 36.3305 95.2934 35.0621 95.3011 33.8141C95.3011 31.832 94.4622 30.3023 92.7846 29.225C79.2991 20.5848 65.8178 11.942 52.3408 3.29664C49.5504 1.5209 46.7599 1.58432 44.0075 3.39304C37.0956 7.92372 30.182 12.4536 23.2668 16.9825C17.0365 21.0583 10.8045 25.1315 4.57078 29.2022C3.13243 30.1408 2.19888 31.3889 2.08726 33.119C1.97946 34.4427 1.97946 35.7729 2.08726 37.0966C2.34094 39.7298 4.20803 41.3305 6.86657 41.3559C7.90919 41.3559 8.9543 41.3889 9.99691 41.3559C10.6032 41.3305 10.8188 41.4497 10.6844 42.1169C10.4362 43.2672 10.5735 44.4673 11.0751 45.5318C11.5767 46.5964 12.4146 47.4663 13.4596 48.0073C13.7095 48.1144 13.9182 48.2989 14.0553 48.5337C14.1923 48.7685 14.2503 49.041 14.2207 49.3112C14.197 58.1054 14.1919 66.8995 14.2054 75.6937C14.2054 77.4111 14.2055 77.4111 12.5033 77.4212C9.99948 77.4339 8.2897 79.131 8.26434 81.6399C8.26434 82.5252 8.26434 83.4156 8.26434 84.2959C8.26434 84.9554 8.47231 85.7926 8.15267 86.2289C7.80513 86.7033 6.92236 86.3633 6.27548 86.3913C3.6626 86.5054 2.0619 88.1239 2.03146 90.7342C2.01878 91.8428 2.0898 92.9539 2.01877 94.0548C1.86149 96.4724 2.67835 98.2837 5.01725 99.2349H92.3229C93.9211 98.5069 95.1692 97.4465 95.2605 95.5718C95.3697 93.7365 95.3604 91.8961 95.2326 90.062ZM7.39164 37.5507C5.9609 37.5507 6.04719 37.4569 5.85186 36.0616C5.51954 33.7075 6.50885 32.4264 8.47485 31.1631C21.0192 23.0936 33.4747 14.8821 45.9379 6.68832C47.5031 5.65839 48.9237 5.63301 50.5041 6.64519C63.8391 15.2313 77.1859 23.8006 90.5446 32.3529C91.1712 32.7537 91.4908 33.2128 91.4502 33.9663C91.4097 34.7197 91.4122 35.5492 91.4502 36.3381C91.4908 37.2235 91.1433 37.5685 90.2275 37.5634C83.7435 37.538 77.2621 37.5507 70.7781 37.5507H7.39164ZM78.4213 76.3634C78.4213 77.2107 78.2412 77.5049 77.3483 77.4567C75.8668 77.3755 74.3752 77.3958 72.8937 77.4567C72.1834 77.4846 71.9982 77.2918 72.0033 76.5765C72.0388 71.645 72.0211 66.7135 72.0211 61.782C72.0211 56.9469 72.0211 52.111 72.0211 47.2742C72.0211 45.709 71.5721 45.1864 70.0525 44.9378C68.982 44.7602 68.3605 44.0728 68.3909 43.0961C68.3921 42.8653 68.4398 42.6371 68.5311 42.4252C68.6224 42.2133 68.7555 42.0219 68.9224 41.8625C69.0894 41.7032 69.2867 41.5791 69.5027 41.4977C69.7186 41.4163 69.9488 41.3793 70.1794 41.3889C73.5313 41.3533 76.8816 41.3533 80.2301 41.3889C80.696 41.3751 81.1487 41.545 81.4904 41.8621C81.8321 42.1791 82.0355 42.6178 82.0566 43.0834C82.1022 44.0119 81.43 44.7628 80.3924 44.9378C78.8196 45.1915 78.4036 45.6988 78.4036 47.3528C78.4019 57.0078 78.4078 66.6712 78.4213 76.3431V76.3634ZM55.2276 49.0804C55.2276 48.6314 55.3164 48.3675 55.7679 48.1265C58.1804 46.8353 59.1799 44.7247 58.736 41.9825C58.6751 41.5969 58.6319 41.3356 59.1926 41.3457C61.0241 41.3787 62.8557 41.3584 64.7735 41.3584C64.1393 44.6055 65.0018 46.5309 67.8684 48.2077C68.3377 48.4842 68.2108 48.8267 68.2108 49.1666C68.221 55.424 68.221 61.6814 68.2108 67.9388C68.2108 70.8459 68.1956 73.7556 68.2108 76.6627C68.2108 77.2284 68.1018 77.4085 67.4955 77.4035C63.6362 77.3713 59.7794 77.3713 55.9252 77.4035C55.319 77.4035 55.2073 77.2208 55.2073 76.6576C55.2361 67.4728 55.2428 58.2804 55.2276 49.0804ZM51.3819 76.4116C51.3819 77.2563 51.1764 77.477 50.3469 77.4263C48.8654 77.3527 47.3738 77.3578 45.8923 77.4263C45.1439 77.4593 45.0273 77.2005 45.0323 76.5257C45.0602 71.6247 45.0476 66.7236 45.0476 61.8124V47.297C45.0476 45.6963 44.5884 45.1534 43.0308 44.8896C41.9679 44.707 41.3616 44.0093 41.4047 43.0175C41.4479 42.0256 42.148 41.3508 43.221 41.3407C46.5425 41.3102 49.8632 41.3102 53.183 41.3407C53.6477 41.3233 54.1013 41.4853 54.4498 41.7933C54.7983 42.1012 55.0151 42.5313 55.0551 42.9946C55.1338 43.8952 54.4387 44.707 53.4265 44.8896C51.8106 45.1813 51.3616 45.7065 51.3616 47.368C51.359 57.0611 51.3489 66.7363 51.3819 76.4116ZM28.1907 49.0829C28.1907 48.7506 28.1501 48.4614 28.5509 48.2229C31.4428 46.5131 32.247 44.7349 31.6559 41.3736H37.7644C37.1632 44.7247 37.9141 46.4066 40.9075 48.2356C41.3718 48.5223 41.2297 48.8698 41.2297 49.2047C41.2399 57.647 41.2399 66.0886 41.2297 74.5293C41.2297 75.4654 41.6432 76.7135 41.0522 77.2462C40.5448 77.7104 39.3093 77.3933 38.3986 77.3933C35.2683 77.3933 32.1379 77.3781 29.0126 77.4136C28.3454 77.4136 28.178 77.2411 28.1805 76.579C28.2008 67.4179 28.2042 58.2525 28.1907 49.0829ZM24.3855 76.4572C24.3855 77.2462 24.2054 77.472 23.4114 77.4364C21.8893 77.3654 20.3672 77.3781 18.8578 77.4364C18.1678 77.4618 18.041 77.2284 18.0436 76.5866C18.0689 71.6856 18.0588 66.7845 18.0588 61.8733C18.0588 57.0365 18.0588 52.1989 18.0588 47.3604C18.0588 45.7242 17.6098 45.2016 15.9761 44.8997C15.0045 44.7196 14.3322 43.9637 14.3602 43.0834C14.3734 42.6169 14.5699 42.1744 14.907 41.8515C15.244 41.5287 15.6946 41.3516 16.1613 41.3584C19.5115 41.3263 22.8634 41.3263 26.217 41.3584C26.4477 41.3475 26.6783 41.3832 26.8949 41.4633C27.1115 41.5434 27.3098 41.6663 27.4779 41.8247C27.646 41.983 27.7804 42.1736 27.8732 42.3851C27.9661 42.5966 28.0154 42.8246 28.0182 43.0555C28.0537 44.0398 27.4373 44.7323 26.3718 44.9074C24.87 45.161 24.3703 45.7267 24.3703 47.2387C24.3703 56.9799 24.377 66.7194 24.3906 76.4572H24.3855ZM91.4452 91.4242C91.3868 92.5303 91.3868 93.6387 91.4452 94.7449C91.4629 95.2903 91.2752 95.5059 90.7399 95.4247C90.582 95.4133 90.4235 95.4133 90.2656 95.4247C62.5302 95.4247 34.7905 95.4323 7.04667 95.4475C6.0827 95.4475 5.79093 95.2218 5.86703 94.2629C5.92919 93.1257 5.93429 91.9861 5.88227 90.8484C5.88227 90.4095 5.99644 90.2066 6.46574 90.2421C6.87416 90.275 7.28762 90.2421 7.69858 90.2421H39.3906C40.9684 90.2421 41.5468 89.7575 41.8538 88.2127C41.3667 86.7185 40.9481 86.4192 39.284 86.4192C30.5854 86.4192 21.8868 86.4065 13.1907 86.4344C12.3409 86.4344 11.9984 86.2568 12.0745 85.3461C12.1511 84.3328 12.1511 83.3152 12.0745 82.302C12.0162 81.4547 12.247 81.168 13.1577 81.1782C17.6174 81.2315 22.077 81.2035 26.5367 81.2035C45.4204 81.2035 64.3042 81.1968 83.188 81.1833C84.0733 81.1833 84.4335 81.3583 84.3524 82.307C84.275 83.3491 84.275 84.3954 84.3524 85.4374C84.4056 86.2492 84.0987 86.4268 83.3376 86.4242C75.5878 86.3963 67.8379 86.4065 60.0881 86.4065C59.1089 86.4065 58.1272 86.3938 57.1454 86.4065C55.5802 86.4318 54.9689 87.0204 54.8877 88.5551C55.2986 89.859 55.8314 90.2218 57.3661 90.2243C68.3402 90.2243 79.3168 90.2395 90.2909 90.1964C91.3006 90.2192 91.5162 90.5135 91.4502 91.4293L91.4452 91.4242Z" fill="url(#paint2_linear_407_5965)"/>
<path d="M95.2326 90.062C95.0651 87.9539 93.6446 86.6525 91.5238 86.4318C90.705 86.3549 89.8813 86.3439 89.0606 86.3989C88.3605 86.4394 88.0712 86.2872 88.1143 85.4983C88.1879 84.1107 88.1626 82.7078 88.1143 81.3228C88.0687 79.6561 87.2417 78.479 85.7374 77.7586C84.9054 77.3603 84.0175 77.3553 83.1398 77.4212C82.4168 77.477 82.2012 77.2792 82.2037 76.513C82.2342 67.7849 82.2342 59.055 82.2037 50.3234C82.2037 49.1463 82.1326 48.0733 83.5532 47.6522C83.8069 47.5786 84.0023 47.3072 84.2027 47.1067C85.7856 45.501 86.1585 43.5756 85.6258 41.3457C87.4244 41.3457 89.1596 41.3813 90.8947 41.3457C91.9321 41.3126 92.926 40.9212 93.7076 40.2382C94.4891 39.5551 95.0101 38.6226 95.1818 37.5989C95.4152 36.3305 95.2934 35.0621 95.3011 33.8141C95.3011 31.832 94.4622 30.3023 92.7846 29.225C79.2991 20.5848 65.8178 11.942 52.3408 3.29664C49.5504 1.5209 46.7599 1.58432 44.0075 3.39304C37.0956 7.92372 30.182 12.4536 23.2668 16.9825C17.0365 21.0583 10.8045 25.1315 4.57078 29.2022C3.13243 30.1408 2.19888 31.3889 2.08726 33.119C1.97946 34.4427 1.97946 35.7729 2.08726 37.0966C2.34094 39.7298 4.20803 41.3305 6.86657 41.3559C7.90919 41.3559 8.9543 41.3889 9.99691 41.3559C10.6032 41.3305 10.8188 41.4497 10.6844 42.1169C10.4362 43.2672 10.5735 44.4673 11.0751 45.5318C11.5767 46.5964 12.4146 47.4663 13.4596 48.0073C13.7095 48.1144 13.9182 48.2989 14.0553 48.5337C14.1923 48.7685 14.2503 49.041 14.2207 49.3112C14.197 58.1054 14.1919 66.8995 14.2054 75.6937C14.2054 77.4111 14.2055 77.4111 12.5033 77.4212C9.99948 77.4339 8.2897 79.131 8.26434 81.6399C8.26434 82.5252 8.26434 83.4156 8.26434 84.2959C8.26434 84.9554 8.47231 85.7926 8.15267 86.2289C7.80513 86.7033 6.92236 86.3633 6.27548 86.3913C3.6626 86.5054 2.0619 88.1239 2.03146 90.7342C2.01878 91.8428 2.0898 92.9539 2.01877 94.0548C1.86149 96.4724 2.67835 98.2837 5.01725 99.2349H92.3229C93.9211 98.5069 95.1692 97.4465 95.2605 95.5718C95.3697 93.7365 95.3604 91.8961 95.2326 90.062ZM7.39164 37.5507C5.9609 37.5507 6.04719 37.4569 5.85186 36.0616C5.51954 33.7075 6.50885 32.4264 8.47485 31.1631C21.0192 23.0936 33.4747 14.8821 45.9379 6.68832C47.5031 5.65839 48.9237 5.63301 50.5041 6.64519C63.8391 15.2313 77.1859 23.8006 90.5446 32.3529C91.1712 32.7537 91.4908 33.2128 91.4502 33.9663C91.4097 34.7197 91.4122 35.5492 91.4502 36.3381C91.4908 37.2235 91.1433 37.5685 90.2275 37.5634C83.7435 37.538 77.2621 37.5507 70.7781 37.5507H7.39164ZM78.4213 76.3634C78.4213 77.2107 78.2412 77.5049 77.3483 77.4567C75.8668 77.3755 74.3752 77.3958 72.8937 77.4567C72.1834 77.4846 71.9982 77.2918 72.0033 76.5765C72.0388 71.645 72.0211 66.7135 72.0211 61.782C72.0211 56.9469 72.0211 52.111 72.0211 47.2742C72.0211 45.709 71.5721 45.1864 70.0525 44.9378C68.982 44.7602 68.3605 44.0728 68.3909 43.0961C68.3921 42.8653 68.4398 42.6371 68.5311 42.4252C68.6224 42.2133 68.7555 42.0219 68.9224 41.8625C69.0894 41.7032 69.2867 41.5791 69.5027 41.4977C69.7186 41.4163 69.9488 41.3793 70.1794 41.3889C73.5313 41.3533 76.8816 41.3533 80.2301 41.3889C80.696 41.3751 81.1487 41.545 81.4904 41.8621C81.8321 42.1791 82.0355 42.6178 82.0566 43.0834C82.1022 44.0119 81.43 44.7628 80.3924 44.9378C78.8196 45.1915 78.4036 45.6988 78.4036 47.3528C78.4019 57.0078 78.4078 66.6712 78.4213 76.3431V76.3634ZM55.2276 49.0804C55.2276 48.6314 55.3164 48.3675 55.7679 48.1265C58.1804 46.8353 59.1799 44.7247 58.736 41.9825C58.6751 41.5969 58.6319 41.3356 59.1926 41.3457C61.0241 41.3787 62.8557 41.3584 64.7735 41.3584C64.1393 44.6055 65.0018 46.5309 67.8684 48.2077C68.3377 48.4842 68.2108 48.8267 68.2108 49.1666C68.221 55.424 68.221 61.6814 68.2108 67.9388C68.2108 70.8459 68.1956 73.7556 68.2108 76.6627C68.2108 77.2284 68.1018 77.4085 67.4955 77.4035C63.6362 77.3713 59.7794 77.3713 55.9252 77.4035C55.319 77.4035 55.2073 77.2208 55.2073 76.6576C55.2361 67.4728 55.2428 58.2804 55.2276 49.0804ZM51.3819 76.4116C51.3819 77.2563 51.1764 77.477 50.3469 77.4263C48.8654 77.3527 47.3738 77.3578 45.8923 77.4263C45.1439 77.4593 45.0273 77.2005 45.0323 76.5257C45.0602 71.6247 45.0476 66.7236 45.0476 61.8124V47.297C45.0476 45.6963 44.5884 45.1534 43.0308 44.8896C41.9679 44.707 41.3616 44.0093 41.4047 43.0175C41.4479 42.0256 42.148 41.3508 43.221 41.3407C46.5425 41.3102 49.8632 41.3102 53.183 41.3407C53.6477 41.3233 54.1013 41.4853 54.4498 41.7933C54.7983 42.1012 55.0151 42.5313 55.0551 42.9946C55.1338 43.8952 54.4387 44.707 53.4265 44.8896C51.8106 45.1813 51.3616 45.7065 51.3616 47.368C51.359 57.0611 51.3489 66.7363 51.3819 76.4116ZM28.1907 49.0829C28.1907 48.7506 28.1501 48.4614 28.5509 48.2229C31.4428 46.5131 32.247 44.7349 31.6559 41.3736H37.7644C37.1632 44.7247 37.9141 46.4066 40.9075 48.2356C41.3718 48.5223 41.2297 48.8698 41.2297 49.2047C41.2399 57.647 41.2399 66.0886 41.2297 74.5293C41.2297 75.4654 41.6432 76.7135 41.0522 77.2462C40.5448 77.7104 39.3093 77.3933 38.3986 77.3933C35.2683 77.3933 32.1379 77.3781 29.0126 77.4136C28.3454 77.4136 28.178 77.2411 28.1805 76.579C28.2008 67.4179 28.2042 58.2525 28.1907 49.0829ZM24.3855 76.4572C24.3855 77.2462 24.2054 77.472 23.4114 77.4364C21.8893 77.3654 20.3672 77.3781 18.8578 77.4364C18.1678 77.4618 18.041 77.2284 18.0436 76.5866C18.0689 71.6856 18.0588 66.7845 18.0588 61.8733C18.0588 57.0365 18.0588 52.1989 18.0588 47.3604C18.0588 45.7242 17.6098 45.2016 15.9761 44.8997C15.0045 44.7196 14.3322 43.9637 14.3602 43.0834C14.3734 42.6169 14.5699 42.1744 14.907 41.8515C15.244 41.5287 15.6946 41.3516 16.1613 41.3584C19.5115 41.3263 22.8634 41.3263 26.217 41.3584C26.4477 41.3475 26.6783 41.3832 26.8949 41.4633C27.1115 41.5434 27.3098 41.6663 27.4779 41.8247C27.646 41.983 27.7804 42.1736 27.8732 42.3851C27.9661 42.5966 28.0154 42.8246 28.0182 43.0555C28.0537 44.0398 27.4373 44.7323 26.3718 44.9074C24.87 45.161 24.3703 45.7267 24.3703 47.2387C24.3703 56.9799 24.377 66.7194 24.3906 76.4572H24.3855ZM91.4452 91.4242C91.3868 92.5303 91.3868 93.6387 91.4452 94.7449C91.4629 95.2903 91.2752 95.5059 90.7399 95.4247C90.582 95.4133 90.4235 95.4133 90.2656 95.4247C62.5302 95.4247 34.7905 95.4323 7.04667 95.4475C6.0827 95.4475 5.79093 95.2218 5.86703 94.2629C5.92919 93.1257 5.93429 91.9861 5.88227 90.8484C5.88227 90.4095 5.99644 90.2066 6.46574 90.2421C6.87416 90.275 7.28762 90.2421 7.69858 90.2421H39.3906C40.9684 90.2421 41.5468 89.7575 41.8538 88.2127C41.3667 86.7185 40.9481 86.4192 39.284 86.4192C30.5854 86.4192 21.8868 86.4065 13.1907 86.4344C12.3409 86.4344 11.9984 86.2568 12.0745 85.3461C12.1511 84.3328 12.1511 83.3152 12.0745 82.302C12.0162 81.4547 12.247 81.168 13.1577 81.1782C17.6174 81.2315 22.077 81.2035 26.5367 81.2035C45.4204 81.2035 64.3042 81.1968 83.188 81.1833C84.0733 81.1833 84.4335 81.3583 84.3524 82.307C84.275 83.3491 84.275 84.3954 84.3524 85.4374C84.4056 86.2492 84.0987 86.4268 83.3376 86.4242C75.5878 86.3963 67.8379 86.4065 60.0881 86.4065C59.1089 86.4065 58.1272 86.3938 57.1454 86.4065C55.5802 86.4318 54.9689 87.0204 54.8877 88.5551C55.2986 89.859 55.8314 90.2218 57.3661 90.2243C68.3402 90.2243 79.3168 90.2395 90.2909 90.1964C91.3006 90.2192 91.5162 90.5135 91.4502 91.4293L91.4452 91.4242Z" stroke="url(#paint3_linear_407_5965)" stroke-width="2.27617" mask="url(#path-2-outside-1_407_5965)"/>
<defs>
<linearGradient id="paint0_linear_407_5965" x1="45.582" y1="85.0415" x2="50.1303" y2="93.2535" gradientUnits="userSpaceOnUse">
<stop offset="0.17162" stop-color="#A100FF"/>
<stop offset="0.476152" stop-color="#0AA8D1"/>
<stop offset="0.876275" stop-color="#7EF5FF"/>
</linearGradient>
<linearGradient id="paint1_linear_407_5965" x1="45.582" y1="85.0415" x2="50.1303" y2="93.2535" gradientUnits="userSpaceOnUse">
<stop offset="0.17162" stop-color="#A100FF"/>
<stop offset="0.476152" stop-color="#0AA8D1"/>
<stop offset="0.876275" stop-color="#7EF5FF"/>
</linearGradient>
<linearGradient id="paint2_linear_407_5965" x1="-21.3817" y1="-34.044" x2="98.53" y2="171.549" gradientUnits="userSpaceOnUse">
<stop offset="0.17162" stop-color="#A100FF"/>
<stop offset="0.476152" stop-color="#0AA8D1"/>
<stop offset="0.876275" stop-color="#7EF5FF"/>
</linearGradient>
<linearGradient id="paint3_linear_407_5965" x1="-21.3817" y1="-34.044" x2="98.53" y2="171.549" gradientUnits="userSpaceOnUse">
<stop offset="0.17162" stop-color="#A100FF"/>
<stop offset="0.476152" stop-color="#0AA8D1"/>
<stop offset="0.876275" stop-color="#7EF5FF"/>
</linearGradient>
</defs>
</svg>
