<svg version="1.2" xmlns="http://www.w3.org/2000/svg" viewBox="0 0 73 47" width="73" height="47"><defs><linearGradient id="P" gradientUnits="userSpaceOnUse"/><radialGradient id="g1" cx="22.7" cy="15.2" r="34.1" href="#P"><stop stop-color="#af63de"/><stop offset=".2" stop-color="#9163db"/><stop offset=".4" stop-color="#7b58cc"/><stop offset=".6" stop-color="#613ead"/><stop offset=".8" stop-color="#3a137a"/></radialGradient><linearGradient id="g2" x1="53.4" y1="38" x2="29.1" y2="16.2" href="#P"><stop stop-color="#7ef5ff"/><stop offset=".2" stop-color="#75a3e0"/><stop offset=".4" stop-color="#6b44bc"/><stop offset=".6" stop-color="#6928af"/><stop offset=".8" stop-color="#660da3"/></linearGradient><linearGradient id="g3" x1="43.2" y1="-44.9" x2="-17.1" y2="-25.6" href="#P"><stop stop-color="#fff"/><stop offset=".2" stop-color="#f7f7f7"/><stop offset=".4" stop-color="#efefef"/><stop offset=".6" stop-color="#e7e7e7"/><stop offset=".8" stop-color="#e0e0e0"/></linearGradient><radialGradient id="g4" cx="59.1" cy="37.8" r="4.8" href="#P"><stop stop-color="#4681ad"/><stop offset=".2" stop-color="#5ba6d0"/><stop offset=".4" stop-color="#58abc4"/><stop offset=".6" stop-color="#3e4d8e"/><stop offset=".8" stop-color="#435dae"/></radialGradient><radialGradient id="g5" cx="59.1" cy="37.8" r="4.8" href="#P"><stop stop-color="#4681ad"/><stop offset=".2" stop-color="#5ba6d0"/><stop offset=".4" stop-color="#58abc4"/><stop offset=".6" stop-color="#3e4d8e"/><stop offset=".8" stop-color="#435dae"/></radialGradient><radialGradient id="g6" cx="59.2" cy="37.5" r="4.8" href="#P"><stop stop-color="#59b3c6"/><stop offset=".2" stop-color="#59b3c6"/><stop offset=".4" stop-color="#52a9be"/><stop offset=".6" stop-color="#3d8ea8"/><stop offset=".8" stop-color="#297292"/></radialGradient><radialGradient id="g7" cx="59.9" cy="37.1" r="1" href="#P"><stop stop-color="#fff"/><stop offset=".2" stop-color="#fff"/><stop offset=".4" stop-color="#fff"/><stop offset=".6" stop-color="#fff"/><stop offset=".8" stop-color="#b0d4e6"/></radialGradient><radialGradient id="g8" cx="60" cy="37.4" r=".3" href="#P"><stop stop-color="#fff"/><stop offset=".2" stop-color="#ddfaff"/><stop offset=".4" stop-color="#bbf5ff"/><stop offset=".6" stop-color="#99f0ff"/><stop offset=".8" stop-color="#77ebff"/></radialGradient><radialGradient id="g9" cx="59.8" cy="37.4" r=".4" href="#P"><stop stop-color="#fff"/><stop offset=".2" stop-color="#d7e7ec"/><stop offset=".4" stop-color="#afced9"/><stop offset=".6" stop-color="#87b6c7"/><stop offset=".8" stop-color="#5f9db4"/></radialGradient><radialGradient id="g10" cx="59.5" cy="37" r=".9" href="#P"><stop stop-color="#fff"/><stop offset=".2" stop-color="#ddfaff"/><stop offset=".4" stop-color="#bbf5ff"/><stop offset=".6" stop-color="#99f0ff"/><stop offset=".8" stop-color="#77ebff"/></radialGradient><radialGradient id="g11" cx="59.1" cy="36.6" r="1.6" href="#P"><stop stop-color="#fff"/><stop offset=".2" stop-color="#d8e9ee"/><stop offset=".4" stop-color="#b2d2dd"/><stop offset=".6" stop-color="#8bbccb"/><stop offset=".8" stop-color="#65a5ba"/></radialGradient><radialGradient id="g12" cx="59.7" cy="36.9" r="2.1" href="#P"><stop stop-color="#fff"/><stop offset=".2" stop-color="#fff"/><stop offset=".4" stop-color="#fff"/><stop offset=".6" stop-color="#fff"/><stop offset=".8" stop-color="#adf3ff"/></radialGradient><radialGradient id="g13" cx="59.1" cy="36.9" r="3.6" href="#P"><stop stop-color="#07486c"/><stop offset=".2" stop-color="#07486c"/><stop offset=".4" stop-color="#07486c"/><stop offset=".6" stop-color="#07486c"/><stop offset=".8" stop-color="#327fa4"/></radialGradient><radialGradient id="g14" cx="60.1" cy="40.1" r="2.9" href="#P"><stop stop-color="#55e6ff"/><stop offset=".2" stop-color="#55e6ff"/><stop offset=".4" stop-color="#55e6ff"/><stop offset=".6" stop-color="#53dff9"/><stop offset=".8" stop-color="#43a7cc"/></radialGradient><radialGradient id="g15" cx="59" cy="41.2" r=".3" href="#P"><stop stop-color="#6d00c2"/><stop offset=".2" stop-color="#6900bf"/><stop offset=".4" stop-color="#6600bc"/><stop offset=".6" stop-color="#5f00b6"/><stop offset=".8" stop-color="#5900b1"/></radialGradient><radialGradient id="g16" cx="64" cy="39.4" r=".3" href="#P"><stop stop-color="#427fb2"/><stop offset=".2" stop-color="#3a5ca6"/><stop offset=".4" stop-color="#33399a"/><stop offset=".6" stop-color="#2b178f"/><stop offset=".8" stop-color="#270088"/></radialGradient><radialGradient id="g17" cx="2.2" cy="2.9" r="7.7" href="#P"><stop stop-color="#63cfde"/><stop offset=".2" stop-color="#63bedb"/><stop offset=".4" stop-color="#58a0cc"/><stop offset=".6" stop-color="#3e79ad"/><stop offset=".8" stop-color="#13557a"/></radialGradient></defs><style>.a{fill:url(#g1)}.b{fill:#fff}.c{fill:#c059ff}.d{fill:#7800b0}.e{opacity:.1;fill:#0f0801}.f{fill:url(#g2)}.g{fill:url(#g3)}.h{fill:url(#g4)}.i{fill:url(#g5)}.j{fill:url(#g6)}.k{fill:url(#g7)}.l{fill:url(#g8)}.m{fill:url(#g9)}.n{fill:url(#g10)}.o{fill:url(#g11)}.p{fill:url(#g12)}.q{opacity:.5;fill:#7d72b3}.r{opacity:.4;fill:#7d72b3}.s{fill:url(#g13)}.t{fill:#7ef5ff}.u{fill:url(#g14)}.v{fill:url(#g15)}.w{fill:url(#g16)}.x{fill:#aa8cff}.y{fill:#9461ff}.z{opacity:.5;fill:#54469b}.A{fill:#5499c7}.B{fill:#57a3c1}.C{fill:#8cceff}.D{fill:#b89cf4}.E{fill:#7774f4}.F{fill:url(#g17)}.G{fill:#ffef84}</style><path class="a" d="m57.1 25.2q0 3.1-0.8 5.8c-1.1 3.8-3.2 7.1-6 9.7-2 1.9-4.3 3.3-6.9 4.3-2.4 0.9-4.9 1.4-7.6 1.4-0.3 0-0.7 0-1.1 0-0.5-0.1-1.1-0.1-1.6-0.2-4.1-0.5-7.9-2.2-10.9-4.8q-1.7-1.4-3.1-3.2c-0.6-0.8-1.3-1.7-1.8-2.7-0.1-0.3-0.3-0.5-0.4-0.7-0.1-0.3-0.3-0.5-0.4-0.8q-0.5-1.2-0.9-2.5-0.3-1-0.5-1.9c-0.1-0.5-0.2-0.9-0.2-1.4-0.2-1-0.2-2-0.2-3 0-0.6 0-1.2 0-1.7 0.1-0.4 0.1-0.8 0.2-1.1q0.4-3.2 1.7-5.9c0.4-0.9 0.9-1.8 1.4-2.6 0.9-1.4 1.9-2.7 3.2-3.9 3.8-3.7 9-6 14.7-6q0.4 0 0.7 0c0.2 0 0.5 0 0.7 0 1.2 0.1 2.4 0.3 3.6 0.6 0.6 0.2 1.3 0.3 1.9 0.6 0.5 0.1 0.9 0.3 1.3 0.5q0.5 0.2 1 0.4c0 0 0.1 0 0.1 0.1 2.1 0.9 4 2.3 5.6 3.9q0.3 0.3 0.7 0.7c0.1 0.1 0.3 0.3 0.4 0.5 0.3 0.2 0.5 0.5 0.7 0.8q1.3 1.6 2.2 3.5c0.7 1.4 1.3 2.9 1.7 4.5 0.3 1.6 0.6 3.3 0.6 5.1z"/><path class="b" d="m44.6 5.9c-0.1 0-0.1 0-0.2 0.1-0.2 0-0.4 0-0.6-0.1-0.2 0-0.3-0.1-0.5-0.1-0.3-0.1-0.5-0.2-0.8-0.2-0.2 0-0.5-0.1-0.7-0.2-0.2-0.1-0.3-0.1-0.5 0-0.2 0-0.3-0.1-0.5-0.1-0.2-0.1-0.4-0.1-0.6-0.1-0.5-0.1-1-0.3-1.6-0.4-0.3-0.1-0.6-0.1-0.9-0.1-0.3 0-0.5 0.1-0.8 0.1-0.2 0-0.3-0.1-0.5-0.1-0.1 0-0.3 0-0.5 0-0.3 0-0.4-0.1-0.7 0-0.2 0.1-0.3 0.1-0.5 0.1-0.2 0-0.5 0.1-0.7 0.1-0.4 0.1-0.9 0.2-1.3 0.2-0.2 0-0.6-0.1-0.8 0-0.1 0.1-0.2 0.2-0.4 0.3-0.2 0.2-0.4 0.4-0.6 0.6-0.1 0.3-0.3 0.5-0.3 0.8 0 0.3 0.1 0.6 0.2 0.8 0.2 0.3 0.2 0.5 0 0.7-0.4 0.2-0.8 0.4-1.1 0.5-0.3 0.1-0.5 0.2-0.7 0-0.1 0-0.1-0.2-0.2-0.3-0.1 0-0.2 0-0.3 0.1q-0.4 0.1-0.8 0.2c-0.2 0-0.3 0.1-0.5 0.1-0.1 0.1-0.3-0.1-0.5 0-0.3 0-0.6 0.2-0.8 0.2-0.3 0-0.5-0.1-0.7-0.2-0.1-0.1-0.1-0.1-0.3-0.1-0.1 0-0.2 0.1-0.2 0.2-0.1 0.1-0.1 0.2-0.2 0.3-0.1 0.2-0.1 0.3-0.2 0.4q-0.2 0.3-0.4 0.7c-0.1 0.1-0.2 0.3-0.3 0.4-0.1 0.1-0.2 0.2-0.3 0.2-0.2 0.2-0.4 0.3-0.7 0.5-0.4 0.3-0.7 0.6-1.1 0.9-0.4 0.3-0.8 0.4-1.1 0.6q-0.4 0.1-0.7 0.2c-0.1 0.1-0.2 0.1-0.3 0.2q-0.1 0.1-0.1 0.3c-0.2 0.2-0.4 0.5-0.6 0.7-0.1 0.2-0.1 0.3-0.2 0.5-0.1 0.2-0.2 0.5-0.3 0.7-0.1 0.5-0.1 1.1-0.4 1.5 0 0.3-0.2 0.6-0.4 0.8-0.2 0.5-0.2 1-0.3 1.5 0 0.3 0 0.6 0.1 0.9q0 0.5 0 0.9c0 0.3-0.2 0.7-0.4 0.9-0.1 0.2-0.5 0.3-0.7 0.6-0.2 0.1-0.4 0.3-0.5 0.6 0 0.1 0 0.2 0 0.3 0 0.3-0.1 0.5-0.1 0.8q-0.1 0.4 0 1c0 0.1 0 0.3 0 0.5q0 0.2 0 0.4c0 0.1 0 0.2 0 0.3 0 0.1 0.1 0.3 0.1 0.4 0.1 0.3 0.2 0.5 0.2 0.8 0.1 0.3 0.2 0.6 0.2 0.8 0.2 0.4 0.2 0.8 0.3 1.2 0 0.2 0 0.5 0.1 0.8q0.1 0.3 0.1 0.7c0 0.3-0.1 0.6-0.1 1 0 0.6 0.2 1.1 0.3 1.7 0.1 0.2 0.2 0.7 0.3 0.9-1.5-2.6-2.4-6.5-2.4-9.9 0-4.2 1.2-8 3.3-11.3 0.9-1.4 1.9-2.6 3.1-3.7 3.7-3.7 8.9-6 14.5-6 0.5 0 0.9 0 1.4 0 2.7 0 5.4 0.8 7.7 1.9z"/><path class="c" d="m28.8 22.4c0.2 0 0.5 0.1 0.6 0.2 0.3 0.2 0.6 0.5 0.8 0.9 0.4 0.8 0.8 1.9-0.2 2.5-0.9 0.5-1.6-0.2-2-1-0.1-0.3-0.3-0.6-0.4-0.9-0.2-0.7 0.5-1.5 0.8-2 0.3 0 0.1 0.1 0.4 0.3zm1.8 7.2c0.1-0.2 0.1-0.6 0.3-0.8 0.1-0.1 0.3-0.2 0.5-0.3 0.3-0.2 0.7-0.1 1 0.2 0.5 0.4 0.5 1.1 0 1.6-0.2 0.2-0.5 0.5-0.9 0.5-0.1 0-0.3 0-0.5-0.1-0.1-0.1-0.3-0.3-0.3-0.4-0.1-0.3-0.1-0.6 0.1-0.8zm-3.9-0.3h0.2c0.1-0.2 0.3 0 0.4 0.1 0 0.2 0.1 0.4 0 0.5 0 0.2-0.2 0.4-0.3 0.3-0.4-0.1-0.3-0.6-0.3-0.9zm-8.9-4c0-0.2 0-0.5 0.2-0.5 0.2 0 0.3 0.1 0.4 0.1 0 0.1 0.2 0.3 0.3 0.4 0.1 0.2 0.1 0.5 0.1 0.7 0 0.3 0 0.4-0.1 0.6-0.1 0.2-0.2 0.3-0.4 0.2-0.2 0-0.3-0.2-0.4-0.3-0.2-0.3-0.2-0.9-0.2-1.2z"/><path class="d" d="m49.1 23.5c0-0.1 0.1-0.7 0.2-0.9 0.1 0 0.2 0 0.2-0.1 0.2-0.1 0.4-0.1 0.7 0 0.2 0.1 0.5 0.5 0.4 0.8-0.1 0.4-0.5 0.7-0.9 0.7-0.4 0-0.7-0.5-0.5-0.9z"/><path class="c" d="m27.3 28.5c0 0 0.1-0.3 0.1-0.4q0.1-0.1 0.2-0.1c0 0 0.2 0 0.3 0 0.1 0.1 0.2 0.3 0.2 0.5-0.1 0.2-0.3 0.3-0.5 0.3-0.1 0-0.3-0.2-0.2-0.4zm9.6 3.9c0 0 0.1-0.3 0.1-0.4q0.1-0.1 0.2-0.1c0.1 0 0.2 0 0.3 0 0.1 0.1 0.3 0.3 0.2 0.5 0 0.2-0.3 0.3-0.4 0.3-0.2 0-0.4-0.2-0.3-0.4zm6.5-17.1c0 0 0.1-0.3 0.1-0.4q0.1-0.1 0.2-0.1c0 0 0.2 0 0.3 0 0.1 0.1 0.2 0.3 0.2 0.5-0.1 0.2-0.3 0.3-0.5 0.3-0.1 0-0.3-0.2-0.2-0.4zm-13.3 24.8c0 0 0-0.3 0.1-0.4q0 0 0.1 0c0.1-0.1 0.2-0.1 0.3 0 0.2 0.1 0.3 0.2 0.2 0.4 0 0.2-0.2 0.4-0.4 0.4-0.2 0-0.4-0.3-0.3-0.5z"/><path class="d" d="m47.8 29.1c0 0 0 0.1 0.1 0.1 0 0.2 0 0.4 0 0.5 0 0.3-0.2 0.7-0.5 0.9-0.2 0.2-0.9 0.6-0.9 0.1 0-0.2 0-0.5 0.1-0.7 0.1-0.3 0.3-0.4 0.4-0.7 0.2-0.2 0.4-0.3 0.8-0.6-0.1 0.3-0.1 0.3 0 0.4zm6.6 2.2c0.1-0.2 0.2-0.4 0.4-0.4 0.1 0 0.2 0 0.3 0 0.1 0.1 0.2 0.2 0.2 0.4 0 0.2-0.2 0.3-0.3 0.4-0.1 0.1-0.2 0.2-0.3 0.2q-0.1 0-0.2 0c-0.1-0.1 0.1-0.9 0-0.7zm-18.6 9.2c0.1 0 0.2 0 0.3 0.2 0 0 0 0.1 0 0.1 0 0.1-0.1 0.2-0.3 0.2-0.1 0-0.2-0.1-0.3-0.2 0 0-0.1 0-0.1-0.1 0-0.1 0-0.2 0-0.2 0 0 0.7 0 0.5 0z"/><path class="c" d="m35.5 38.7c0.1-0.2 0.2-0.4 0.4-0.5 0.1 0 0.1 0 0.2 0.1 0.2 0.1 0.2 0.2 0.2 0.4 0 0.2-0.1 0.3-0.3 0.4-0.1 0.1-0.1 0.2-0.2 0.2q-0.1 0-0.3 0c0-0.1 0.1-0.9 0.1-0.7z"/><path class="e" d="m20.5 12.2c0.3-0.3 0.6-0.5 0.9-0.7 0.5-0.5 0.9-0.9 1.6-1.2 0.9-0.4 1.9-0.6 2.9-0.7 0.9-0.2 2-0.2 2.9 0 1 0.2 2 0.5 2.8 1.1 0.6 0.5 1.3 1.1 1.6 1.9 0.1 0.4 0.3 0.9 0.2 1.3-0.1 0.5-0.1 1-0.3 1.4-0.1 0.4-0.3 0.9-0.6 1.2-0.2 0.2-0.5 0.4-0.7 0.6-0.2 0.2-0.3 0.4-0.6 0.5-0.3 0.2-0.4 0.4-0.6 0.6-0.5 0.4-1 0.9-1.6 1.3-0.7 0.6-1.2 1.3-1.6 2.1-0.3 0.8-0.6 1.6-1.2 2.3-0.7 0.8-1.8 0.8-2.8 0.6q-0.7-0.1-1.5-0.2c-0.3 0-0.7 0.1-1 0-0.7 0-1.2-0.3-1.6-0.8-0.4-0.5-0.7-1.1-1-1.6-0.4-0.6-0.4-1.3-0.5-1.9 0-0.4 0.1-0.9 0.1-1.3 0.1-0.6 0.2-1.1 0.3-1.6 0.1-0.8 0.2-1.7 0.6-2.5 0.4-0.9 0.9-1.6 1.6-2.3-0.5 0.6-0.2 0.2 0.1-0.1zm9.4-3.9c0.2-0.2 0.3-0.6 0.5-0.7 0.1-0.2 0.2-0.3 0.4-0.4q0.5-0.4 1.2-0.6 0.4-0.2 0.7 0c0.3 0 0.7 0.2 0.9 0.4 0.4 0.3 0.2 0.9 0 1.3-0.1 0.4-0.2 0.8-0.6 1-0.2 0.2-0.5 0.4-0.8 0.4-0.1 0-0.3 0-0.5 0-0.1 0-0.2 0.1-0.3 0.1-0.3 0-0.8-0.2-0.9-0.5 0-0.1-0.1-0.3-0.2-0.4 0-0.2 0-0.3-0.1-0.4-0.1-0.2-0.1-0.5-0.3-0.2zm3.7 2.3c0.1-0.1 0.3 0.1 0.5 0.2 0.1 0.1 0.4 0.3 0.3 0.5 0 0.3-0.2 0.3-0.4 0.3-0.2 0-0.3 0-0.4-0.1-0.1 0-0.2-0.2-0.2-0.2 0-0.3 0-0.5 0.1-0.7zm2.9 3.1q0.1-0.1 0-0.3c0-0.2 0-0.3 0-0.5 0-0.1-0.1-0.3-0.1-0.5-0.1-0.5 0.1-1.2 0.3-1.8 0.4-1.2 0.9-2.4 1.8-3.3 0.3-0.4 0.7-0.7 1.2-0.9q0.9-0.3 1.7-0.2c1.5 0.1 3 0.9 4.1 1.8 0.5 0.5 1 0.9 1.4 1.5 0.6 0.6 1.1 1.1 1.6 1.7 0.9 1.1 1.7 2.3 2.4 3.5 0.5 1 0.8 2.2 0.6 3.3-0.2 1-1 2.1-1.9 2.7-1 0.7-2.1 1.2-3.3 1.2-1.2 0.1-2.4-0.1-3.5-0.2q-1-0.2-1.9-0.3c-0.5-0.1-1-0.1-1.4-0.2-0.7-0.2-1.5-0.3-1.9-1-0.2-0.5-0.5-1-1-1.2-0.6-0.3-1.4-0.3-1.8-0.7-0.5-0.4-0.6-0.9-0.7-1.4-0.1-0.6 0.3-1.1 0.6-1.5q0.4-0.5 0.9-0.9c0.2-0.2 0.5-0.4 0.8-0.6-0.1 0 0.1-0.1 0.1-0.2zm-5 4.5c0.1-0.1 0.1-0.1 0.2-0.1 0 0 0.1 0 0.2 0 0.1 0 0.2 0 0.2 0 0.7-0.1 1 0.7 0.7 1.2-0.2 0.4-0.7 0.7-1.2 0.8-0.5 0.1-1 0-1.5-0.2-0.1 0-0.3-0.1-0.3-0.2-0.1-0.2 0-0.3 0.1-0.4 0.5-0.5 1.1-0.8 1.7-1.2-0.3 0.3-0.2 0.2-0.1 0.1zm-12.2 8.2c0-0.1 0.1-0.2 0.1-0.3 0.1-0.2 0.3-0.2 0.4-0.3 0.4-0.2 0.9-0.1 1.3 0 0.6 0.1 1.1 0.5 1.6 0.9 0.5 0.3 1 0.7 1.6 1.1 0.3 0.2 0.6 0.5 0.8 0.7 0.3 0.3 0.6 0.5 0.9 0.8 0.3 0.4 0.6 0.9 1 1.4 0.3 0.6 0.4 1.3 0.3 2-0.2 0.8-0.5 1.6-1.1 2.2-0.5 0.5-1.3 0.7-2 0.6-1.5-0.2-2.6-1.3-3.6-2.3-0.3-0.3-0.5-0.5-0.7-0.9-0.2-0.3-0.4-0.6-0.6-0.9-0.2-0.4-0.3-0.7-0.4-1.1 0-0.3-0.2-0.6-0.3-0.9-0.1-0.3-0.2-0.5-0.2-0.7-0.1-0.3 0-0.6 0-0.8q0.1-0.5 0.3-0.9c0.1-0.3 0.4-0.4 0.6-0.7-0.1 0-0.1 0 0 0.1zm3.7-0.9c-0.2-0.2 0.3-0.4 0.4-0.5 0.2 0 0.4 0.1 0.5 0.2 0.3 0.2 0.2 0.6 0 0.7-0.2 0.1-0.4 0.2-0.5 0.2-0.1 0-0.2 0-0.3 0 0-0.1 0-0.2 0-0.2 0-0.1-0.1-0.3-0.1-0.5zm28.5-4.8c0.1-0.3 0.1-0.6 0.4-0.9 0.2-0.2 0.4-0.4 0.6-0.7 0.3-0.4 0.6-1 0.7-1.5 0.1-0.5 0-1 0.2-1.5 0.1-0.2 0.2-0.3 0.2-0.4 0.1-0.1 0.4 0 0.5 0 0.1 0.1 0.2 0.2 0.3 0.3 0.1 0.1 0.3 0.3 0.5 0.4 0.7 0.8 1.1 2 1 3 0 0.6-0.1 1.2-0.2 1.7q-0.2 0.4-0.4 0.7c-0.1 0.3-0.3 0.4-0.5 0.6-0.8 0.5-1.8 0.3-2.5-0.3-0.2-0.2-0.3-0.5-0.4-0.7-0.2-0.2-0.3-0.4-0.3-0.7q0 0-0.1 0zm0.1-7.8c0-0.1-0.1-0.2 0-0.4 0 0 0-0.1 0-0.1 0-0.1 0-0.2 0.1-0.3 0-0.1 0.1-0.1 0.2-0.1 0 0 0 0 0.1 0 0.3 0.1 0.5 0.2 0.7 0.4 0.2 0.3 0.5 1.1 0 1.4q-0.1 0.1-0.2 0.1c-0.1 0-0.2 0-0.3-0.1-0.5-0.2-0.5-0.6-0.7-1zm-3.4 16.9c0.1-0.1 0.2-0.2 0.3-0.3 0.1-0.3 0.3-0.5 0.5-0.7q0.2-0.2 0.4-0.4c0.3-0.2 0.6-0.3 0.9-0.4 0.4-0.2 0.8-0.3 1.2-0.3 0.3 0 0.8 0.1 1.1 0.2 0.7 0.1 1.3 0.6 1.5 1.3 0.3 0.7 0.1 1.5-0.2 2.3-0.1 0.4-0.2 0.8-0.4 1.1q-0.2 0.5-0.4 1c-0.2 0.3-0.3 0.6-0.5 1-0.2 0.4-0.5 0.7-0.7 1-0.6 0.8-1.3 1.4-2 2.1-0.6 0.7-1.4 1.3-2.2 1.7-0.3 0.2-0.6 0.4-0.8 0.3-0.2-0.1-0.4-0.4-0.5-0.6-0.1-0.3-0.1-0.7-0.1-1-0.1-0.5 0-0.9 0.1-1.4 0-0.8 0.2-1.7 0.4-2.6 0.2-0.8 0.4-1.6 0.7-2.4 0.2-0.3 0.3-0.6 0.4-0.9 0.2-0.3 0.3-0.6 0.3-0.9-0.1 0.4 0 0.1 0-0.1zm-3.4 10.2q0.1-0.1 0.3-0.1c0.1 0 0.3 0.1 0.4 0.2 0.1 0.1 0.2 0.3 0.2 0.5 0 0.1 0 0.2-0.1 0.3 0 0.2-0.1 0.3-0.2 0.5-0.2 0.2-0.6 0.4-0.8 0.5-0.3 0.1-0.5 0.2-0.8 0.3-0.3 0.2-0.6 0.2-0.9 0.2-0.2 0-0.5 0-0.6-0.2-0.2-0.2 0-0.5 0.2-0.6 0.3-0.5 0.7-0.9 1.2-1.2 0.4-0.3 0.7-0.5 1.2-0.6-0.4 0.4-0.3 0.2-0.1 0.2zm-0.5-2.8c0-0.4-0.1-0.6-0.1-1 0-0.3 0-0.6 0.1-0.8 0.1-0.2 0.3-0.5 0.4-0.6 0.1 0 0.2 0 0.3 0 0.2 0.1 0.3 0.3 0.4 0.6 0.1 0.3 0 0.6 0 1q0 0.4-0.1 0.7c-0.1 0.2-0.2 0.2-0.4 0.2-0.2 0-0.3 0-0.4-0.2-0.1 0-0.2 0-0.2-0.1-0.1-0.1-0.1-0.2 0 0.2zm-0.5-13.4c0-0.2 0-0.4 0.1-0.5 0.1 0 0.2-0.1 0.3-0.1 0.3 0 0.6 0 0.7 0.3 0.1 0.3 0 0.7-0.3 1-0.1 0.1-0.3 0.2-0.4 0.1-0.1 0-0.2-0.2-0.3-0.2 0-0.2 0-0.5 0-0.7zm-20 14.5c0.1-0.2 0.2-0.5 0.4-0.7q0.4-0.4 0.7-0.7 0.5-0.5 0.9-0.8c0.3-0.2 0.6-0.5 0.9-0.7 0.6-0.3 1.1-0.6 1.8-0.8q0.7-0.3 1.5-0.1c0.6 0.1 1.1 0.4 1.5 0.7 0.3 0.4 0.7 0.8 1 1.3 0.5 0.9 0.2 2-0.1 3-0.1 0.4-0.4 0.9-0.8 1.2-0.2 0.2-0.4 0.3-0.7 0.3-0.3 0.1-0.6 0.2-0.9 0.2-1.3 0.2-2.6 0.1-3.8-0.4-0.5-0.1-1-0.4-1.4-0.6-0.4-0.2-0.7-0.4-0.9-0.7-0.2-0.2-0.4-0.5-0.4-0.9q0.1-0.2 0.1-0.4c0.1 0.1 0.2 0.1 0.2 0.1zm9.8 0.6c0.1-0.1 0.3-0.2 0.4-0.1q0.2 0.1 0.3 0.3 0.1 0.1 0.1 0.3c0 0.2-0.1 0.3-0.1 0.4-0.1 0.1-0.2 0.2-0.4 0.2q-0.1 0-0.3 0c-0.2 0-0.2 0-0.3-0.1 0-0.1 0-0.2-0.1-0.3 0-0.2 0.1-0.5 0.2-0.7zm20.7-11q-0.3-0.2-0.5-0.5 0-0.2 0-0.3c0-0.2-0.1-0.4 0-0.6 0-0.6 0.5-0.9 1-1 0.4 0 0.9 0.2 1.1 0.6q0.2 0.4 0.2 1c0 0.3 0 0.6-0.2 0.8-0.1 0.2-0.4 0.2-0.5 0.2-0.3 0-0.5 0-0.7-0.1-0.1 0-0.3-0.1-0.4-0.1z"/><path class="f" d="m10.7 31.7c-2.9 1.8-5.1 3.5-6.4 5q-1.1 1.1-1.4 1.9c-0.3 0.6-0.3 1.1-0.2 1.4 0.2 0.4 0.5 0.8 1.1 1.1q0.9 0.5 2.6 0.8c2.2 0.3 5.3 0.3 9-0.1 0.4-0.1 0.7 0.2 0.8 0.6 0 0.4-0.3 0.7-0.7 0.8-3.7 0.4-7 0.4-9.4 0.1-1.2-0.2-2.2-0.5-3-1-0.8-0.4-1.4-1-1.7-1.8-0.3-0.8-0.2-1.6 0.2-2.4q0.5-1.2 1.6-2.4c1.5-1.6 3.8-3.4 6.8-5.2q1.7-1 3.7-2.1 0.1 0.7 0.2 1.5-1.7 0.9-3.2 1.8zm44.3-17q2.3-0.4 4.3-0.5c3.4-0.3 6.3-0.3 8.5 0.1q1.6 0.3 2.7 0.9c0.8 0.5 1.3 1 1.6 1.8 0.4 1.2-0.1 2.4-0.9 3.6-0.8 1.2-2.2 2.5-3.9 3.8-0.3 0.2-0.8 0.2-1-0.1-0.2-0.3-0.2-0.8 0.1-1q2.6-1.9 3.7-3.5c0.7-1 0.8-1.8 0.7-2.3-0.2-0.4-0.4-0.7-1-1.1q-0.8-0.4-2.3-0.7c-2-0.4-4.7-0.4-8.1-0.1q-1.7 0.1-3.7 0.4-0.3-0.7-0.7-1.3zm-15.3 22.8c-4.8 1.6-9.3 2.9-13.6 3.8-0.3 0.1-0.7-0.1-0.8-0.5-0.1-0.4 0.1-0.8 0.5-0.8 4.2-1 8.7-2.3 13.4-3.8 9.2-3.1 17.3-6.7 23-10.1 0.4-0.2 0.8-0.1 1 0.2 0.2 0.4 0.1 0.8-0.2 1-5.9 3.5-14 7.2-23.3 10.2z"/><path class="g" d="m14.5 29.7q-1.4 0.8-2.7 1.6c-2.7 1.6-4.7 3.2-5.9 4.5-0.6 0.6-0.9 1.2-1.1 1.5q-0.1 0.3-0.1 0.4 0 0.1 0 0.1 0 0 0 0 0 0 0 0 0 0 0 0 0.1 0.1 0.3 0.3c0.4 0.2 1 0.4 1.8 0.6 1.8 0.3 4.3 0.3 7.5 0.1 6.4-0.6 14.9-2.5 24.1-5.5 9.1-3.1 17.1-6.7 22.5-10 2.8-1.7 4.8-3.2 6-4.5 0.6-0.7 0.9-1.2 1.1-1.6q0.1-0.3 0.1-0.4 0 0 0 0 0 0 0 0 0 0 0 0 0 0 0-0.1 0 0-0.1 0 0-0.1-0.3-0.2c-0.3-0.2-0.9-0.5-1.8-0.6-1.7-0.3-4.3-0.4-7.5-0.1-1 0.1-2.1 0.3-3.2 0.5-0.4-0.8-0.5-1.1-1-1.9 8.8-1.3 14.9-0.9 15.7 1.7 1.5 4.4-12.4 12.9-30.9 19-18.5 6.2-34.7 7.6-36.2 3.3-0.8-2.6 4-6.9 12-11.1 0.1 0.6 0.2 1.9 0.3 2.1-0.1 0-0.6 0.3-0.6 0.3z"/><path class="h" d="m64.2 39.8v0.1q0 0-0.1 0 0 0.3-0.2 0.6-0.3 0.5-0.6 0.8-0.5 0.5-1.1 0.7-0.5 0.2-1.1 0.2-0.1 0-0.2 0-0.1 0-0.2 0-0.9-0.1-1.5-0.6-0.1-0.1-0.1-0.1c0.1-0.1 0.2-0.1 0.2-0.1l-0.2-0.1-0.5-0.3q-0.2-0.2-0.3-0.5 0 0-0.1-0.1 0 0 0 0 0 0 0-0.1-0.1-0.2-0.2-0.4 0-0.1-0.1-0.3 0-0.1 0-0.2 0-0.2 0-0.4 0-0.1 0-0.2 0 0 0-0.1 0-0.1 0-0.2 0 0 0 0 0-0.1 0-0.2 0.1-0.1 0.1-0.3 0.1-0.2 0.2-0.4 0-0.2 0.1-0.3c0.3-0.2 0.4-0.2 0.4-0.2 0 0 3.7-0.8 3.8-0.8 0-0.1 0.3-0.1 0.3-0.1q0.3 0.2 0.5 0.4 0.1 0.1 0.1 0.1 0 0.1 0.1 0.1 0 0.1 0.1 0.1 0.2 0.3 0.3 0.6 0.1 0.1 0.1 0.2c0.3 1.1 0 2.1 0 2.1q0.1 0 0.2 0z"/><path class="i" d="m64.2 39.8v0.1q0 0-0.1 0 0 0.3-0.2 0.6-0.3 0.5-0.6 0.8-0.5 0.5-1.1 0.7-0.5 0.2-1.1 0.2-0.1 0-0.2 0-0.1 0-0.2 0-0.9-0.1-1.5-0.6-0.1-0.1-0.1-0.1c0.1-0.1 0.2-0.1 0.2-0.1l-0.2-0.1-0.5-0.3q-0.2-0.2-0.3-0.5 0 0-0.1-0.1 0 0 0 0 0 0 0-0.1-0.1-0.2-0.2-0.4 0-0.1-0.1-0.3 0-0.1 0-0.2 0-0.2 0-0.4 0-0.1 0-0.2 0 0 0-0.1 0-0.1 0-0.2 0 0 0 0 0-0.1 0-0.2 0.1-0.1 0.1-0.3 0.1-0.2 0.2-0.4 0-0.2 0.1-0.3c0.3-0.2 0.4-0.2 0.4-0.2 0 0 3.7-0.8 3.8-0.8 0-0.1 0.3-0.1 0.3-0.1q0.3 0.2 0.5 0.4 0.1 0.1 0.1 0.1 0 0.1 0.1 0.1 0 0.1 0.1 0.1 0.2 0.3 0.3 0.6 0.1 0.1 0.1 0.2c0.3 1.1 0 2.1 0 2.1q0.1 0 0.2 0z"/><path class="j" d="m64.1 39q0 0.1 0 0.3-0.1 0.3-0.1 0.5 0 0 0 0-0.1 0.3-0.3 0.6-0.2 0.4-0.6 0.8-0.4 0.4-0.9 0.6-0.5 0.2-1.1 0.2-0.1 0-0.2 0-0.1 0-0.2 0-0.8-0.1-1.4-0.6-0.1 0-0.1-0.1-0.1 0-0.1 0-0.2-0.2-0.4-0.5-0.1-0.1-0.2-0.4-0.1 0-0.1-0.1 0 0 0 0 0 0 0-0.1-0.1-0.2-0.2-0.3 0-0.2 0-0.3-0.1-0.1-0.1-0.2 0-0.2 0-0.4 0-0.1 0-0.1 0-0.1 0-0.2 0-0.1 0-0.1 0 0 0-0.1 0-0.1 0-0.2 0.1-0.1 0.1-0.2 0.1-0.2 0.1-0.4 0.1-0.2 0.3-0.4 0-0.1 0.1-0.2 0.2-0.2 0.3-0.3c0.5-0.6 1.3-0.9 2.1-0.9q0 0 0.1 0 0 0 0.1 0 0.1 0 0.3 0 0 0 0 0 0.1 0.1 0.2 0.1 0.1 0 0.3 0.1 0.1 0 0.2 0 0 0.1 0.1 0.1 0 0 0 0 0.5 0.2 0.8 0.6 0.1 0 0.1 0.1 0 0 0.1 0 0 0.1 0.1 0.2 0.1 0.2 0.3 0.5 0.1 0.3 0.2 0.6 0.1 0.2 0.1 0.5 0 0.1 0 0.3z"/><path class="k" d="m59.7 38.1c0.1 0 0.2-0.1 0.4-0.1 0.1-0.1 0.3-0.3 0.4-0.3 0.1-0.1 0.2-0.2 0.2-0.6 0.1-0.4 0-0.3 0-0.3 0 0 0.2 0.1 0.2 0.3 0.1 0.2-0.1 0.4-0.2 0.6-0.2 0.1-0.4 0.3-0.6 0.4-0.2 0.1-0.4 0.2-0.5 0-0.1-0.2 0-0.4 0-0.4-0.1 0.2 0 0.4 0.1 0.4z"/><path class="l" d="m60 37.7c0 0 0 0 0.2 0 0.1-0.1 0.2-0.4 0.2-0.4 0 0 0.1 0.2-0.1 0.3-0.1 0.2-0.3 0.3-0.4 0.2 0-0.1 0.1-0.2 0.1-0.2 0 0.1 0 0.1 0 0.1z"/><path class="m" d="m60 37.3c0.1 0 0.3 0 0.3 0 0 0-0.3 0.1-0.4 0.2-0.1 0.1-0.2 0.2-0.2 0.2 0 0 0.1-0.2 0.3-0.4z"/><path class="n" d="m59.9 37.2c0.4-0.3 0.7-0.4 0.7-0.4 0 0-0.1 0.1-0.2 0.3-0.2 0.1-0.3 0.1-0.6 0.2-0.3 0.2-0.6 0.4-0.6 0.4 0-0.1 0.2-0.2 0.7-0.5z"/><path class="o" d="m59.5 36.8c0.7-0.4 1.7-0.4 1.7-0.4l-0.1 0.1c0 0-0.5 0.1-0.8 0.2-0.3 0.1-0.6 0.2-0.9 0.4-0.4 0.1-0.8 0.6-0.8 0.6 0 0 0.3-0.5 0.9-0.9z"/><path class="p" d="m59.1 38.2c0 0 0.1 0.6 0.2 0.7 0.1 0 0.5 0 1.1-0.3 0.5-0.3 0.7-0.2 1-0.6 0.3-0.3 0.4-0.7 0.5-0.9 0.1-0.3 0.2-0.5 0.1-0.6 0 0 0.1 0 0.1 0.3 0 0.2 0 0.6-0.1 0.9-0.1 0.2-0.4 0.6-0.7 0.8-0.3 0.1-1 0.5-1.6 0.5-0.6 0-0.5-0.1-0.6-0.2-0.1-0.1 0-0.6 0-0.6z"/><path class="q" d="m58.5 39.3c0.2 0.3 0.4 0.4 0.6 0.5 0.2 0 0.8 0.1 1.2 0 0.5 0 0.8 0 1.2-0.2 0.5-0.1 0.9-0.4 1.2-0.8 0.2-0.4 0.2-0.6 0.3-1 0-0.4-0.1-1-0.1-1l0.1 0.1c0 0 0.1 0.4 0.1 0.7 0.1 0.2 0 0.7-0.1 0.8-0.1 0.2-0.1 0.4-0.3 0.6-0.2 0.3-0.5 0.5-0.6 0.5-0.2 0.1-0.6 0.4-0.8 0.4-0.2 0.1-0.7 0.2-1 0.1-0.3 0-0.8 0-0.9 0.1-0.1 0-0.5-0.1-0.8-0.2-0.2-0.1-0.2-0.5-0.3-0.7 0-0.2-0.1-0.5-0.1-0.5 0 0 0 0.2 0.3 0.6z"/><path class="r" d="m59.5 38.7c0.1 0 0.5 0 1-0.3 0.4-0.2 1.2-1.2 1.3-1.5 0.1-0.3 0.1-0.4 0.1-0.4 0 0 0 0 0.1 0 0 0 0 0.1 0 0.1 0 0 0 0.2 0 0.4-0.1 0.1-0.2 0.5-0.3 0.6 0 0-0.2 0.4-0.3 0.5-0.1 0.1-0.7 0.4-0.8 0.4-0.1 0.1-0.7 0.3-0.9 0.3-0.2 0.1-0.3 0.1-0.4 0-0.1 0-0.1-0.7-0.1-0.7-0.1 0.1 0.1 0.6 0.3 0.6zm-0.5-1c0.1-0.1 0.4-0.4 0.5-0.4 0.2-0.1 0.5-0.4 0.8-0.5 0.3-0.1 0.4 0 0.4 0 0 0 0 0-0.1 0-0.1 0-0.4 0.2-0.7 0.3-0.2 0.1-0.5 0.4-0.6 0.5-0.2 0.2-0.2 0.6-0.2 0.6 0 0-0.1-0.4-0.1-0.5zm0-0.7c0.2-0.2 0.8-0.5 1.5-0.7 0.8-0.2 1.4 0.1 1.4 0.1l-0.3-0.1c0 0-0.6 0.1-0.9 0.1-0.2 0.1-0.8 0.3-0.8 0.3l-0.6 0.2-0.9 0.9c0-0.1 0.4-0.6 0.6-0.8z"/><path class="s" d="m58.4 37.8c0 0-0.5 0.6-0.3 1 0.3 0.3 0.4 0.9 0.4 1 0.1 0.1 0.9 0.3 1.1 0.3 0.1-0.1 0.5-0.2 0.8-0.1 0 0 0.5 0 0.6 0 0.1 0 0.4-0.1 0.4-0.1 0.1-0.1 0.4-0.2 0.5-0.2 0.2-0.1 0.5-0.3 0.6-0.4 0.1-0.1 0.3-0.4 0.4-0.5 0-0.1 0.2-0.7 0.2-1 0.1-0.3 0-0.8-0.1-1-0.1-0.2-0.4-0.3-0.4-0.3v-0.1l0.2-0.2c0 0 0.4 0.5 0.5 1 0 0.2 0 0.8 0 1-0.1 0.2-0.3 0.8-0.4 1-0.2 0.2-0.7 0.7-0.9 0.8-0.3 0.1-1 0.2-1.5 0.2-0.3 0-1 0-1.4 0-0.4 0-0.6-0.3-0.7-0.4-0.2-0.1-0.1-0.4-0.3-0.7-0.1-0.2-0.2-0.5-0.2-0.7 0.1-0.2 0.5-0.6 0.5-0.6z"/><path class="t" d="m59.2 40.1q-0.1 0-0.2-0.1 0 0-0.1 0-0.1 0-0.1 0-0.2 0-0.3-0.1-0.1-0.1-0.1-0.2 0-0.2-0.1-0.4 0-0.1-0.1-0.2 0-0.1-0.1-0.1 0-0.1 0-0.1-0.1-0.2-0.1-0.3 0-0.1 0-0.2 0.1-0.1 0.1-0.2 0 0 0.1-0.1 0.1-0.2 0.2-0.4 0.2-0.2 0.4-0.4 0.1-0.1 0.2-0.2 0.1 0 0.2-0.1 0.2-0.2 0.4-0.2 0.2-0.2 0.5-0.3 0.3-0.1 0.6-0.1 0.3-0.1 0.7-0.1c0.1 0 0.2 0 0.4 0q0.1 0.1 0.2 0.1 0 0.1 0 0.1 0 0 0 0 0 0 0 0.1 0 0 0 0.1 0 0 0 0.1 0 0 0 0.1 0 0.1-0.1 0.2 0 0.2-0.1 0.4 0 0 0 0-0.1 0.1-0.1 0.1 0 0.1-0.1 0.2-0.1 0.1-0.2 0.3-0.2 0.1-0.4 0.2-0.1 0.1-0.3 0.2-0.1 0-0.2 0.1-0.3 0.1-0.7 0.2-0.1 0-0.1 0.1-0.1 0-0.2 0-0.1 0-0.2 0c-0.1-0.1-0.1-0.2-0.1-0.3q0-0.1-0.1-0.2 0-0.1 0-0.2 0 0 0-0.1 0-0.1 0-0.3 0 0 0.1-0.1 0-0.1 0.1-0.2 0.1 0 0.2-0.1 0 0 0.1-0.1 0.1 0 0.2-0.1 0 0 0.1-0.1 0.1 0 0.2-0.1 0 0 0.1-0.1 0.1 0 0.1 0 0.1 0 0.1 0 0.1-0.1 0.1-0.1 0.1 0 0.2 0 0.1 0 0.1 0.1c0 0.1 0 0.2 0 0.3q-0.1 0.1-0.1 0.3c-0.1 0.1-0.2 0.1-0.2 0.2q-0.2 0.1-0.3 0.2-0.1 0-0.1 0.1-0.1 0-0.1 0-0.1 0-0.1 0 0 0.1 0 0.1-0.1 0-0.2 0c0 0.1-0.1 0.1-0.1 0q0 0 0-0.1 0 0 0-0.1 0 0 0-0.1 0 0 0 0 0.1-0.2 0.2-0.3 0 0 0.1-0.1 0.1-0.1 0.2-0.1c0 0 0.2-0.1 0.2 0 0.1 0 0 0.1 0 0.1q0 0.1 0 0.1 0 0 0 0.1-0.1 0-0.1 0.1-0.1 0-0.1 0 0 0-0.1 0 0 0 0 0 0 0 0 0 0 0 0 0 0 0 0 0 0-0.1 0.1-0.2c0 0.1 0 0.1 0 0.1q0 0 0 0 0 0.1 0 0.1 0 0 0 0c0.1-0.1 0.1-0.1 0.2-0.2 0-0.1 0-0.1-0.1-0.2q0 0-0.1 0c-0.2 0-0.2 0.2-0.3 0.3q-0.1 0.1-0.1 0.2-0.1 0.1-0.1 0.2c0 0 0 0.1 0 0.1q0.1 0 0.2 0 0 0 0-0.1 0.1 0 0.2 0 0.1-0.1 0.1-0.1c0.1 0 0.2-0.1 0.3-0.2q0-0.1 0.1-0.2 0.1-0.1 0.2-0.2 0-0.1 0-0.2c0 0 0.1-0.1 0.1-0.2-0.1-0.1-0.2-0.1-0.2 0q-0.1 0-0.2 0-0.1 0-0.2 0.1-0.2 0.1-0.4 0.2-0.1 0.1-0.2 0.1 0 0.1-0.1 0.1 0 0.1-0.1 0.1-0.1 0.1-0.1 0.1 0 0.1-0.1 0.1 0 0.1 0 0.1 0 0.1 0 0.2 0 0 0 0.1 0 0.2 0 0.3 0 0.1 0 0.2 0 0 0.1 0.1 0 0.1 0 0.1 0 0 0 0 0.1 0 0.1 0 0 0 0 0 0 0 0 0 0 0 0.1 0 0 0 0.1 0 0.1 0 0.2 0 0.2-0.1 0.3-0.2c0.2 0 0.3-0.1 0.5-0.2q0.1 0 0.2-0.1c0.1 0 0.3-0.1 0.4-0.2q0.1-0.1 0.2-0.1 0-0.1 0.1-0.1 0.1-0.1 0.1-0.3 0.1-0.1 0.1-0.1 0.1-0.1 0.1-0.2 0.1-0.1 0.1-0.2 0-0.1 0-0.1 0-0.2 0-0.3c0.1 0 0.1-0.1 0.1-0.1q0-0.1-0.1-0.1-0.1 0-0.1 0-0.1-0.1-0.2-0.1 0 0 0 0c-0.1 0-0.1 0-0.2 0q0 0 0 0 0 0-0.1 0-0.1 0-0.1 0-0.1 0-0.2 0-0.1 0-0.2 0-0.1 0-0.1 0.1-0.1 0-0.1 0-0.1 0-0.1 0-0.1 0-0.1 0-0.1 0.1-0.2 0.1-0.2 0.1-0.4 0.2-0.1 0-0.2 0 0 0-0.1 0.1 0 0-0.1 0.1-0.1 0-0.3 0.2-0.2 0.1-0.3 0.2-0.3 0.3-0.5 0.6-0.1 0.2-0.2 0.4 0 0.1 0 0.2 0 0 0 0 0 0.1 0 0.1 0.1 0.1 0.1 0.2 0.1 0.1 0.1 0.2 0 0.1 0.1 0.2 0 0.1 0 0.3 0 0.1 0.1 0.1c0 0.1 0.1 0.1 0.2 0.2q0 0 0.1 0 0.1 0 0.2 0.1 0.1 0 0.3 0 0.1 0 0.3 0 0.1 0 0.2 0 0.1-0.1 0.2-0.1 0.1 0 0.1 0.1 0.2 0 0.4 0 0.1 0 0.2 0 0.1 0 0.2 0 0.1 0 0.3 0 0.1-0.1 0.2-0.1 0-0.1 0.1-0.1 0.2 0 0.3-0.1c0.2-0.1 0.3-0.2 0.4-0.3q0.1-0.1 0.2-0.1 0.1-0.1 0.2-0.1 0.1-0.1 0.1-0.2 0.1-0.1 0.1-0.2 0.1-0.1 0.1-0.2 0-0.2 0.1-0.3 0.1-0.1 0.1-0.3 0-0.1 0-0.3 0 0 0-0.1 0-0.1-0.1-0.2 0-0.1 0-0.2 0-0.1 0-0.1 0-0.1-0.1-0.2 0-0.1-0.1-0.1 0-0.1 0-0.1 0 0-0.1 0 0 0 0-0.1-0.1 0-0.2 0 0 0-0.1-0.1-0.1 0-0.1-0.1-0.1 0-0.1-0.1-0.1 0-0.1-0.1c-0.1 0-0.2-0.1-0.3-0.1q0 0-0.1 0-0.1 0-0.1-0.1-0.1 0-0.2 0 0 0-0.1 0 0 0-0.1 0-0.1 0-0.2 0 0 0-0.1 0-0.1 0-0.3 0-0.2 0-0.3 0.1-0.2 0-0.3 0-0.1 0.1-0.2 0.1-0.2 0.2-0.3 0.3-0.2 0.1-0.4 0.3-0.2 0.1-0.3 0.2-0.1 0-0.1 0.1 0.1-0.2 0.3-0.3c0.5-0.6 1.2-0.9 2.1-0.9q0 0 0.1 0 0 0 0.1 0 0.1 0 0.2 0.1 0 0 0 0 0.2 0 0.3 0 0.2 0.1 0.3 0.1 0.1 0.1 0.2 0.1 0 0 0.1 0 0.1 0.1 0.2 0.2 0.1 0.1 0.2 0.1 0 0.1 0.1 0.2 0.2 0.2 0.2 0.5 0.1 0.3 0.1 0.5-0.1 0.2-0.1 0.3 0 0.1 0 0.3-0.1 0-0.1 0.1 0 0.1 0 0.1 0 0.1-0.1 0.3 0 0.1-0.1 0.2-0.2 0.2-0.3 0.3-0.1 0.2-0.3 0.2-0.1 0.1-0.3 0.2-0.1 0.1-0.2 0.1-0.1 0-0.2 0.1-0.1 0-0.1 0.1-0.1 0-0.1 0-0.1 0-0.3 0-0.2 0-0.3 0-0.1 0.1-0.2 0.1-0.1-0.1-0.2-0.1-0.1 0-0.2 0 0 0-0.1 0-0.1 0-0.1 0-0.1 0-0.1 0c-0.2 0.1-0.4 0.2-0.6 0.1z"/><path class="u" d="m59.3 41.4c0 0 1.1 0.2 1.5 0.1 0.4 0 0.8 0 1.4-0.1 0.4-0.1 0.8-0.4 1.1-0.6 0.2-0.2 0.3-0.3 0.4-0.5 0.2-0.3 0.3-0.5 0.3-0.5h0.1c0 0-0.1 0.6-0.4 0.9-0.3 0.3-0.6 0.5-0.8 0.6-0.1 0-0.9 0.4-1.3 0.4-0.4 0-1-0.1-1.5-0.1-0.3 0-1-0.1-1-0.1z"/><path class="v" d="m59.1 41.3l0.2 0.1c-0.1 0.1-0.2 0.1-0.2 0.1-0.1-0.1-0.2-0.4-0.2-0.4z"/><path class="w" d="m64.1 39.3c0 0 0.1 0.3 0.1 0.5 0 0-0.1 0.1-0.2 0 0 0 0.1-0.4 0.1-0.5z"/><path class="x" d="m62.1 36.1c0 0 0.6 0 0.7 0.1 0 0-0.1 0.2-0.2 0.2 0 0-0.5-0.3-0.5-0.3z"/><path class="y" d="m58.7 37.1l-0.1 0.1-0.3 0.1c0.2-0.1 0.4-0.2 0.4-0.2z"/><path class="z" d="m58.6 41c0 0 1.2 0.3 2.1 0.3 1 0.1 1.3-0.2 1.7-0.3 0.5-0.2 1.1-0.5 1.3-0.8 0.2-0.3 0.4-0.9 0.4-0.9 0 0-0.2 0.9-0.4 1.1-0.1 0.2-0.9 0.7-1 0.7-0.2 0.1-0.5 0.4-1.2 0.3 0 0-0.4 0.1-0.6 0.1-0.1 0-0.4 0.1-0.8 0 0 0-0.6-0.1-0.8-0.1-0.1 0-0.7-0.4-0.7-0.4z"/><path class="A" d="m58.9 39.7c0 0 1 0.1 1.7 0.1 0.7-0.1 1.1-0.3 1.3-0.4 0.2-0.2 0.6-0.6 0.8-0.8 0.2-0.2 0.2-0.7 0.2-0.7 0 0 0.1 0.5-0.1 0.7-0.1 0.2-0.5 0.6-0.7 0.7-0.2 0.1-0.7 0.4-0.9 0.5-0.3 0-0.7 0.1-1 0.1-0.4-0.1-1.1-0.1-1.3-0.2z"/><path class="B" d="m60.3 41.3c0 0 1-0.1 1.4-0.2 0.3 0 0.8-0.2 1.1-0.4 0.4-0.1 0.6-0.3 0.8-0.5 0.2-0.1 0.4-0.7 0.4-0.7 0 0-0.1 0.6-0.4 0.8-0.2 0.2-0.8 0.5-1.4 0.8-0.8 0.3-1.4 0.2-1.9 0.2z"/><path class="t" d="m63.9 40q0-0.1 0.1-0.2-0.1 0.3-0.3 0.6 0 0-0.1 0.1 0 0 0 0.1-0.2 0.2-0.5 0.3-0.2 0.2-0.5 0.3-0.2 0.1-0.4 0.2-0.2 0-0.4 0-0.1 0-0.2 0-0.1 0-0.2 0.1-0.2 0-0.4 0-0.2 0-0.4 0-0.2 0-0.4 0-0.2 0-0.4 0-0.1 0-0.3 0-0.1-0.1-0.2-0.1-0.1 0-0.2-0.1 0 0 0 0 0.1 0 0.2 0 0.2 0.1 0.4 0.1 0.2 0 0.3 0c0.1 0 0.2 0 0.3 0q0 0.1 0.1 0.1 0.1 0 0.2 0 0.1 0 0.1 0 0.1-0.1 0.2-0.1 0.1 0 0.2 0 0.2 0 0.3 0 0.2 0 0.3 0 0.1 0 0.1 0 0.1 0 0.1 0 0.1 0 0.2 0 0.1-0.1 0.2-0.1 0.1-0.1 0.3-0.2 0.1 0 0.2-0.1 0.2-0.1 0.3-0.2 0.1-0.1 0.2-0.2 0.1 0 0.2-0.1 0 0 0.1-0.1 0.1-0.1 0.2-0.2 0.1-0.1 0.1-0.2z"/><path class="C" d="m60.7 38.3c0 0 0.7-0.6 1-1.2 0 0-0.8 0.9-1 1.2z"/><path class="A" d="m60.9 38.6c0.4-0.1 0.8-0.5 0.8-0.5 0 0-0.3 0.5-0.8 0.7-0.5 0.2-1 0.2-1 0.2 0.4-0.1 0.7-0.2 1-0.4z"/><path class="D" d="m61.7 38q0 0 0.2-0.4 0.1-0.3 0.2-0.3c0 0-0.1 0.3-0.4 0.7z"/><path class="E" d="m61.3 40.2c0.5-0.1 0.8-0.3 1.1-0.6 0.4-0.2 0.6-0.7 0.6-0.7 0 0-0.1 0.3-0.2 0.4-0.1 0.1-0.2 0.3-0.5 0.5-0.2 0.2-0.2 0.3-1.1 0.4-0.8 0.2-1.4 0-1.4 0 0.3 0 0.9 0 1.5 0zm0.5 1.4c0.6 0 1.1-0.3 1.1-0.3 0 0-0.5 0.3-0.8 0.4-0.3 0.1-0.7 0.1-1 0-0.2 0-0.8-0.1-0.8-0.1 0.6 0 0.9 0.1 1.5 0zm1.2-0.4c0 0 0.4-0.2 0.6-0.4 0 0-0.2 0.3-0.6 0.4z"/><path class="t" d="m60.2 38c0 0 0.5-0.3 0.6-0.5 0.1-0.3 0.1-0.4 0.1-0.4 0 0 0.1 0.2-0.1 0.5-0.3 0.3-0.6 0.4-0.6 0.4zm-1.6 2c0.1 0.1 0.4 0.2 0.4 0.2 0 0-0.2 0-0.4-0.1-0.3-0.1-0.3-0.3-0.3-0.4 0 0 0.1 0.2 0.3 0.3z"/><path class="F" d="m5.6 9.9q-0.6 0-1.2-0.1-0.5-0.1-0.9-0.3-0.1-0.1-0.3-0.1 0-0.1-0.1-0.1-0.1 0-0.2-0.1-0.7-0.4-1.3-1 0 0 0 0-0.1-0.1-0.2-0.2-0.1-0.1-0.2-0.2-0.1-0.2-0.3-0.4-0.2-0.4-0.3-0.8-0.1 0-0.1-0.1 0-0.1 0-0.2c-0.4-1.2-0.3-2.5 0.3-3.5q0.3-0.5 0.7-0.9 0.2-0.2 0.5-0.4 0.5-0.5 1.2-0.7 0.1-0.1 0.2-0.1 0.2-0.1 0.4-0.1 0.4-0.1 0.7-0.2 0.2 0 0.4 0 0.2 0 0.4 0 0.3 0 0.7 0.1 0.1 0 0.2 0 0.1 0 0.1 0.1 0.4 0 0.8 0.2 0.5 0.2 0.9 0.5c0.8 0.5 1.5 1.2 1.9 2q0.1 0.2 0.1 0.4 0.1 0.1 0.1 0.2 0.3 0.9 0.2 1.7 0 1-0.5 1.8c-0.4 0.7-1 1.4-1.8 1.8q-0.5 0.3-1.3 0.5-0.6 0.1-1.1 0.2z"/><path class="t" d="m4.1 3.7c0.1-0.1 0.2-0.3 0.4-0.3q0.1 0.1 0.2 0.1c0.2 0 0.5 0.1 0.4 0.4-0.1 0.2-0.4 0.2-0.6 0.1q-0.1 0-0.2-0.1-0.1 0-0.1-0.1c-0.1-0.1-0.1 0-0.1-0.1zm1.8 0.1q0.1-0.1 0.2-0.1 0.1 0 0.1 0.1 0.1 0 0.1 0.1 0 0.1-0.1 0.2c0 0.1-0.2 0.2-0.3 0.1q-0.1-0.1-0.1-0.2 0-0.1 0-0.1c0-0.1 0.1-0.1 0.2-0.1zm-0.3-0.9c0 0 0.1-0.1 0.2 0 0 0 0 0.1-0.1 0.1q0 0-0.1 0c0 0-0.1 0 0-0.1zm-1.6-1.7c0.1 0 0.2 0 0.3 0q0.1 0 0.1 0.1 0 0 0 0.1c0 0-0.1 0-0.1 0q-0.1 0.1-0.2 0-0.1 0-0.1 0-0.1 0-0.1-0.1c0 0 0.1 0 0.1 0zm1.6 6.8c0.1-0.1 0.2-0.1 0.2 0 0 0.1 0 0.2-0.1 0.3 0 0-0.2 0-0.2-0.1q-0.1-0.1 0-0.1 0-0.1 0-0.1c0 0 0.1-0.1 0.2-0.1zm-0.3-4.9c0.1 0 0.2 0 0.2 0 0 0.1 0 0.1-0.1 0.1q0 0.1-0.1 0 0 0 0-0.1 0 0 0 0c0 0 0.1 0 0.1 0zm1.5 1.8c0 0 0.1 0 0.1 0 0 0.1 0 0.1 0 0.1q-0.1 0.1-0.2 0 0 0 0-0.1 0 0 0 0c0 0 0.1 0 0.1 0zm-3.5 2.4c0-0.1 0.1 0 0.1 0 0 0 0 0.1-0.1 0.1q0 0-0.1 0 0 0 0-0.1 0 0 0 0c0 0 0.1 0 0.1 0zm4.9-4.3c0-0.1 0.1 0 0.1 0 0 0 0 0.1-0.1 0.1q0 0-0.1 0 0 0 0-0.1 0 0 0 0c0 0 0.1-0.1 0.1-0.1zm-1.5 4.4c0.1-0.1 0.1-0.1 0.1-0.2q0.1 0 0.1-0.1c0.1 0 0.1-0.1 0.2-0.1 0.1 0 0.1 0.2 0 0.2q0 0.2-0.1 0.2-0.1 0-0.1 0-0.1 0-0.1 0c0 0 0 0-0.1 0zm1 1.3c0 0 0.2 0 0.2 0q0 0 0 0 0 0 0 0.1 0 0-0.1 0.1 0 0-0.1-0.1 0 0 0 0 0-0.1 0-0.1z"/><path class="G" d="m8.8 4.2c0 0.1 0-0.1 0-0.1q0 0 0 0 0.1 0 0.1 0 0 0.1 0 0.1 0.1 0 0 0 0 0.1 0 0.1-0.1-0.1-0.1-0.1z"/><path class="t" d="m8.4 4.3c-0.1 0 0.1-0.1 0.1-0.1q0 0 0 0.1 0 0 0 0 0 0.1 0 0.1-0.1 0-0.2 0 0 0 0 0 0-0.1 0.1-0.2z"/><path class="e" d="m1.3 2.6q0.2-0.3 0.4-0.5c0.2-0.1 0.3-0.2 0.5-0.3q0.2 0 0.4-0.1 0.1-0.1 0.3-0.1c0.1 0 0.3-0.1 0.4 0q0.2 0 0.4 0.1 0.3 0.1 0.3 0.3 0.1 0.1 0.1 0.3 0.1 0.1 0.2 0.3c0.1 0.2 0.2 0.4 0 0.6-0.1 0.2-0.2 0.3-0.4 0.4q-0.2 0.2-0.4 0.5 0 0.2-0.2 0.4 0 0 0 0.1-0.1 0.1-0.1 0.2 0 0.1-0.1 0.2-0.1 0.1-0.2 0.2-0.2 0.1-0.3 0.1-0.2 0.1-0.3 0c-0.2 0-0.4-0.1-0.6-0.2-0.2-0.2-0.3-0.4-0.4-0.6-0.1-0.1-0.2-0.4-0.2-0.6-0.1-0.2-0.1-0.4-0.1-0.7 0.1-0.1 0.1-0.2 0.2-0.4q0-0.1 0.1-0.2c0-0.1 0.1-0.2 0 0zm-0.3 2.3q0.1 0 0.1 0 0.1 0 0.1 0c0.1 0.1 0.2 0.1 0.2 0.2q0 0 0 0.1 0.1 0 0.1 0.1 0 0.1-0.1 0.2 0 0.1-0.2 0.2c0 0-0.2 0.1-0.3 0 0 0-0.1-0.1-0.1-0.1q-0.1-0.1-0.1-0.2 0-0.1 0.1-0.3 0 0 0-0.1c0.1 0 0.1-0.1 0.2-0.1-0.1 0 0 0 0 0zm0.7 0.6q0.1-0.1 0.2-0.1 0 0 0.1 0.1 0 0 0 0c0 0.1 0 0.1 0 0.2-0.1 0-0.1-0.1-0.2-0.1 0 0-0.1-0.1 0-0.1zm0.9 0.4q0.1-0.1 0.1-0.2 0.1-0.1 0.1-0.3c0.1 0 0.2-0.2 0.3-0.2q0.2 0 0.4 0.1c0.1 0.1 0.2 0.2 0.3 0.4 0.1 0.1 0.2 0.1 0.3 0.1 0.2 0.1 0.3 0.2 0.4 0.4q0.1 0.1 0.1 0.3 0.1 0.2 0.2 0.4c0.1 0.2 0.3 0.4 0.3 0.7q0.1 0.4 0 0.8c-0.1 0.2-0.3 0.4-0.5 0.5-0.2 0.1-0.5 0.1-0.8 0.1q-0.5-0.1-0.9-0.3-0.3-0.2-0.5-0.3-0.3-0.1-0.4-0.2c-0.4-0.2-0.6-0.5-0.8-0.8q0-0.2 0-0.4 0-0.2 0.1-0.3c0.1-0.2 0.4-0.4 0.6-0.6q0.2-0.1 0.4-0.1 0.1 0 0.1 0 0.1 0 0.1 0 0.1-0.1 0.1-0.1c0 0 0 0 0 0zm0.7-1.3c0.1-0.1 0.1-0.2 0.2-0.4q0 0 0 0 0.1 0 0.1 0 0.1 0.2 0.2 0.3c0 0.1 0 0.3-0.1 0.3-0.1 0.1-0.3 0.1-0.3 0q0-0.1 0-0.1-0.1 0-0.1 0 0-0.1 0-0.1c0 0 0.1 0 0 0zm1.1-3.1q0.1-0.1 0.1-0.2 0.1 0 0.2-0.1 0.1 0 0.2 0 0.1 0 0.2 0 0.1 0 0.2 0 0.1 0 0.3 0 0.1 0.1 0.2 0.1 0.2 0.1 0.3 0.1c0.3 0.2 0.6 0.4 0.7 0.7 0.1 0.1 0.1 0.3 0 0.5q-0.1 0.2-0.4 0.3-0.2 0.1-0.4 0-0.3 0-0.4-0.1-0.1-0.1-0.3-0.1-0.1-0.1-0.2-0.2-0.2-0.1-0.4-0.3-0.1-0.1-0.3-0.3c0 0-0.1-0.1-0.1-0.2q0-0.1 0.1-0.1 0-0.1 0-0.1 0 0 0 0zm0 0.9q0.1 0 0.2 0 0 0 0 0 0 0 0 0 0 0.1 0 0.2c0 0-0.1 0.1-0.1 0q-0.1 0-0.1-0.1c0 0 0-0.1 0.1-0.1zm0.7 6.3q0.1 0 0.2 0 0.1 0 0.2 0.1c0.2 0.1 0.3 0.3 0.2 0.5q0 0.1-0.1 0.2 0 0-0.1 0.1-0.2 0.1-0.4 0.1c-0.2 0.1-0.5 0.1-0.7-0.1q-0.1 0-0.2 0 0-0.1 0-0.1c-0.1 0-0.1-0.1-0.1-0.1q0 0 0.1-0.1c0.1 0 0.2 0 0.3-0.1q0.2-0.1 0.3-0.2 0.1-0.1 0.1-0.2c0.1-0.1 0.1-0.1 0.2-0.1q0 0 0 0zm-1.8 0.5c0.1 0 0.2-0.1 0.3 0q0 0.1 0 0.1 0 0 0 0.1c0 0.1-0.2 0.1-0.3 0q-0.1 0-0.2-0.1 0 0 0 0 0-0.1 0-0.1 0.1 0 0.1 0 0 0 0 0 0.1 0 0.1 0zm3.8-1.8q0.1 0 0.2-0.1 0.1-0.1 0.2-0.1 0.2-0.2 0.5-0.3 0.2-0.2 0.5-0.3 0.2 0 0.3-0.1 0.1 0 0.3 0c0 0 0.1 0 0.1 0.1 0.1 0 0.1 0.1 0 0.2q0 0.3-0.2 0.6-0.1 0.2-0.3 0.5-0.1 0.1-0.2 0.2-0.1 0.1-0.2 0.2-0.1 0-0.2 0.1-0.1 0.1-0.2 0.2c-0.2 0.1-0.3 0.2-0.5 0.1q-0.3 0-0.4-0.2-0.1-0.1-0.2-0.3 0-0.1 0-0.2 0-0.1 0.1-0.2 0-0.1 0-0.2 0.1 0 0.1-0.1 0.1-0.1 0.1-0.1c0 0 0.1 0 0 0zm2.1-1.3q0-0.1 0-0.3 0.1-0.1 0.2-0.3c0 0 0.1-0.1 0.2-0.1q0 0.1 0 0.2 0.1 0.1 0.1 0.2-0.1 0.1-0.1 0.2 0 0.1 0 0.2-0.1 0-0.1 0 0 0.1-0.1 0.1 0 0-0.1 0c0-0.1-0.1-0.1-0.1-0.1q0-0.1 0-0.1c0 0 0.1-0.1 0 0zm-0.7 0.1q0 0 0 0 0.1 0 0.1 0.1 0 0.1 0 0.1-0.1 0-0.2 0.1c-0.1 0-0.1 0-0.2 0q-0.1 0-0.2 0 0-0.1 0-0.1c0 0 0.1-0.1 0.1-0.1q0.1-0.1 0.2-0.1c0.1 0 0.1 0 0.2 0-0.1 0 0 0 0 0zm-3.1 0.7q0.1 0 0.2-0.1c0 0.1 0 0.1 0 0.1q0 0 0 0.1 0 0.1-0.2 0.1c-0.1 0-0.1-0.1-0.1-0.1q0-0.1 0-0.1 0 0 0.1 0zm2-5.2q0.1-0.1 0.1-0.1 0.1 0 0.2 0 0.1 0.1 0.2 0.2 0.2 0.1 0.3 0.3 0.3 0.3 0.3 0.8 0 0.1 0 0.2 0.1 0.1 0 0.1 0 0.2-0.2 0.3c-0.2 0.1-0.4 0.2-0.7 0.2q-0.1-0.1-0.3-0.2-0.2-0.1-0.3-0.3-0.1-0.1-0.1-0.3 0-0.2 0.1-0.4 0-0.1 0.1-0.3 0-0.1 0.1-0.2 0-0.1 0.1-0.2 0.1-0.1 0.1-0.1 0 0 0 0zm0.8 2q0.1-0.1 0.2-0.1 0 0 0 0 0.1 0 0.1 0.1 0 0 0 0.1 0 0 0 0 0 0.1-0.1 0.1 0 0-0.1 0 0 0 0-0.1-0.1 0-0.1-0.1zm-1.1 5.2q0 0.1 0.1 0.2 0 0-0.1 0.1 0 0.1-0.1 0.1-0.2 0-0.3 0c-0.1 0-0.2-0.1-0.2-0.2 0-0.1 0-0.2 0.2-0.3q0 0 0.1 0 0 0 0.1 0 0.1 0 0.1 0 0 0.1 0.1 0.1z"/></svg>